<svg xmlns="http://www.w3.org/2000/svg" xmlns:xlink="http://www.w3.org/1999/xlink" viewBox="0 0 162.16 81.55">
  <defs>
    <style>
      .cls-1, .cls-6, .cls-8, .cls-9 {
        fill: none;
      }

      .cls-1 {
        clip-rule: evenodd;
      }

      .cls-2, .cls-3, .cls-4, .cls-5 {
        fill: #fff;
      }

      .cls-2, .cls-4, .cls-5, .cls-8, .cls-9 {
        stroke-miterlimit: 10;
      }

      .cls-2, .cls-4, .cls-5, .cls-8 {
        stroke-width: 2px;
      }

      .cls-2 {
        stroke: url(#linear-gradient);
      }

      .cls-4 {
        stroke: url(#linear-gradient-2);
      }

      .cls-5 {
        stroke: url(#linear-gradient-3);
      }

      .cls-7 {
        fill: url(#linear-gradient-4);
      }

      .cls-8 {
        stroke: url(#linear-gradient-5);
      }

      .cls-9 {
        stroke: #000;
        stroke-width: 0.75px;
      }

      .cls-10 {
        clip-path: url(#clip-path);
      }

      .cls-11 {
        fill: #02a0e6;
      }

      .cls-12 {
        clip-path: url(#clip-path-2);
      }

      .cls-13 {
        fill: #fa1a57;
      }

      .cls-14 {
        clip-path: url(#clip-path-3);
      }

      .cls-15 {
        fill: #2bbeff;
      }

      .cls-16 {
        clip-path: url(#clip-path-4);
      }

      .cls-17 {
        fill: #08d6e5;
      }
    </style>
    <linearGradient id="linear-gradient" x1="123.66" y1="36.37" x2="123.66" y2="81.55" gradientUnits="userSpaceOnUse">
      <stop offset="0" stop-color="#05cef4"/>
      <stop offset="1" stop-color="#02a0e6"/>
    </linearGradient>
    <linearGradient id="linear-gradient-2" x1="123.66" y1="25.32" x2="123.66" y2="64.6" xlink:href="#linear-gradient"/>
    <linearGradient id="linear-gradient-3" x1="123.66" y1="14.29" x2="123.66" y2="47.63" xlink:href="#linear-gradient"/>
    <linearGradient id="linear-gradient-4" x1="123.66" y1="3" x2="123.66" y2="30.92" xlink:href="#linear-gradient"/>
    <linearGradient id="linear-gradient-5" x1="123.66" y1="2" x2="123.66" y2="31.92" xlink:href="#linear-gradient"/>
    <clipPath id="clip-path" transform="translate(2.08)">
      <path class="cls-1" d="M16.79,14.7a4.14,4.14,0,0,0-5.86,5.86l2.93,2.93,2.93-2.93a4.16,4.16,0,0,0,0-5.86"/>
    </clipPath>
    <clipPath id="clip-path-2" transform="translate(2.08)">
      <path class="cls-1" d="M4.14,21.78a4.13,4.13,0,0,0,2.93-1.22h0l1.21-1.21V17.63a4.14,4.14,0,1,0-4.14,4.15"/>
    </clipPath>
    <clipPath id="clip-path-3" transform="translate(2.08)">
      <path class="cls-1" d="M18.82,26.46h0l-.25-.26-2.71-2.71-2.93-2.93a4.14,4.14,0,0,1,0-5.86L10,17.63,8.28,19.35,7.07,20.56h0A4.14,4.14,0,0,1,0,17.63V29.35H0a4.14,4.14,0,0,1,7.07-2.93L10,29.35l2.71,2.71.25.26h0a4.14,4.14,0,0,0,5.85-5.85"/>
    </clipPath>
    <clipPath id="clip-path-4" transform="translate(2.08)">
      <path class="cls-1" d="M1.21,26.42a4.14,4.14,0,0,0,5.86,5.86L10,29.35,7.07,26.42a4.14,4.14,0,0,0-5.86,0"/>
    </clipPath>
  </defs>
  <title>stack-layer-1</title>
  <g id="Layer_2" data-name="Layer 2">
    <g id="Layer_1-2" data-name="Layer 1">
      <path class="cls-2" d="M122.68,80.28,89.2,60.62a1.92,1.92,0,0,1,0-3.33l33.48-19.65a1.9,1.9,0,0,1,1.95,0l33.49,19.65a1.93,1.93,0,0,1,0,3.33L124.63,80.28A1.9,1.9,0,0,1,122.68,80.28Z" transform="translate(2.08)"/>
      <path class="cls-3" d="M123.66,26.32a1.93,1.93,0,0,1,.93.25l28.61,16.8a1.85,1.85,0,0,1,0,3.18L124.59,63.34a1.81,1.81,0,0,1-1.87,0L94.12,46.55a1.84,1.84,0,0,1,0-3.18l28.6-16.8a1.94,1.94,0,0,1,.94-.25m0-3a4.86,4.86,0,0,0-2.46.67L92.6,40.78a4.85,4.85,0,0,0,0,8.36l28.6,16.79a4.86,4.86,0,0,0,2.46.67,4.8,4.8,0,0,0,2.45-.67l28.6-16.79a4.84,4.84,0,0,0,0-8.36L126.11,24a4.8,4.8,0,0,0-2.45-.67Z" transform="translate(2.08)"/>
      <path class="cls-4" d="M122.72,63.34,94.12,46.55a1.84,1.84,0,0,1,0-3.18l28.6-16.8a1.89,1.89,0,0,1,1.87,0l28.61,16.8a1.85,1.85,0,0,1,0,3.18L124.59,63.34A1.84,1.84,0,0,1,122.72,63.34Z" transform="translate(2.08)"/>
      <path class="cls-3" d="M123.66,15.29a1.59,1.59,0,0,1,.84.23l23.85,14a1.67,1.67,0,0,1,0,2.88l-23.85,14a1.67,1.67,0,0,1-1.69,0L99,32.4a1.67,1.67,0,0,1,0-2.88l23.85-14a1.6,1.6,0,0,1,.85-.23m0-4a5.74,5.74,0,0,0-2.88.78l-23.84,14a5.67,5.67,0,0,0,0,9.78l23.84,14a5.69,5.69,0,0,0,5.75,0l23.85-14a5.67,5.67,0,0,0,0-9.78l-23.85-14a5.67,5.67,0,0,0-2.87-.78Z" transform="translate(2.08)"/>
      <path class="cls-5" d="M122.81,46.4,99,32.4a1.67,1.67,0,0,1,0-2.88l23.85-14a1.65,1.65,0,0,1,1.69,0l23.85,14a1.67,1.67,0,0,1,0,2.88l-23.85,14A1.65,1.65,0,0,1,122.81,46.4Z" transform="translate(2.08)"/>
      <path class="cls-6" d="M122.72,63.34,94.12,46.55a1.84,1.84,0,0,1,0-3.18l28.6-16.8a1.89,1.89,0,0,1,1.87,0l28.61,16.8a1.85,1.85,0,0,1,0,3.18L124.59,63.34A1.84,1.84,0,0,1,122.72,63.34Z" transform="translate(2.08)"/>
      <path class="cls-6" d="M122.68,80.28,89.2,60.62a1.92,1.92,0,0,1,0-3.33l33.48-19.65a1.9,1.9,0,0,1,1.95,0l33.49,19.65a1.93,1.93,0,0,1,0,3.33L124.63,80.28A1.9,1.9,0,0,1,122.68,80.28Z" transform="translate(2.08)"/>
      <g>
        <path class="cls-3" d="M123.66,3a1.63,1.63,0,0,1,.82.22l21,12.35a1.61,1.61,0,0,1,0,2.78l-21,12.35a1.63,1.63,0,0,1-.82.22,1.58,1.58,0,0,1-.82-.22l-21-12.35a1.61,1.61,0,0,1,0-2.78l21-12.35a1.58,1.58,0,0,1,.82-.22m0-3a4.6,4.6,0,0,0-2.34.64L100.29,13a4.62,4.62,0,0,0,0,8l21,12.34a4.6,4.6,0,0,0,2.34.64,4.54,4.54,0,0,0,2.33-.64l21-12.34a4.61,4.61,0,0,0,0-8L126,.64A4.54,4.54,0,0,0,123.66,0Z" transform="translate(2.08)"/>
        <path class="cls-7" d="M122.84,30.7l-21-12.35a1.61,1.61,0,0,1,0-2.78l21-12.35a1.65,1.65,0,0,1,1.64,0l21,12.35a1.61,1.61,0,0,1,0,2.78l-21,12.35A1.65,1.65,0,0,1,122.84,30.7Z" transform="translate(2.08)"/>
        <path class="cls-8" d="M122.84,30.7l-21-12.35a1.61,1.61,0,0,1,0-2.78l21-12.35a1.65,1.65,0,0,1,1.64,0l21,12.35a1.61,1.61,0,0,1,0,2.78l-21,12.35A1.65,1.65,0,0,1,122.84,30.7Z" transform="translate(2.08)"/>
      </g>
      <g>
        <path d="M123.16,20.43a3,3,0,1,1-3,3,3,3,0,0,1,3-3m0-.75a3.75,3.75,0,1,0,3.75,3.75,3.75,3.75,0,0,0-3.75-3.75Z" transform="translate(2.08)"/>
        <line class="cls-9" x1="121.74" y1="23.43" x2="28.74" y2="23.43"/>
      </g>
      <g class="cls-10">
        <rect class="cls-11" x="9.72" y="11.41" width="12.45" height="14.17"/>
      </g>
      <g class="cls-12">
        <rect class="cls-13" y="11.41" width="12.45" height="12.46"/>
      </g>
      <g class="cls-14">
        <rect class="cls-15" y="12.62" width="24.17" height="22.96"/>
      </g>
      <g class="cls-16">
        <rect class="cls-17" y="23.13" width="14.17" height="12.46"/>
      </g>
    </g>
  </g>
</svg>
