<svg xmlns="http://www.w3.org/2000/svg" viewBox="0 0 28 28">
    <g fill="#02A0E6" fill-rule="evenodd">
        <path d="M21.567 26V15.269l1.688-1.609V26c0 .475-.163.875-.488 1.2a1.63 1.63 0 0 1-1.2.488H2.161c-.457 0-.852-.163-1.186-.488A1.609 1.609 0 0 1 .474 26V4.906c0-.457.167-.852.5-1.186.335-.334.73-.501 1.187-.501h13.527l.052.052-1.714 1.635H2.161V26h19.406z"/>
        <path d="M23.677.688c.457 0 .896.092 1.318.276.44.197.842.47 1.187.805.44.421.769.852.988 1.292.22.439.339.896.356 1.37 0 .458-.105.915-.316 1.372-.176.38-.43.762-.766 1.142l-.359.385c-.196.203-.532.54-1.009 1.013l-2.849 2.807-1.926 1.891a909.004 909.004 0 0 0-5.695 5.629l-.145.105a.467.467 0 0 1-.145.08l-.284.079c-.119.035-.262.079-.43.131l-1.914.612-.694.219c-.422.132-.815.258-1.18.377l-1.449.481c-.035.011-.06.019-.074.022l-.066.006-.052.01a.433.433 0 0 1-.106.014.705.705 0 0 1-.685-.541.706.706 0 0 1-.02-.287l.03-.137c.027-.097.106-.36.24-.788l.443-1.44.124-.406c.14-.463.277-.92.41-1.372l.197-.672c.136-.476.277-.95.422-1.424.017-.052.04-.105.065-.158a.62.62 0 0 1 .12-.158l1.753-1.754 5.87-5.85 3.524-3.532c.21-.209.346-.34.406-.394l.021-.019c.14-.14.453-.374.936-.699.484-.325 1.068-.487 1.754-.487zm0 1.687a1.68 1.68 0 0 0-1.015.316l-.395.293a1.01 1.01 0 0 0-.093.077l-6.833 6.83c-.76.758-1.502 1.496-2.224 2.213l-2.334 2.32a205.529 205.529 0 0 1-1.24 4.166l2.255-.724 1.78-.567.527-.501L24.496 6.53c.198-.197.343-.346.437-.446l.089-.097c.28-.28.487-.549.62-.804.13-.255.197-.496.197-.725-.024-.25-.1-.493-.224-.712a2.917 2.917 0 0 0-.594-.738 2.85 2.85 0 0 0-.672-.475 1.538 1.538 0 0 0-.672-.158z"/>
    </g>
</svg>
