<?xml version="1.0" encoding="UTF-8"?>
<svg width="20px" height="20px" viewBox="0 0 20 20" version="1.1" xmlns="http://www.w3.org/2000/svg" xmlns:xlink="http://www.w3.org/1999/xlink">
    <!-- Generator: Sketch 53.2 (72643) - https://sketchapp.com -->
    <title>Combined Shape</title>
    <desc>Created with Sketch.</desc>
    <g id="Symbols" stroke="none" stroke-width="1" fill="none" fill-rule="evenodd">
        <g id="Assets/Icons/Interface/Close" transform="translate(-2.000000, -2.000000)" fill="#030303">
            <path d="M12,10.034357 L19.6272591,2.40709799 C20.1700564,1.86430067 21.0501047,1.86430067 21.592902,2.40709799 C22.1356993,2.9498953 22.1356993,3.82994363 21.592902,4.37274094 L13.965643,12 L21.592902,19.6272591 C22.1356993,20.1700564 22.1356993,21.0501047 21.592902,21.592902 C21.0501047,22.1356993 20.1700564,22.1356993 19.6272591,21.592902 L12,13.965643 L4.37274094,21.592902 C3.82994363,22.1356993 2.9498953,22.1356993 2.40709799,21.592902 C1.86430067,21.0501047 1.86430067,20.1700564 2.40709799,19.6272591 L10.034357,12 L2.40709799,4.37274094 C1.86430067,3.82994363 1.86430067,2.9498953 2.40709799,2.40709799 C2.9498953,1.86430067 3.82994363,1.86430067 4.37274094,2.40709799 L12,10.034357 Z" id="Combined-Shape"></path>
        </g>
    </g>
</svg>