<svg xmlns="http://www.w3.org/2000/svg" viewBox="0 0 34 30">
    <path fill="#02A0E6" d="M7.601 16.265l-.026-.067h3.89l-.022.064c-.356 1.016-.964 1.963-1.809 2.814l-.032.034-.035-.033c-.889-.819-1.55-1.766-1.966-2.812zm-2.948 5.478l.547 1.122c1.807-.55 3.273-1.23 4.356-2.023l.029-.02.027.02c1.16.837 2.58 1.505 4.218 1.983l.757-1.26c-1.527-.385-2.841-.931-3.906-1.626l-.048-.031.04-.043c1.104-1.138 1.853-2.36 2.225-3.632l.01-.035h.607v-1.146h-3.21v-1.53H8.902v1.53H4.868v1.146h1.29l.009.036c.144.504.425 1.108.836 1.793.41.685.925 1.33 1.528 1.915l.042.041-.047.034c-.97.677-2.273 1.259-3.873 1.726zM22.94 10.369l1.47-4.144 1.429 4.144h-2.9.001zm.866-6.255l-3.424 9.337h1.496l.655-1.876h3.685l.656 1.876h1.482l-3.41-9.337h-1.14zm8.15 11.048a.644.644 0 0 1-.644.645h-2.345v2.873a.115.115 0 0 1-.065.102c-.047.022-.073.024-.12-.015l-3.564-2.96h-7.779a.644.644 0 0 1-.643-.645V2.468c0-.356.288-.644.643-.644h13.873c.355 0 .643.288.643.644v12.694h.001zM31.311.28H17.439a2.19 2.19 0 0 0-2.187 2.188v12.694a2.19 2.19 0 0 0 2.187 2.189h7.222l3.134 2.603c.495.409 1.18.496 1.762.225.579-.271.955-.86.955-1.499v-1.33h.8a2.191 2.191 0 0 0 2.188-2.188V2.468A2.191 2.191 0 0 0 31.312.28h-.001zM17.204 19.075v5.472c0 .355-.29.644-.645.644H8.962a.77.77 0 0 0-.494.179l-3.345 2.78c-.06.049-.093.03-.123.015a.113.113 0 0 1-.065-.102v-2.1a.771.771 0 0 0-.771-.772H2.688a.645.645 0 0 1-.644-.644V11.852c0-.355.288-.645.644-.645h10.827V9.664H2.688A2.191 2.191 0 0 0 .5 11.852v12.695c0 1.206.982 2.188 2.188 2.188h.703v1.328a1.661 1.661 0 0 0 1.657 1.657c.385 0 .761-.136 1.06-.382l3.133-2.603h7.318a2.191 2.191 0 0 0 2.188-2.188v-5.46H17.44c-.078 0-.157-.007-.235-.012h-.001z"/>
</svg>
