<svg xmlns="http://www.w3.org/2000/svg" viewBox="0 0 28 14">
    <path fill="#02A0E6" d="M13.224 4.567l.086.243h6.25V2.54a.7.7 0 0 1 .605-.694l.095-.006h2.93a.7.7 0 0 1 .694.605l.006.095v2.27h1.79a2.2 2.2 0 0 1 1.398.51l.142.13h-.06a2.18 2.18 0 0 1-1.068 3.681l-.162.029v2.37a.7.7 0 0 1-.605.694l-.095.006h-3a.7.7 0 0 1-.694-.605l-.006-.095V9.18h-.83v2.35a.7.7 0 0 1-.605.694L20 12.23h-2.6a.7.7 0 0 1-.694-.605l-.006-.095V9.18h-3.36a6.77 6.77 0 0 1-13-.53A6.482 6.482 0 0 1 .13 7a6.57 6.57 0 0 1 .18-1.66 6.77 6.77 0 0 1 12.914-.773zM6.9 1.63A5.39 5.39 0 0 0 1.53 7c.001.442.058.882.17 1.31a5.37 5.37 0 0 0 10.41 0 .71.71 0 0 1 .575-.521l.105-.009h4.58a.7.7 0 0 1 .694.605l.006.095v2.35h1.23V8.48a.7.7 0 0 1 .605-.694L20 7.78h2.3a.7.7 0 0 1 .691.59l.009.11v2.32h1.59V8.48a.7.7 0 0 1 .605-.694l.095-.006h.39a.78.78 0 0 0 .55-1.34.79.79 0 0 0-.428-.22l-.122-.01h-2.49a.7.7 0 0 1-.694-.605l-.006-.095V3.24h-1.53v2.22a.7.7 0 0 1-.605.694l-.095.006h-7.47a.71.71 0 0 1-.68-.53 5.37 5.37 0 0 0-5.21-4zm0 1.87a3.5 3.5 0 1 1 0 7 3.5 3.5 0 0 1 0-7zM5.419 5.502A2.1 2.1 0 1 0 8.38 8.478a2.1 2.1 0 0 0-2.96-2.976z"/>
</svg>
