<?xml version="1.0" encoding="UTF-8"?>
<svg width="93px" height="64px" viewBox="0 0 93 64" version="1.1" xmlns="http://www.w3.org/2000/svg" xmlns:xlink="http://www.w3.org/1999/xlink">
    <!-- Generator: Sketch 61.2 (89653) - https://sketch.com -->
    <title>usp-icon-media</title>
    <desc>Created with Sketch.</desc>
    <defs>
        <linearGradient x1="32.7835044%" y1="0%" x2="67.2164956%" y2="135.675318%" id="linearGradient-1">
            <stop stop-color="#02A0E6" offset="0%"></stop>
            <stop stop-color="#0594D4" offset="100%"></stop>
        </linearGradient>
        <linearGradient x1="16.611424%" y1="0%" x2="83.388576%" y2="135.675318%" id="linearGradient-2">
            <stop stop-color="#02A0E6" offset="0%"></stop>
            <stop stop-color="#0594D4" offset="100%"></stop>
        </linearGradient>
        <linearGradient x1="21.4083831%" y1="30.8468366%" x2="85.9548315%" y2="69.1531634%" id="linearGradient-3">
            <stop stop-color="#08D6E5" offset="0%"></stop>
            <stop stop-color="#079CA7" offset="100%"></stop>
        </linearGradient>
    </defs>
    <g id="Page-1" stroke="none" stroke-width="1" fill="none" fill-rule="evenodd">
        <g id="noun_Media_1659858" fill-rule="nonzero">
            <path d="M91.643871,19.0864516 L76.9858065,11.4167742 L76.5006452,15.8245161 L87.4116129,21.5329032 L72.8154839,49.403871 C72.5653782,51.4257798 70.8476414,52.9442946 68.8103226,52.9445161 L68.3664516,52.9445161 L63.8348387,52.4490323 L63.8348387,56.7019355 L70.1935484,60.0258065 C70.4128912,60.1420704 70.6575577,60.2023505 70.9058065,60.2013041 C71.4782923,60.2013041 72.0032762,59.8828854 72.2683871,59.3754839 L92.2735484,21.1819355 C92.4704317,20.8210589 92.5146561,20.3963845 92.3963524,20.0026852 C92.2780486,19.6089858 92.0070633,19.2790297 91.643871,19.0864516 Z" id="Path" fill="url(#linearGradient-1)"></path>
            <path d="M40.516129,5.01677419 L70.6064516,8.32 L67.0967742,40.1858065 L63.8141935,39.8245161 L63.8141935,49.9096774 L68.6141935,50.436129 L68.7793548,50.436129 C69.5608031,50.436129 70.2179383,49.8498937 70.3070968,49.0735484 L75.0348387,6.19354839 C75.1252411,5.35003842 74.5155996,4.59260513 73.6722581,4.50064516 L38.3587097,0.629656835 L38.1935484,0.629656835 C37.406746,0.625626942 36.7455406,1.21981836 36.6658065,2.00258065 L34.3432258,23.1948387 L38.5341935,23.1948387 L40.516129,5.01677419 Z" id="Path" fill="url(#linearGradient-2)"></path>
            <path d="M56.7741935,25.6928561 L4.95483871,25.6928561 C2.4641667,25.6985509 0.444889038,27.7132184 0.433536587,30.203871 L0.433536587,58.8387097 C0.430807548,60.0405691 0.905617371,61.1942919 1.75352446,62.0460707 C2.60143155,62.8978495 3.75297928,63.3779106 4.95483871,63.3806923 L56.7741935,63.3806923 C57.9814161,63.3861483 59.140933,62.9097233 59.9955456,62.0570486 C60.8501581,61.204374 61.3292141,60.0459416 61.3264635,58.8387097 L61.3264635,30.2141935 C61.3237223,29.0105394 60.8422437,27.8574217 59.9882297,27.0092173 C59.1342156,26.1610128 57.9778383,25.6874165 56.7741935,25.6928561 Z M26.116129,36.1290323 C26.116129,35.4890323 26.5393548,35.2722581 27.0554839,35.643871 L36.6245161,42.4877419 C36.8645376,42.6259078 37.0124741,42.8817618 37.0124741,43.1587097 C37.0124741,43.4356576 36.8645376,43.6915115 36.6245161,43.8296774 L27.0554839,50.6735484 C26.5393548,51.0451613 26.116129,50.8283871 26.116129,50.1883871 L26.116129,36.1290323 Z M56.1341935,57.6 L14.0593548,57.6 C13.6024534,58.9497836 12.3359852,59.8581426 10.9109677,59.8581426 C9.48595031,59.8581426 8.2194821,58.9497836 7.76258065,57.6 L5.62580645,57.6 C5.02435054,57.6 4.53677419,57.1124237 4.53677419,56.5109677 C4.53677419,55.9095118 5.02435054,55.4219355 5.62580645,55.4219355 L7.76258065,55.4219355 C8.2194821,54.0721519 9.48595031,53.1637929 10.9109677,53.1637929 C12.3359852,53.1637929 13.6024534,54.0721519 14.0593548,55.4219355 L56.1341935,55.4219355 C56.7356495,55.4219355 57.2232258,55.9095118 57.2232258,56.5109677 C57.2232258,57.1124237 56.7356495,57.6 56.1341935,57.6 Z" id="Shape" fill="url(#linearGradient-3)"></path>
        </g>
    </g>
</svg>