<svg viewBox="0 0 28 28" xmlns="http://www.w3.org/2000/svg"><g fill="none"><path d="m20.83 23.23a1.56 1.56 0 1 0 -1.55-1.56 1.56 1.56 0 0 0 1.55 1.56z"/><circle cx="5.58" cy="24.93" r="1.56"/><path d="m9.18 5.12a3 3 0 1 0 3 3 3 3 0 0 0 -3-3z"/><path d="m22.07 1.51h-16.14a3.3 3.3 0 0 0 -3.29 3.3v6.66a3.3 3.3 0 0 0 3.29 3.3h16.14a3.3 3.3 0 0 0 3.3-3.3v-6.66a3.3 3.3 0 0 0 -3.3-3.3zm-12.89 11.05a4.42 4.42 0 1 1 4.42-4.42 4.42 4.42 0 0 1 -4.42 4.42zm12.57-2.05h-5.95a.7.7 0 1 1 0-1.4h5.95a.7.7 0 1 1 0 1.4zm0-3h-5.95a.7.7 0 0 1 0-1.4h5.95a.7.7 0 0 1 0 1.4z"/></g><path d="m22.07.11h-16.14a4.71 4.71 0 0 0 -4.7 4.7v6.66a4.71 4.71 0 0 0 4.7 4.7h6.43v5.83a2.21 2.21 0 0 1 -2.2 2.21h-1.71a3 3 0 1 0 0 1.4h1.71a3.59 3.59 0 0 0 3.57-3.26h4.27a3 3 0 1 0 0-1.35h-4.24v-4.8h8.31a4.71 4.71 0 0 0 4.7-4.7v-6.69a4.71 4.71 0 0 0 -4.7-4.7zm-16.49 26.38a1.56 1.56 0 1 1 1.56-1.56 1.56 1.56 0 0 1 -1.56 1.56zm15.25-6.38a1.56 1.56 0 1 1 -1.55 1.56 1.56 1.56 0 0 1 1.55-1.56zm4.54-8.64a3.3 3.3 0 0 1 -3.3 3.3h-16.14a3.3 3.3 0 0 1 -3.29-3.3v-6.66a3.3 3.3 0 0 1 3.29-3.3h16.14a3.3 3.3 0 0 1 3.3 3.3z" fill="#02a0e6"/><path d="m9.18 3.72a4.42 4.42 0 1 0 4.42 4.42 4.42 4.42 0 0 0 -4.42-4.42zm0 7.44a3 3 0 1 1 3-3 3 3 0 0 1 -3 3z" fill="#02a0e6"/><path d="m21.75 6.08h-5.95a.7.7 0 0 0 0 1.4h5.95a.7.7 0 0 0 0-1.4z" fill="#02a0e6"/><path d="m21.75 9.11h-5.95a.7.7 0 1 0 0 1.4h5.95a.7.7 0 1 0 0-1.4z" fill="#02a0e6"/></svg>