<svg id="Layer_1" data-name="Layer 1" xmlns="http://www.w3.org/2000/svg" viewBox="0 0 28 28"><defs><style>.cls-1{fill:#02a0e6;}</style></defs><title>KM_icons</title><path class="cls-1" d="M27.22,12.45a2.2,2.2,0,0,0-1.54-.64H23.89V9.54a.7.7,0,0,0-.7-.7H20.26a.7.7,0,0,0-.7.7v2.27H13.31a6.77,6.77,0,0,0-13,.53A6.57,6.57,0,0,0,.13,14a6.49,6.49,0,0,0,.21,1.65,6.77,6.77,0,0,0,13,.53h3.36v2.35a.7.7,0,0,0,.7.7H20a.7.7,0,0,0,.7-.7V16.18h.83v2.35a.7.7,0,0,0,.7.7h3a.7.7,0,0,0,.7-.7V16.16a2.18,2.18,0,0,0,1.23-3.71Zm-2.63,3v2.35H23V15.48a.7.7,0,0,0-.7-.7H20a.7.7,0,0,0-.7.7v2.35H18.07V15.48a.7.7,0,0,0-.7-.7H12.79a.71.71,0,0,0-.68.53,5.37,5.37,0,0,1-10.41,0A5.23,5.23,0,0,1,1.53,14,5.39,5.39,0,0,1,6.9,8.63a5.37,5.37,0,0,1,5.21,4,.71.71,0,0,0,.68.53h7.47a.7.7,0,0,0,.7-.7V10.24h1.53v2.27a.7.7,0,0,0,.7.7h2.49a.79.79,0,0,1,.55.23.78.78,0,0,1-.55,1.34h-.39A.7.7,0,0,0,24.59,15.48Z"/><path class="cls-1" d="M6.9,10.5A3.5,3.5,0,1,0,10.4,14,3.5,3.5,0,0,0,6.9,10.5Zm0,5.59A2.1,2.1,0,1,1,9,14,2.1,2.1,0,0,1,6.9,16.09Z"/></svg>