<?xml version="1.0" encoding="UTF-8"?>
<svg width="120px" height="40px" viewBox="0 0 120 40" version="1.1" xmlns="http://www.w3.org/2000/svg" xmlns:xlink="http://www.w3.org/1999/xlink">
    <!-- Generator: Sketch 61.2 (89653) - https://sketch.com -->
    <title>logo-mensura</title>
    <desc>Created with Sketch.</desc>
    <g id="Page-1" stroke="none" stroke-width="1" fill="none" fill-rule="evenodd" opacity="0.6">
        <g id="Group-17" transform="translate(-10.000000, -14.000000)" fill="#C7CED7">
            <g id="Group-27" transform="translate(10.000000, 14.000000)">
                <path d="M27.808254,17.5685714 C28.0793651,17.4168254 30.8455026,15.9912169 33.3561905,14.6870899 L33.3561905,15.8729101 C30.9540741,17.0318519 28.1053968,18.4324868 26.8129101,19.185291 C24.6819048,20.2733333 22.791746,21.4707937 21.8205291,23.0354497 C22.3384127,22.7658201 23.0969312,22.3721693 23.8601058,22.1268783 C24.7164021,21.8650794 25.5045503,21.9713228 25.8867725,22.0934392 C26.6516402,20.9658201 28.7511111,20.7057143 30.7479365,21.5351323 C32.8643386,22.4142857 34.0643386,24.1842328 33.4281481,25.4887831 C32.791746,26.7929101 30.5606349,27.137672 28.4440212,26.2587302 C26.5881481,25.4877249 25.4372487,24.0316402 25.6110053,22.8051852 C25.1320635,22.649418 24.4751323,22.5622222 23.8374603,22.8906878 C22.7591534,23.3093122 21.1851852,24.3797884 21.1754497,24.4221164 C20.7079365,25.4896296 20.4730159,26.3410582 20.1504762,27.3687831 C20.7301587,26.611746 21.9007407,25.2447619 23.0541799,24.8521693 C24.0960847,24.5520635 24.6014815,25.0646561 24.8450794,25.5819048 C26.3498413,25.6574603 27.7938624,27.4974603 28.1445503,29.8619048 C28.5153439,32.3628571 27.522963,34.5031746 25.9278307,34.6426455 C24.3326984,34.7819048 22.738836,32.8680423 22.3678307,30.3670899 C22.0412698,28.1637037 22.7726984,26.2401058 24.0425397,25.7184127 C23.8463492,25.4271958 23.5183069,25.2815873 22.9724868,25.5245503 C20.2518519,26.5658201 19.2279365,31.2263492 19.2279365,31.2263492 C18.1925926,35.3996825 18.8340741,39.9277249 18.8340741,39.9277249 L17.3915344,39.8957672 C16.3631746,33.0092063 19.5001058,25.3461376 20.3796825,23.1277249 C20.8380952,22.0104762 22.6522751,20.4468783 24.5949206,19.2204233 C23.4992593,18.5975661 23.0943915,16.6851852 23.6975661,14.7791534 C24.3394709,12.7520635 25.8789418,11.4995767 27.1360847,11.9821164 C28.3932275,12.4646561 28.8924868,14.4991534 28.250582,16.526455 C28.1314286,16.9025397 27.9815873,17.2519577 27.808254,17.5685714" id="Fill-1"></path>
                <path d="M51.4328042,23.9683175 L49.6569312,23.9683175 C49.6645503,23.8862011 49.6719577,23.3617566 49.6797884,22.3949841 C49.6943915,21.4286349 49.7017989,20.5181587 49.7020106,19.6641905 C49.7020106,19.3270476 49.6984127,18.7763598 49.6907937,18.012127 C49.6907937,17.2404868 49.6869841,16.6637672 49.6797884,16.281545 C49.6569312,15.3824974 49.4772487,14.7609101 49.1401058,14.4159365 C48.8103704,14.0713862 48.2973545,13.8993228 47.6004233,13.8988995 C47.1881481,13.8988995 46.6975661,14.0002751 46.1284656,14.2023915 C45.5663492,14.4047196 44.9293122,14.7194286 44.2177778,15.1465185 C44.2203175,15.2531852 44.2285714,15.6299048 44.2292063,15.8095873 C44.2292063,16.4163598 44.2251852,17.0345608 44.2177778,17.6637672 C44.2103704,18.2855661 44.2065608,18.8813333 44.2065608,19.4506455 C44.2065608,20.6946667 44.2139683,21.739746 44.2292063,22.5860952 C44.2514286,23.4328677 44.2628571,23.8933968 44.2628571,23.9683175 L42.4871958,23.9683175 C42.4871958,23.8862011 42.4946032,23.4328677 42.5096296,22.6085291 C42.5244444,21.7848254 42.5318519,20.8108571 42.5320635,19.686836 C42.5320635,19.3122328 42.528254,18.7465185 42.5210582,17.9896931 C42.5210582,17.2254603 42.517037,16.6637672 42.5096296,16.3041905 C42.5020106,15.974455 42.4721693,15.659746 42.4198942,15.3600635 C42.3671958,15.0605926 42.2700529,14.8055661 42.127619,14.595619 C41.7873016,14.0940317 40.9212698,13.750963 40.4643386,13.6728677 C40.0446561,13.6017566 39.5540741,13.6419683 38.9921693,13.7935026 C38.4302646,13.9378413 37.7858201,14.1765714 37.0592593,14.510328 C37.0592593,14.6377354 37.0554497,15.9217566 37.0480423,16.7535026 C37.0404233,17.5776296 37.0368254,18.2519153 37.0368254,18.7763598 C37.0368254,19.6682116 37.0442328,20.7395344 37.0592593,21.9905397 C37.0816931,23.2343492 37.0929101,23.8933968 37.0929101,23.9683175 L35.3172487,23.9683175 C35.3172487,23.9086349 35.3246561,23.4743492 35.3398942,22.6648254 C35.3544974,21.8481058 35.3619048,20.4995344 35.362328,18.6188995 C35.362328,18.0049312 35.3585185,16.0830265 35.3511111,15.0400635 C35.344127,14.6119153 35.3172487,14.0019683 35.3172487,14.0019683 L36.8783069,13.1973122 C37.3803175,12.9230265 38.2016931,12.5729735 38.9585185,12.3496931 C39.7227513,12.1274709 40.5367196,12.0705397 41.1208466,12.1695873 C41.8548148,12.294455 42.3261376,12.4569947 42.8131217,12.7640847 C43.3075132,13.0713862 43.6594709,13.4608042 43.869418,13.9327619 L43.8918519,13.9327619 C44.7534392,13.4011217 45.5437037,12.9966772 46.2630688,12.7190053 C46.9900529,12.4419683 47.6078307,12.3035556 48.1174603,12.3033439 C49.1515344,12.3033439 49.9566138,12.6064127 50.533545,13.2133968 C51.1180952,13.8129735 51.4103704,14.6258836 51.4103704,15.6523386 C51.4103704,16.4466243 51.4025397,17.1168889 51.3879365,17.6637672 C51.3801058,18.2032381 51.3765079,18.7763598 51.3765079,19.3833439 C51.3765079,20.6417566 51.384127,21.7060952 51.3991534,22.5748783 C51.4215873,23.4440847 51.4328042,23.9086349 51.4328042,23.9683175" id="Fill-3"></path>
                <path d="M76.5387302,23.9683175 L74.7628571,23.9683175 C74.7702646,23.7587937 74.777672,23.0658836 74.785291,21.8893757 C74.8001058,20.713291 74.8075132,19.9865185 74.8077249,19.7092698 C74.8077249,19.3196402 74.804127,18.7465185 74.7967196,17.9896931 C74.7967196,17.2254603 74.7926984,16.6675767 74.785291,16.3151958 C74.7628571,15.4538201 74.5979894,14.835619 74.2906878,14.4610159 C73.9835979,14.0866243 73.4515344,13.8993228 72.6951323,13.8988995 C72.2377778,13.8988995 71.6726984,14.0339259 70.9984127,14.3037672 C70.324127,14.5731852 69.6422222,14.9181587 68.9526984,15.3376296 C68.9526984,15.4199577 68.9493122,15.865672 68.9414815,16.6749841 C68.9340741,17.483873 68.9302646,18.2220741 68.9302646,18.8887407 C68.9302646,19.7579471 68.9380952,20.806836 68.9526984,22.0354074 C68.9755556,23.2641905 68.9867725,23.9086349 68.9867725,23.9683175 L67.2111111,23.9683175 C67.2111111,23.9160423 67.2183069,23.4591111 67.233545,22.5973122 C67.2483598,21.7285291 67.2555556,20.4400635 67.2559788,18.7314921 C67.2559788,17.9446138 67.2521693,17.0233439 67.2445503,15.966836 C67.2445503,14.910328 67.233545,13.7867302 67.2111111,12.5954074 L68.9643386,12.5954074 L68.9526984,13.8876825 L68.9643386,13.910328 C70.0128042,13.3111746 70.8853968,12.8953016 71.5825397,12.6629206 C72.2870899,12.4233439 72.8710053,12.3035556 73.3357672,12.3033439 C74.294709,12.3033439 75.0625397,12.6064127 75.6392593,13.2133968 C76.2242328,13.8129735 76.5162963,14.6371005 76.5162963,15.6859894 C76.5162963,16.6299048 76.5084656,17.446836 76.4938624,18.1357249 C76.4860317,18.8178413 76.4824339,19.372127 76.4824339,19.7990053 C76.4824339,20.4809101 76.4898413,21.3350899 76.5050794,22.361545 C76.5275132,23.3805926 76.5387302,23.9160423 76.5387302,23.9683175" id="Fill-5"></path>
                <path d="M86.7652487,20.6757037 C86.7652487,21.2302011 86.6304339,21.7248042 86.3605926,22.1590899 C86.090963,22.5937989 85.7387937,22.9457566 85.3042963,23.2153862 C84.8469418,23.500254 84.3040847,23.7178201 83.6746667,23.8672381 C83.0530794,24.0094603 82.3635556,24.0803598 81.6067302,24.0807831 C81.239746,24.0807831 80.8573122,24.0617354 80.4609101,24.0246984 C80.0708571,23.9944339 79.8501164,23.9755979 79.7978413,23.9684021 L79.730328,22.4962328 C79.7978413,22.5038519 80.0560423,22.5264974 80.5057778,22.5635344 C80.9624974,22.5937989 81.415619,22.6084021 81.8655661,22.6084021 C82.1273651,22.6084021 82.4647196,22.5859683 82.8767831,22.5411005 C83.2888466,22.4962328 83.6297989,22.4141164 83.8996402,22.2939048 C84.2738201,22.1292487 84.5510688,21.9269206 84.7311746,21.6871323 C84.9108571,21.4475556 85.0008042,21.1593016 85.0008042,20.8217354 C85.0008042,20.5148571 84.9220741,20.2676614 84.7648254,20.0801481 C84.6075767,19.8854392 84.3904339,19.6981376 84.1129735,19.5180317 C83.813291,19.3159153 83.4010159,19.1023704 82.8767831,18.8773968 C82.3601693,18.6452275 81.9252487,18.4244868 81.5730794,18.2145397 C81.0712804,17.9074497 80.6854603,17.5440635 80.4160423,17.124381 C80.1533968,16.7051217 80.0223915,16.2179259 80.0223915,15.6634286 C80.0223915,15.1093545 80.1720212,14.6109418 80.472127,14.1686138 C80.7787937,13.7269206 81.1874709,13.3713651 81.6971005,13.1011005 C82.138582,12.8615238 82.6257778,12.7042751 83.1580529,12.6291429 C83.6975238,12.5468148 84.2175238,12.5057566 84.7199577,12.505545 C85.1768889,12.505545 85.5510688,12.513164 85.8437672,12.5279788 C86.1358307,12.5430053 86.3042963,12.5504127 86.3493757,12.5504127 L86.4731852,14.0452275 C86.4204868,14.0452275 86.1881058,14.0304127 85.7764656,14.0001481 C85.3718095,13.9703069 84.925672,13.9554921 84.4391111,13.9552804 C84.0941376,13.9552804 83.7648254,13.9853333 83.4499048,14.0452275 C83.1428148,14.1051217 82.880381,14.1912593 82.6634497,14.3038519 C82.3411217,14.4687196 82.1089524,14.6672381 81.9667302,14.8991958 C81.8317037,15.1317884 81.7646138,15.3565503 81.7646138,15.5734815 C81.7646138,15.8733757 81.8617566,16.132 82.0564656,16.3489312 C82.2507513,16.5662857 82.479746,16.7499894 82.7419683,16.899619 C83.0490582,17.0795132 83.4685291,17.2928466 84.0005926,17.540254 C84.5324444,17.7874497 84.9182646,17.9861799 85.1584762,18.1358095 C85.682709,18.465545 86.0793228,18.8325291 86.3493757,19.2371852 C86.6266243,19.6418413 86.765037,20.121418 86.7652487,20.6757037" id="Fill-7"></path>
                <path d="M99.2060317,23.9683175 L97.486455,23.9683175 L97.486455,22.6648254 L97.4752381,22.6536085 C96.9503704,22.9983704 96.2951323,23.3543492 95.5084656,23.7213333 C94.7292063,24.0806984 93.961164,24.2605926 93.2049735,24.2605926 C92.1706878,24.2605926 91.3617989,23.9535026 90.7772487,23.3391111 C90.1929101,22.7249312 89.9008466,21.8633439 89.9008466,20.7543492 C89.9008466,20.1551958 89.9042328,19.4432381 89.9120635,18.6188995 C89.9266667,17.7873651 89.9340741,17.1844021 89.9344974,16.8095873 C89.9344974,16.1281058 89.9232804,15.2889524 89.9008466,14.2925503 C89.8856085,13.2885291 89.8784127,12.7230265 89.8784127,12.5954074 L91.6536508,12.5954074 C91.6536508,12.6931852 91.6460317,13.2324444 91.6312169,14.2136085 C91.6161905,15.1951958 91.6087831,15.9782646 91.6087831,16.5623915 C91.6087831,17.0794286 91.6121693,17.723873 91.62,18.4955132 C91.6274074,19.2673651 91.6310053,19.8142434 91.6312169,20.1361481 C91.6460317,21.020381 91.7996825,21.6684233 92.0921693,22.0804868 C92.3842328,22.4927619 92.8561905,22.6984762 93.5080423,22.6984762 C94.174709,22.6984762 94.9050794,22.518582 95.6993651,22.1590053 C96.5010582,21.7994286 97.089418,21.4847196 97.4640212,21.2148783 C97.4640212,21.1251429 97.4674074,20.713291 97.4752381,19.9788995 C97.4824339,19.2371005 97.4860317,18.3158307 97.486455,17.2142434 C97.486455,16.4275767 97.4752381,15.4874709 97.4525926,14.3935026 C97.4375661,13.2923386 97.4301587,12.6931852 97.4301587,12.5954074 L99.2060317,12.5954074 C99.2060317,12.7230265 99.1982011,13.1460952 99.1835979,13.8652487 C99.1683598,14.5769947 99.161164,15.7947725 99.161164,17.5177354 C99.161164,18.4840847 99.1645503,19.3346667 99.1721693,20.0688466 C99.1795767,20.7958307 99.1910053,22.0955132 99.2060317,23.9683175" id="Fill-9"></path>
                <path d="M109.893354,13.9213968 C109.480868,14.0191746 108.848063,14.2248889 107.994095,14.5395979 C107.147534,14.8543069 106.169545,15.2737778 105.060762,15.7982222 C105.060762,15.8807619 105.056741,16.258963 105.049968,16.9332487 C105.041714,17.600127 105.038328,18.2221376 105.038328,18.7988571 C105.038328,19.6833016 105.045524,20.7317672 105.060762,21.9455238 C105.083196,23.1590688 105.094413,23.8335661 105.094413,23.968381 L103.319175,23.968381 C103.319175,23.8411852 103.32637,23.4215026 103.341397,22.7097566 C103.356212,21.9980106 103.363619,20.7806561 103.364042,19.0574815 C103.364042,18.3607619 103.360021,17.3867937 103.352825,16.1353651 C103.344995,14.8843598 103.333778,13.7044656 103.319175,12.5952593 L105.060762,12.5952593 L105.060762,14.3038307 L105.071979,14.314836 C105.91854,13.8354709 106.754095,13.4195979 107.578222,13.0674286 C108.401926,12.7156825 109.061185,12.4756825 109.556,12.3482751 L109.893354,13.9213968 Z" id="Fill-11"></path>
                <path d="M18.8757672,22.5966984 C17.9815873,22.9488677 15.8162963,23.5702434 12.2160847,23.4898201 C8.17015873,23.4665397 5.57608466,21.3429418 0,21.2709841 C2.91386243,19.8155344 7.08529101,18.9531005 10.6078307,19.1971217 C13.1775661,19.3611429 17.5007407,21.570455 18.8006349,22.2631534 C19.0440212,22.3928889 19.0755556,22.5179683 18.8757672,22.5966984" id="Fill-13"></path>
                <path d="M62.5023704,16.6073016 C62.3823704,15.6786243 62.0638519,14.9518519 61.5470265,14.4271958 C61.0373968,13.8955556 60.3631111,13.6297354 59.5241693,13.6293122 C58.6848042,13.6293122 57.9844868,13.8989418 57.4227937,14.4384127 C56.8606772,14.9704762 56.470836,15.6936508 56.2539048,16.6073016 L62.5023704,16.6073016 Z M64.2439577,17.8661376 L56.1190899,17.8661376 C56.1264974,18.6604233 56.294963,19.3910053 56.6246984,20.057672 C56.9540106,20.7171429 57.4598307,21.2638095 58.1419471,21.6983069 C58.5762328,21.9755556 59.070836,22.185291 59.6251217,22.3277249 C60.1794074,22.4625397 60.8464974,22.5298413 61.625545,22.5298413 C62.0526349,22.5298413 62.4422646,22.5186243 62.7944339,22.4961905 C63.1542222,22.4737566 63.374963,22.4589418 63.4575026,22.4511111 L63.2551746,23.9457143 C63.1950688,23.953545 62.9967619,23.9647619 62.659619,23.9793651 C62.3222646,24.0020106 61.9252275,24.0134392 61.4682963,24.0134392 C60.2693545,24.0134392 59.2242751,23.86 58.3328466,23.5526984 C57.4488254,23.2377778 56.7220529,22.8073016 56.1527407,22.26 C55.665545,21.8032804 55.249672,21.2189418 54.9053333,20.5069841 C54.5681905,19.7954497 54.3997249,19.0051852 54.3997249,18.1357672 C54.3997249,17.2815873 54.526709,16.5101587 54.7819471,15.8206349 C55.0363386,15.131746 55.4183492,14.4911111 55.9279788,13.8989418 C56.369672,13.3897354 56.9165503,12.9965079 57.5686138,12.7190476 C58.227873,12.4420106 58.9095661,12.3035979 59.6141164,12.3033862 C60.310836,12.3033862 60.9288254,12.4083598 61.4682963,12.6178836 C62.0077672,12.8278307 62.4759153,13.1461376 62.873164,13.5730159 C63.3148571,14.0528042 63.6522116,14.6447619 63.8845926,15.3488889 C64.1165503,16.0456085 64.2365503,16.8849735 64.2439577,17.8661376 L64.2439577,17.8661376 Z" id="Fill-15"></path>
                <path d="M118.265545,20.2710265 L118.265545,19.3044656 C118.265545,18.9150476 118.261735,18.4655238 118.254328,17.9558942 C117.924804,17.9709206 117.347661,18.0386455 116.523534,18.1584339 C115.699407,18.2706032 115.006497,18.4356825 114.444593,18.6528254 C114.025122,18.8100741 113.650307,19.0460529 113.320995,19.3607619 C112.998243,19.6754709 112.83782,20.0653122 112.83782,20.5294392 C112.83782,21.0392804 112.97581,21.4511323 113.253481,21.7656296 C113.530519,22.0731429 113.908931,22.3089101 114.388296,22.4737778 C114.755492,22.6011852 115.159937,22.6949418 115.602265,22.7546243 C116.052,22.8073228 116.523534,22.8333545 117.018138,22.8333545 C117.167556,22.8333545 117.351683,22.8297566 117.568825,22.8221376 C117.785757,22.8147302 118.01454,22.8073228 118.254328,22.7997037 L118.254328,22.0579048 C118.261735,21.616 118.265333,21.0204444 118.265545,20.2710265 M119.985122,17.5626667 C119.985122,19.4208677 119.981312,20.9338836 119.973905,22.1027725 C119.966286,23.2716614 119.962688,23.9008677 119.962688,23.9908148 C119.887556,23.9982222 119.538984,24.024254 118.917397,24.069545 C118.295386,24.1218201 117.493693,24.1476402 116.512317,24.1480635 C115.898138,24.1480635 115.279937,24.0919788 114.658349,23.9793862 C114.036339,23.8672169 113.500677,23.7063704 113.050942,23.4966349 C112.451577,23.2191746 111.964804,22.8409735 111.590201,22.3613968 C111.223005,21.8818201 111.039302,21.3053122 111.039302,20.6306032 C111.039302,19.9190688 111.256656,19.3048889 111.691365,18.7876402 C112.133058,18.2631958 112.743852,17.840127 113.523111,17.5177989 C114.010095,17.3154709 114.657926,17.1357884 115.46745,16.978328 C116.283746,16.813672 117.212847,16.6900741 118.254328,16.6073228 C118.20946,16.0231958 118.063429,15.543619 117.81581,15.1690159 C117.568825,14.7946243 117.205651,14.5097566 116.726074,14.314836 C116.396127,14.1800212 116.029354,14.0866878 115.624698,14.0339894 C115.220254,13.9740952 114.748085,13.944254 114.208825,13.9438307 C113.871683,13.9438307 113.582794,13.9516614 113.343429,13.9664762 C113.110624,13.9817143 112.792741,14.0003386 112.388296,14.0227725 L112.56819,12.5279577 C112.68036,12.5205503 112.901101,12.5093333 113.231048,12.4943069 C113.56819,12.4716614 114.025122,12.4606561 114.602053,12.4606561 C115.486074,12.4606561 116.272529,12.5542011 116.961841,12.7415026 C117.658772,12.9211852 118.23528,13.2172698 118.692847,13.6293333 C119.119725,14.0191746 119.441841,14.5023492 119.658984,15.0790688 C119.876339,15.6485926 119.98491,16.4765291 119.985122,17.5626667" id="Fill-17"></path>
                <path d="M20.8662011,19.8516614 C20.4166772,18.6486984 19.5614392,15.9452063 19.4306455,12.5009735 C19.2046138,8.18012698 21.3866243,3.5928254 21.0712804,2.11640212e-05 C22.5887407,3.04848677 23.6376296,7.46541799 23.6283175,11.2370582 C23.6342434,13.8899683 21.9895873,18.3657354 21.3720212,19.9528254 C21.229164,20.3195979 21.2143492,20.7615026 20.8662011,19.8516614" id="Fill-19"></path>
                <path d="M20.0613757,21.2901587 C19.0886772,20.9773545 16.2924868,19.9197884 13.6033862,17.6410582 C10.4738624,15.0768254 9.38645503,10.8230688 6.19195767,8.35301587 C9.37248677,9.05566138 13.1568254,11.0103704 15.7409524,13.4169312 C17.6063492,15.1354497 19.64,19.5134392 20.2465608,20.9396825 C20.3712169,21.2325926 20.3043386,21.368254 20.0613757,21.2901587" id="Fill-21"></path>
                <path d="M18.3015026,24.4899894 C17.7582222,25.1750688 16.3152593,26.8112593 14.0132487,28.1253333 C11.2913439,29.7395132 9.36097354,28.7012063 5.20435979,31.087873 C6.57155556,28.938455 9.02044444,26.6798307 11.4805503,25.424381 C13.1666878,24.5524233 16.6286984,24.2709418 17.984254,24.192 C18.3366349,24.1714709 18.4646772,24.2844868 18.3015026,24.4899894" id="Fill-23"></path>
                <path d="M18.1326561,26.7106455 C18.0795344,27.4890582 17.8575238,29.2600635 16.9360423,31.2113862 C15.8386878,33.6378413 14.0067302,33.8539259 12.2935026,37.5055661 C12.1982646,35.3637672 12.7963598,32.6247196 13.8863069,30.5718095 C14.6363598,29.1402751 16.9311746,27.2482116 17.8058836,26.5586878 C18.0202751,26.3893757 18.1508571,26.4429206 18.1326561,26.7106455" id="Fill-25"></path>
            </g>
        </g>
    </g>
</svg>