<?xml version="1.0" standalone="no"?>
<!DOCTYPE svg PUBLIC "-//W3C//DTD SVG 20010904//EN"
 "http://www.w3.org/TR/2001/REC-SVG-20010904/DTD/svg10.dtd">
<svg version="1.0" xmlns="http://www.w3.org/2000/svg"
 width="260.000000pt" height="260.000000pt" viewBox="0 0 260.000000 260.000000"
 preserveAspectRatio="xMidYMid meet">
<metadata>
Created by potrace 1.11, written by Peter Selinger 2001-2013
</metadata>
<g transform="translate(0.000000,260.000000) scale(0.100000,-0.100000)"
fill="#000000" stroke="none">
<path d="M435 2590 c-207 -43 -380 -212 -424 -415 -7 -33 -10 -329 -10 -876 0
-908 -1 -883 61 -1002 152 -285 512 -374 778 -194 25 17 127 112 226 211 100
100 193 192 207 204 l25 24 216 -215 c233 -232 282 -268 414 -302 209 -54 448
37 568 216 71 105 93 180 90 312 -3 109 -5 118 -32 187 -34 88 -84 149 -288
353 -113 114 -206 209 -206 211 0 2 89 93 198 202 109 110 213 218 230 241
115 149 135 381 47 556 -89 176 -258 285 -455 293 -105 4 -163 -8 -260 -53
-71 -33 -94 -54 -405 -364 -182 -181 -333 -329 -336 -329 -3 0 -5 60 -6 133
-1 73 -4 148 -7 167 -27 168 -138 316 -295 395 -90 45 -238 65 -336 45z"/>
</g>
</svg>
