<svg xmlns="http://www.w3.org/2000/svg" viewBox="0 0 95 64">
    <defs>
        <linearGradient id="a" x1="19.66%" x2="80.34%" y1="0%" y2="135.68%">
            <stop offset="0%" stop-color="#02A0E6"/>
            <stop offset="100%" stop-color="#0594D4"/>
        </linearGradient>
        <linearGradient id="b" x1="31.03%" x2="73.85%" y1="0%" y2="100%">
            <stop offset="0%" stop-color="#08D6E5"/>
            <stop offset="100%" stop-color="#079CA7"/>
        </linearGradient>
    </defs>
    <g fill="none">
        <path fill="url(#a)" d="M33.56 44.138a.837.837 0 0 0 .822-.813V9.24a.799.799 0 0 0-.247-.558L25.613.243A.827.827 0 0 0 25.045 0H.822A.837.837 0 0 0 0 .813v19.6c0 3.34 9.982 7.712 9.982 13.242 0 1.934-1.11 5.158-3.327 9.67 11.101.445 11.464.804 5.258.813H33.56zm-8.096-13.104c.44 0 .795.353.795.789a.792.792 0 0 1-.795.788H8.918a.792.792 0 0 1-.795-.788c0-.436.356-.789.795-.789h16.546zm-1.987-2.955c.439 0 .795.353.795.788a.792.792 0 0 1-.795.788H10.905a.792.792 0 0 1-.795-.788c0-.435.356-.788.795-.788h12.572zm2.359-25.366l5.817 5.76h-5.817v-5.76z" transform="translate(26.618)"/>
        <path fill="url(#b)" d="M26.673.61c.076 0 .139.034.211.044.063.01.126.022.189.037.261.069.513.18.718.38l16.79 16.613c.199.196.31.445.382.704.015.065.031.13.04.2.01.068.038.127.038.199v35.409c0 .86-.702 1.557-1.574 1.557H1.7a1.566 1.566 0 0 1-1.574-1.557V2.168A1.568 1.568 0 0 1 1.7.61h24.972zm-8.012 24.82c-3.595 1.473-5.938 4.944-5.938 8.794.006 5.254 4.31 9.512 9.62 9.518 3.892 0 7.4-2.32 8.89-5.876a9.445 9.445 0 0 0-2.087-10.374 9.696 9.696 0 0 0-10.485-2.063zm3.683 1.369c4.144 0 7.504 3.324 7.504 7.424 0 4.1-3.36 7.425-7.504 7.425s-7.504-3.324-7.505-7.424c.005-4.099 3.362-7.42 7.505-7.425zm-.133 1.928c-.584 0-1.058.469-1.058 1.047v3.534h-3.307c-.585 0-1.058.468-1.058 1.047 0 .578.473 1.047 1.058 1.047h3.307v3.272c0 .578.474 1.047 1.058 1.047.585 0 1.059-.469 1.059-1.047v-3.272h3.571c.585 0 1.059-.469 1.059-1.047 0-.579-.474-1.047-1.059-1.047H23.27v-3.534c0-.578-.474-1.047-1.059-1.047z" transform="translate(0 7.724)"/>
        <path fill="#FFF" d="M28.248 13.656l11.418 11.297H28.248v-5.842z"/>
    </g>
</svg>
