<svg xmlns="http://www.w3.org/2000/svg" viewBox="0 0 24 24">
    <path fill="#02A0E6" d="M12.91.67a1.58 1.58 0 0 1 1.565 1.344l.015.146.09 1.49a9.4 9.4 0 0 1 1.143.44l.367.18 1.11-1a1.58 1.58 0 0 1 2.055-.044l.115.104 1.3 1.3a1.58 1.58 0 0 1 .158 2.05l-.098.12-1 1.11c.193.362.36.736.5 1.122l.13.388 1.49.09a1.58 1.58 0 0 1 1.474 1.434l.006.146v1.82a1.57 1.57 0 0 1-1.344 1.566l-.146.014-1.49.09a9 9 0 0 1-.44 1.143l-.18.367 1 1.11a1.58 1.58 0 0 1 .044 2.055l-.104.115-1.3 1.3a1.58 1.58 0 0 1-2.05.158l-.12-.098-1.11-1a9.4 9.4 0 0 1-1.123.49l-.387.13-.09 1.49a1.58 1.58 0 0 1-1.434 1.484l-.146.006h-1.82a1.59 1.59 0 0 1-1.574-1.344L9.5 21.84l-.08-1.49a9 9 0 0 1-1.143-.44l-.367-.18-1.11 1a1.58 1.58 0 0 1-2.055.044l-.115-.104-1.3-1.3a1.58 1.58 0 0 1-.158-2.05l.098-.12 1-1.11a9 9 0 0 1-.49-1.122l-.13-.388-1.49-.09a1.57 1.57 0 0 1-1.484-1.433L.67 12.91v-1.82a1.58 1.58 0 0 1 1.344-1.565l.146-.015 1.49-.09a9.4 9.4 0 0 1 .44-1.143l.18-.367-1-1.11a1.58 1.58 0 0 1-.046-2.064l.106-.116 1.3-1.3a1.58 1.58 0 0 1 2.05-.158l.12.098 1.11 1a9 9 0 0 1 1.122-.49l.388-.13.08-1.49A1.59 1.59 0 0 1 10.944.676L11.09.67h1.82zm0 1.38h-1.82a.19.19 0 0 0-.176.115l-.014.055-.11 2a.71.71 0 0 1-.53.64 7.25 7.25 0 0 0-2.07.86.69.69 0 0 1-.74-.01l-.09-.07-1.49-1.32a.17.17 0 0 0-.214-.03l-.036.03-1.3 1.3a.17.17 0 0 0-.03.214L5.64 7.36a.68.68 0 0 1 .08.82 7 7 0 0 0-.86 2.08.69.69 0 0 1-.54.518l-.1.012-2 .12a.17.17 0 0 0-.166.134l-.004.046v1.82a.19.19 0 0 0 .115.176l.055.014 2 .11a.71.71 0 0 1 .64.53c.18.733.47 1.434.86 2.08a.68.68 0 0 1-.01.731l-.07.089-1.32 1.49a.17.17 0 0 0-.03.214l.03.036 1.3 1.3a.18.18 0 0 0 .204.032l.046-.032 1.49-1.32a.67.67 0 0 1 .46-.18.71.71 0 0 1 .37.1 7.25 7.25 0 0 0 2.07.86.71.71 0 0 1 .516.54l.014.1.11 2a.19.19 0 0 0 .134.162l.056.008h1.81a.17.17 0 0 0 .174-.124l.006-.046.12-2a.68.68 0 0 1 .53-.64 7.37 7.37 0 0 0 2.07-.86.69.69 0 0 1 .74.01l.09.07 1.49 1.32a.18.18 0 0 0 .204.032l.046-.032 1.3-1.3a.17.17 0 0 0 .03-.214l-.03-.036-1.32-1.49a.68.68 0 0 1-.08-.82 7.43 7.43 0 0 0 .86-2.08.69.69 0 0 1 .54-.518l.1-.012 2-.11a.19.19 0 0 0 .162-.134l.008-.056.01-1.82a.17.17 0 0 0-.124-.174l-.046-.006-2-.12a.69.69 0 0 1-.64-.53 7.5 7.5 0 0 0-.86-2.07.71.71 0 0 1 .003-.738l.067-.092 1.33-1.49a.17.17 0 0 0 .03-.214l-.03-.036-1.3-1.3a.17.17 0 0 0-.214-.03l-.036.03-1.49 1.32a.69.69 0 0 1-.83.08 7.37 7.37 0 0 0-2.07-.86.68.68 0 0 1-.519-.539l-.011-.101-.12-2a.17.17 0 0 0-.134-.166l-.046-.004zm1.17 5.65a.71.71 0 0 1 .55.263l.06.087 2.08 3.65a.73.73 0 0 1 .044.604l-.044.096-2.08 3.6a.71.71 0 0 1-.504.342l-.106.008H9.92a.71.71 0 0 1-.55-.263L9.31 16l-2.08-3.65a.73.73 0 0 1-.044-.604l.044-.096 2.08-3.6a.71.71 0 0 1 .504-.342L9.92 7.7h4.16zm-.4 1.4h-3.36L8.65 12l1.67 2.9h3.36l1.67-2.9-1.67-2.9z"/>
</svg>
