<?xml version="1.0" encoding="utf-8"?>
<!-- Generator: Adobe Illustrator 24.0.1, SVG Export Plug-In . SVG Version: 6.00 Build 0)  -->
<svg version="1.1" id="Layer_1" xmlns="http://www.w3.org/2000/svg" xmlns:xlink="http://www.w3.org/1999/xlink" x="0px" y="0px"
	 viewBox="0 0 28 28" style="enable-background:new 0 0 28 28;" xml:space="preserve">
<style type="text/css">
	.st0{fill:#02A0E6;}
</style>
<title>Artboard 1 copy 5</title>
<path class="st0" d="M6.1,18.1c-1.8,0-3.3,1.5-3.3,3.3V23c0.1,1.8,1.7,3.3,3.5,3.2C8,26.1,9.3,24.7,9.4,23v-1.6
	C9.4,19.5,7.9,18.1,6.1,18.1z M8,23c-0.1,1.1-1,1.9-2.1,1.8C5,24.7,4.2,24,4.1,23v-1.6c0.1-1.1,1-1.9,2.1-1.8c1,0.1,1.7,0.8,1.8,1.8
	V23z"/>
<path class="st0" d="M14.1,10.8c-1.8,0-3.3,1.5-3.3,3.3V23c0.1,1.8,1.7,3.3,3.5,3.2c1.7-0.1,3.1-1.5,3.2-3.2v-8.8
	C17.4,12.3,15.9,10.8,14.1,10.8z M16,23c-0.1,1.1-1,1.9-2.1,1.8c-1-0.1-1.7-0.8-1.8-1.8v-8.8c0.1-1.1,1-1.9,2.1-1.8
	c1,0.1,1.7,0.8,1.8,1.8V23z"/>
<path class="st0" d="M22.1,2.7c-1.8,0-3.3,1.5-3.3,3.3v17c0.1,1.8,1.7,3.3,3.5,3.2c1.7-0.1,3.1-1.5,3.2-3.2V6
	C25.4,4.2,23.9,2.7,22.1,2.7z M24,23c-0.1,1.1-1,1.9-2.1,1.8c-1-0.1-1.7-0.8-1.8-1.8V6c0.1-1.1,1-1.9,2.1-1.8C23.2,4.3,24,5,24,6V23
	z"/>
</svg>
