<?xml version="1.0" encoding="UTF-8"?>
<svg width="120px" height="33px" viewBox="0 0 120 33" version="1.1" xmlns="http://www.w3.org/2000/svg" xmlns:xlink="http://www.w3.org/1999/xlink">
    <!-- Generator: Sketch 61.2 (89653) - https://sketch.com -->
    <title>logo-accenture</title>
    <desc>Created with Sketch.</desc>
    <defs>
        <polygon id="path-1" points="7.31707317e-05 0.722182896 119.402927 0.722182896 119.402927 32.2368172 7.31707317e-05 32.2368172"></polygon>
        <polygon id="path-3" points="7.31707317e-05 0.722182896 119.402927 0.722182896 119.402927 32.2368172 7.31707317e-05 32.2368172"></polygon>
    </defs>
    <g id="Page-1" stroke="none" stroke-width="1" fill="none" fill-rule="evenodd" opacity="0.6">
        <g id="Group-14" transform="translate(-13.000000, -14.000000)">
            <g id="Group-7" transform="translate(13.000000, 14.000000)">
                <g id="Group-3" transform="translate(0.000000, 0.010770)">
                    <mask id="mask-2" fill="white">
                        <use xlink:href="#path-1"></use>
                    </mask>
                    <g id="Clip-2"></g>
                    <path d="M110.500317,23.4551553 L115.663244,23.4551553 C115.583488,21.4249546 114.661537,20.5545546 113.135195,20.5545546 C111.923488,20.5545546 110.817878,21.2132159 110.500317,23.4551553 L110.500317,23.4551553 Z M113.240561,32.2368172 C109.263,32.2368172 106.550561,29.8637317 106.550561,25.2750826 L106.550561,25.011325 C106.550561,20.3963001 109.421049,17.8642273 113.10739,17.8642273 C116.53178,17.8642273 119.403,19.7896576 119.403,24.351931 L119.403,26.0136038 L110.449098,26.0136038 C110.607146,28.4921923 111.659341,29.4417196 113.318854,29.4417196 C114.793244,29.4417196 115.583488,28.6511795 115.848366,27.6489007 L119.403,27.6489007 C118.982268,30.2593681 116.84861,32.2368172 113.240561,32.2368172 L113.240561,32.2368172 Z M97.3573902,18.1550933 L101.20178,18.1550933 L101.20178,20.6864334 C102.018366,18.8401304 103.309098,17.970463 105.33739,17.970463 L105.33739,21.7671068 C102.729585,21.7671068 101.20178,22.5583795 101.20178,24.8530704 L101.20178,31.9474166 L97.3573902,31.9474166 L97.3573902,18.1550933 Z M94.5644634,31.9474166 L90.717878,31.9474166 L90.717878,29.9164832 C90.0600732,31.2352711 88.7693415,32.2368172 86.7139756,32.2368172 C84.2393415,32.2368172 82.4210488,30.7341317 82.4210488,27.4906462 L82.4210488,18.1550933 L86.2932439,18.1550933 L86.2932439,26.9103795 C86.2932439,28.4921923 86.9247073,29.2307135 88.2951951,29.2307135 C89.637878,29.2307135 90.717878,28.3866893 90.717878,26.6729977 L90.717878,18.1550933 L94.5644634,18.1550933 L94.5644634,31.9474166 Z M77.4425122,13.9877236 L77.4425122,18.1550933 L80.0766585,18.1550933 L80.0766585,21.0285856 L77.4425122,21.0285856 L77.4425122,27.5690408 C77.4425122,28.598428 77.9159268,29.072459 78.8115366,29.072459 C79.365439,29.072459 79.7861707,28.9940644 80.1549512,28.8358098 L80.1549512,31.8419135 C79.707878,31.9737923 78.9432439,32.1320469 77.9949512,32.1320469 C74.9934878,32.1320469 73.5703171,30.7605075 73.5703171,27.9646772 L73.5703171,21.0285856 L71.9634878,21.0285856 L71.9634878,18.1550933 L73.5703171,18.1550933 L73.5703171,15.5695364 L77.4425122,13.9877236 Z M58.0822683,18.1550933 L61.9273902,18.1550933 L61.9273902,20.2116698 C62.613,18.9192576 63.9820244,17.8642273 66.0893415,17.8642273 C68.5917805,17.8642273 70.250561,19.3676455 70.250561,22.7166341 L70.250561,31.9474166 L66.4047073,31.9474166 L66.4047073,23.2969007 C66.4047073,21.6887122 65.7469024,20.9758341 64.3508049,20.9758341 C63.0073902,20.9758341 61.9273902,21.7934826 61.9273902,23.5342826 L61.9273902,31.9474166 L58.0822683,31.9474166 L58.0822683,18.1550933 Z M46.808122,23.4551553 L51.9703171,23.4551553 C51.890561,21.4249546 50.9700732,20.5545546 49.4422683,20.5545546 C48.2298293,20.5545546 47.1249512,21.2132159 46.808122,23.4551553 L46.808122,23.4551553 Z M49.5469024,32.2368172 C45.5708049,32.2368172 42.8576341,29.8637317 42.8576341,25.2750826 L42.8576341,25.011325 C42.8576341,20.3963001 45.7288537,17.8642273 49.4151951,17.8642273 C52.8388537,17.8642273 55.7108049,19.7896576 55.7108049,24.351931 L55.7108049,26.0136038 L46.7561707,26.0136038 C46.9142195,28.4921923 47.9671463,29.4417196 49.6259268,29.4417196 C51.1010488,29.4417196 51.890561,28.6511795 52.155439,27.6489007 L55.7108049,27.6489007 C55.2893415,30.2593681 53.1556829,32.2368172 49.5469024,32.2368172 L49.5469024,32.2368172 Z M35.1125122,32.2368172 C31.293,32.2368172 28.527878,29.8637317 28.527878,25.1959553 L28.527878,25.011325 C28.527878,20.3435486 31.478122,17.8642273 35.138122,17.8642273 C38.2720244,17.8642273 40.8534878,19.4467728 41.1703171,23.0595189 L37.4825122,23.0595189 C37.245439,21.7150879 36.5612927,20.8446879 35.2171463,20.8446879 C33.5839756,20.8446879 32.4520244,22.1363674 32.4520244,24.8530704 L32.4520244,25.2750826 C32.4520244,28.0709129 33.4522683,29.3362166 35.2442195,29.3362166 C36.5612927,29.3362166 37.5344634,28.3603135 37.7459268,26.857628 L41.2493415,26.857628 C40.9851951,29.9956105 38.8515366,32.2368172 35.1125122,32.2368172 L35.1125122,32.2368172 Z M20.7820244,32.2368172 C16.9639756,32.2368172 14.1988537,29.8637317 14.1988537,25.1959553 L14.1988537,25.011325 C14.1988537,20.3435486 17.1476341,17.8642273 20.8083659,17.8642273 C23.9422683,17.8642273 26.5244634,19.4467728 26.8398293,23.0595189 L23.1527561,23.0595189 C22.9156829,21.7150879 22.2315366,20.8446879 20.8873902,20.8446879 C19.2542195,20.8446879 18.1222683,22.1363674 18.1222683,24.8530704 L18.1222683,25.2750826 C18.1222683,28.0709129 19.1225122,29.3362166 20.9144634,29.3362166 C22.2315366,29.3362166 23.2047073,28.3603135 23.4161707,26.857628 L26.9188537,26.857628 C26.6561707,29.9956105 24.5217805,32.2368172 20.7820244,32.2368172 L20.7820244,32.2368172 Z M8.21714634,27.3580347 L8.21714634,26.0399795 L6.68934146,26.0399795 C4.7927561,26.0399795 3.81958537,26.5674947 3.81958537,27.8064226 L3.81958537,27.9383014 C3.81958537,28.8878287 4.39909756,29.5472226 5.68982927,29.5472226 C7.00690244,29.5472226 8.21714634,28.8094341 8.21714634,27.3580347 L8.21714634,27.3580347 Z M4.53080488,32.2368172 C2.05470732,32.2368172 7.31707317e-05,30.9715135 7.31707317e-05,28.1756832 L7.31707317e-05,28.0181613 C7.31707317e-05,24.6156886 2.94958537,23.5079068 6.50568293,23.5079068 L8.21714634,23.5079068 L8.21714634,22.8492455 C8.21714634,21.4777061 7.61129268,20.6329492 6.18885366,20.6329492 C4.89958537,20.6329492 4.21397561,21.3714704 4.10934146,22.4272334 L0.421536585,22.4272334 C0.684219512,19.3676455 3.10690244,17.8642273 6.37397561,17.8642273 C9.69226829,17.8642273 12.0637317,19.2885182 12.0637317,22.7166341 L12.0637317,31.9474166 L8.29617073,31.9474166 L8.29617073,30.3648711 C7.63763415,31.3671499 6.37397561,32.2368172 4.53080488,32.2368172 L4.53080488,32.2368172 Z M69.5942195,9.53095327 L76.4671463,6.97250478 L69.5942195,4.28291017 L69.5942195,0.722182896 L81.3666585,5.4690866 L81.3666585,8.42243879 L69.5942195,13.1964509 L69.5942195,9.53095327 Z" id="Fill-1" fill="#FFFFFF" mask="url(#mask-2)"></path>
                </g>
                <g id="Group-6" transform="translate(0.000000, 0.010770)">
                    <mask id="mask-4" fill="white">
                        <use xlink:href="#path-3"></use>
                    </mask>
                    <g id="Clip-5"></g>
                    <path d="M110.500317,23.4551553 L115.663244,23.4551553 C115.583488,21.4249546 114.661537,20.5545546 113.135195,20.5545546 C111.923488,20.5545546 110.817878,21.2132159 110.500317,23.4551553 L110.500317,23.4551553 Z M113.240561,32.2368172 C109.263,32.2368172 106.550561,29.8637317 106.550561,25.2750826 L106.550561,25.011325 C106.550561,20.3963001 109.421049,17.8642273 113.10739,17.8642273 C116.53178,17.8642273 119.403,19.7896576 119.403,24.351931 L119.403,26.0136038 L110.449098,26.0136038 C110.607146,28.4921923 111.659341,29.4417196 113.318854,29.4417196 C114.793244,29.4417196 115.583488,28.6511795 115.848366,27.6489007 L119.403,27.6489007 C118.982268,30.2593681 116.84861,32.2368172 113.240561,32.2368172 L113.240561,32.2368172 Z M97.3573902,18.1550933 L101.20178,18.1550933 L101.20178,20.6864334 C102.018366,18.8401304 103.309098,17.970463 105.33739,17.970463 L105.33739,21.7671068 C102.729585,21.7671068 101.20178,22.5583795 101.20178,24.8530704 L101.20178,31.9474166 L97.3573902,31.9474166 L97.3573902,18.1550933 Z M94.5644634,31.9474166 L90.717878,31.9474166 L90.717878,29.9164832 C90.0600732,31.2352711 88.7693415,32.2368172 86.7139756,32.2368172 C84.2393415,32.2368172 82.4210488,30.7341317 82.4210488,27.4906462 L82.4210488,18.1550933 L86.2932439,18.1550933 L86.2932439,26.9103795 C86.2932439,28.4921923 86.9247073,29.2307135 88.2951951,29.2307135 C89.637878,29.2307135 90.717878,28.3866893 90.717878,26.6729977 L90.717878,18.1550933 L94.5644634,18.1550933 L94.5644634,31.9474166 Z M77.4425122,13.9877236 L77.4425122,18.1550933 L80.0766585,18.1550933 L80.0766585,21.0285856 L77.4425122,21.0285856 L77.4425122,27.5690408 C77.4425122,28.598428 77.9159268,29.072459 78.8115366,29.072459 C79.365439,29.072459 79.7861707,28.9940644 80.1549512,28.8358098 L80.1549512,31.8419135 C79.707878,31.9737923 78.9432439,32.1320469 77.9949512,32.1320469 C74.9934878,32.1320469 73.5703171,30.7605075 73.5703171,27.9646772 L73.5703171,21.0285856 L71.9634878,21.0285856 L71.9634878,18.1550933 L73.5703171,18.1550933 L73.5703171,15.5695364 L77.4425122,13.9877236 Z M58.0822683,18.1550933 L61.9273902,18.1550933 L61.9273902,20.2116698 C62.613,18.9192576 63.9820244,17.8642273 66.0893415,17.8642273 C68.5917805,17.8642273 70.250561,19.3676455 70.250561,22.7166341 L70.250561,31.9474166 L66.4047073,31.9474166 L66.4047073,23.2969007 C66.4047073,21.6887122 65.7469024,20.9758341 64.3508049,20.9758341 C63.0073902,20.9758341 61.9273902,21.7934826 61.9273902,23.5342826 L61.9273902,31.9474166 L58.0822683,31.9474166 L58.0822683,18.1550933 Z M46.808122,23.4551553 L51.9703171,23.4551553 C51.890561,21.4249546 50.9700732,20.5545546 49.4422683,20.5545546 C48.2298293,20.5545546 47.1249512,21.2132159 46.808122,23.4551553 L46.808122,23.4551553 Z M49.5469024,32.2368172 C45.5708049,32.2368172 42.8576341,29.8637317 42.8576341,25.2750826 L42.8576341,25.011325 C42.8576341,20.3963001 45.7288537,17.8642273 49.4151951,17.8642273 C52.8388537,17.8642273 55.7108049,19.7896576 55.7108049,24.351931 L55.7108049,26.0136038 L46.7561707,26.0136038 C46.9142195,28.4921923 47.9671463,29.4417196 49.6259268,29.4417196 C51.1010488,29.4417196 51.890561,28.6511795 52.155439,27.6489007 L55.7108049,27.6489007 C55.2893415,30.2593681 53.1556829,32.2368172 49.5469024,32.2368172 L49.5469024,32.2368172 Z M35.1125122,32.2368172 C31.293,32.2368172 28.527878,29.8637317 28.527878,25.1959553 L28.527878,25.011325 C28.527878,20.3435486 31.478122,17.8642273 35.138122,17.8642273 C38.2720244,17.8642273 40.8534878,19.4467728 41.1703171,23.0595189 L37.4825122,23.0595189 C37.245439,21.7150879 36.5612927,20.8446879 35.2171463,20.8446879 C33.5839756,20.8446879 32.4520244,22.1363674 32.4520244,24.8530704 L32.4520244,25.2750826 C32.4520244,28.0709129 33.4522683,29.3362166 35.2442195,29.3362166 C36.5612927,29.3362166 37.5344634,28.3603135 37.7459268,26.857628 L41.2493415,26.857628 C40.9851951,29.9956105 38.8515366,32.2368172 35.1125122,32.2368172 L35.1125122,32.2368172 Z M20.7820244,32.2368172 C16.9639756,32.2368172 14.1988537,29.8637317 14.1988537,25.1959553 L14.1988537,25.011325 C14.1988537,20.3435486 17.1476341,17.8642273 20.8083659,17.8642273 C23.9422683,17.8642273 26.5244634,19.4467728 26.8398293,23.0595189 L23.1527561,23.0595189 C22.9156829,21.7150879 22.2315366,20.8446879 20.8873902,20.8446879 C19.2542195,20.8446879 18.1222683,22.1363674 18.1222683,24.8530704 L18.1222683,25.2750826 C18.1222683,28.0709129 19.1225122,29.3362166 20.9144634,29.3362166 C22.2315366,29.3362166 23.2047073,28.3603135 23.4161707,26.857628 L26.9188537,26.857628 C26.6561707,29.9956105 24.5217805,32.2368172 20.7820244,32.2368172 L20.7820244,32.2368172 Z M8.21714634,27.3580347 L8.21714634,26.0399795 L6.68934146,26.0399795 C4.7927561,26.0399795 3.81958537,26.5674947 3.81958537,27.8064226 L3.81958537,27.9383014 C3.81958537,28.8878287 4.39909756,29.5472226 5.68982927,29.5472226 C7.00690244,29.5472226 8.21714634,28.8094341 8.21714634,27.3580347 L8.21714634,27.3580347 Z M4.53080488,32.2368172 C2.05470732,32.2368172 7.31707317e-05,30.9715135 7.31707317e-05,28.1756832 L7.31707317e-05,28.0181613 C7.31707317e-05,24.6156886 2.94958537,23.5079068 6.50568293,23.5079068 L8.21714634,23.5079068 L8.21714634,22.8492455 C8.21714634,21.4777061 7.61129268,20.6329492 6.18885366,20.6329492 C4.89958537,20.6329492 4.21397561,21.3714704 4.10934146,22.4272334 L0.421536585,22.4272334 C0.684219512,19.3676455 3.10690244,17.8642273 6.37397561,17.8642273 C9.69226829,17.8642273 12.0637317,19.2885182 12.0637317,22.7166341 L12.0637317,31.9474166 L8.29617073,31.9474166 L8.29617073,30.3648711 C7.63763415,31.3671499 6.37397561,32.2368172 4.53080488,32.2368172 L4.53080488,32.2368172 Z M69.5942195,9.53095327 L76.4671463,6.97250478 L69.5942195,4.28291017 L69.5942195,0.722182896 L81.3666585,5.4690866 L81.3666585,8.42243879 L69.5942195,13.1964509 L69.5942195,9.53095327 Z" id="Fill-4" fill="#C7CED7" mask="url(#mask-4)"></path>
                </g>
            </g>
        </g>
    </g>
</svg>