<svg xmlns="http://www.w3.org/2000/svg" xmlns:xlink="http://www.w3.org/1999/xlink" viewBox="0 0 160.07 81.55">
  <defs>
    <style>
      .cls-1, .cls-5, .cls-6, .cls-7, .cls-8 {
        stroke-miterlimit: 10;
      }

      .cls-1, .cls-5, .cls-6, .cls-7 {
        stroke-width: 2px;
      }

      .cls-1 {
        fill: url(#linear-gradient);
        stroke: url(#linear-gradient-2);
      }

      .cls-2, .cls-7, .cls-8 {
        fill: none;
      }

      .cls-3 {
        fill: url(#linear-gradient-3);
      }

      .cls-4, .cls-5, .cls-6 {
        fill: #fff;
      }

      .cls-5 {
        stroke: url(#linear-gradient-4);
      }

      .cls-6 {
        stroke: url(#linear-gradient-5);
      }

      .cls-7 {
        stroke: url(#linear-gradient-6);
      }

      .cls-8 {
        stroke: #000;
        stroke-width: 0.75px;
      }
    </style>
    <linearGradient id="linear-gradient" x1="123.66" y1="37.37" x2="123.66" y2="80.55" gradientUnits="userSpaceOnUse">
      <stop offset="0" stop-color="#05cef4"/>
      <stop offset="1" stop-color="#02a0e6"/>
    </linearGradient>
    <linearGradient id="linear-gradient-2" x1="123.66" y1="36.37" x2="123.66" y2="81.55" xlink:href="#linear-gradient"/>
    <linearGradient id="linear-gradient-3" x1="123.66" y1="24.82" x2="123.66" y2="65.1" xlink:href="#linear-gradient"/>
    <linearGradient id="linear-gradient-4" x1="123.66" y1="25.32" x2="123.66" y2="64.6" xlink:href="#linear-gradient"/>
    <linearGradient id="linear-gradient-5" x1="123.66" y1="14.29" x2="123.66" y2="47.63" xlink:href="#linear-gradient"/>
    <linearGradient id="linear-gradient-6" x1="123.66" y1="2" x2="123.66" y2="31.92" xlink:href="#linear-gradient"/>
  </defs>
  <title>stack-layer-4</title>
  <g id="Layer_2" data-name="Layer 2">
    <g id="Layer_1-2" data-name="Layer 1">
      <g>
        <g>
          <path class="cls-1" d="M122.68,80.28,89.2,60.62a1.92,1.92,0,0,1,0-3.33l33.48-19.65a1.9,1.9,0,0,1,1.95,0l33.49,19.65a1.93,1.93,0,0,1,0,3.33L124.63,80.28A1.9,1.9,0,0,1,122.68,80.28Z"/>
          <path class="cls-2" d="M122.68,80.28,89.2,60.62a1.92,1.92,0,0,1,0-3.33l33.48-19.65a1.9,1.9,0,0,1,1.95,0l33.49,19.65a1.93,1.93,0,0,1,0,3.33L124.63,80.28A1.9,1.9,0,0,1,122.68,80.28Z"/>
        </g>
        <g>
          <path class="cls-3" d="M123.66,65.1a3.39,3.39,0,0,1-1.7-.46L93.36,47.85a3.36,3.36,0,0,1,0-5.78L122,25.28a3.39,3.39,0,0,1,1.7-.46,3.35,3.35,0,0,1,1.69.46L154,42.07a3.36,3.36,0,0,1,0,5.78L125.35,64.64A3.35,3.35,0,0,1,123.66,65.1Z"/>
          <path class="cls-4" d="M123.66,26.32a1.93,1.93,0,0,1,.93.25l28.61,16.8a1.85,1.85,0,0,1,0,3.18L124.59,63.34a1.81,1.81,0,0,1-1.87,0L94.12,46.55a1.84,1.84,0,0,1,0-3.18l28.6-16.8a1.94,1.94,0,0,1,.94-.25m0-3a4.86,4.86,0,0,0-2.46.67L92.6,40.78a4.85,4.85,0,0,0,0,8.36l28.6,16.79a4.86,4.86,0,0,0,2.46.67,4.8,4.8,0,0,0,2.45-.67l28.6-16.79a4.84,4.84,0,0,0,0-8.36L126.11,24a4.8,4.8,0,0,0-2.45-.67Z"/>
        </g>
        <path class="cls-5" d="M122.72,63.34,94.12,46.55a1.84,1.84,0,0,1,0-3.18l28.6-16.8a1.89,1.89,0,0,1,1.87,0l28.61,16.8a1.85,1.85,0,0,1,0,3.18L124.59,63.34A1.84,1.84,0,0,1,122.72,63.34Z"/>
        <path class="cls-4" d="M123.66,15.29a1.59,1.59,0,0,1,.84.23l23.85,14a1.67,1.67,0,0,1,0,2.88l-23.85,14a1.67,1.67,0,0,1-1.69,0L99,32.4a1.67,1.67,0,0,1,0-2.88l23.85-14a1.6,1.6,0,0,1,.85-.23m0-4a5.67,5.67,0,0,0-2.87.78l-23.85,14a5.67,5.67,0,0,0,0,9.78l23.84,14a5.69,5.69,0,0,0,5.75,0l23.85-14a5.67,5.67,0,0,0,0-9.78l-23.85-14a5.67,5.67,0,0,0-2.87-.78Z"/>
        <path class="cls-6" d="M122.81,46.4,99,32.4a1.67,1.67,0,0,1,0-2.88l23.85-14a1.65,1.65,0,0,1,1.69,0l23.85,14a1.67,1.67,0,0,1,0,2.88l-23.85,14A1.65,1.65,0,0,1,122.81,46.4Z"/>
        <path class="cls-2" d="M122.72,63.34,94.12,46.55a1.84,1.84,0,0,1,0-3.18l28.6-16.8a1.89,1.89,0,0,1,1.87,0l28.61,16.8a1.85,1.85,0,0,1,0,3.18L124.59,63.34A1.84,1.84,0,0,1,122.72,63.34Z"/>
        <path class="cls-4" d="M123.66,3a1.63,1.63,0,0,1,.82.22l21,12.35a1.61,1.61,0,0,1,0,2.78l-21,12.35a1.63,1.63,0,0,1-.82.22,1.58,1.58,0,0,1-.82-.22l-21-12.35a1.61,1.61,0,0,1,0-2.78l21-12.35a1.58,1.58,0,0,1,.82-.22m0-3a4.6,4.6,0,0,0-2.34.64L100.29,13a4.62,4.62,0,0,0,0,8l21,12.34a4.6,4.6,0,0,0,2.34.64,4.54,4.54,0,0,0,2.33-.64l21-12.34a4.61,4.61,0,0,0,0-8L126,.64A4.54,4.54,0,0,0,123.66,0Z"/>
        <path class="cls-4" d="M122.84,30.7l-21-12.35a1.61,1.61,0,0,1,0-2.78l21-12.35a1.65,1.65,0,0,1,1.64,0l21,12.35a1.61,1.61,0,0,1,0,2.78l-21,12.35A1.65,1.65,0,0,1,122.84,30.7Z"/>
        <path class="cls-7" d="M122.84,30.7l-21-12.35a1.61,1.61,0,0,1,0-2.78l21-12.35a1.65,1.65,0,0,1,1.64,0l21,12.35a1.61,1.61,0,0,1,0,2.78l-21,12.35A1.65,1.65,0,0,1,122.84,30.7Z"/>
        <g>
          <path d="M123.16,70.43a3,3,0,1,1-3,3,3,3,0,0,1,3-3m0-.75a3.75,3.75,0,1,0,3.75,3.75,3.75,3.75,0,0,0-3.75-3.75Z"/>
          <line class="cls-8" x1="119.66" y1="73.43" x2="26.66" y2="73.43"/>
        </g>
        <g>
          <path d="M1.58,69.83h3a2.31,2.31,0,0,1,1.89.75,2.55,2.55,0,0,1,.39,2,4.09,4.09,0,0,1-.34,1.15,3.54,3.54,0,0,1-.71,1,2.58,2.58,0,0,1-1.19.73,5.57,5.57,0,0,1-1.3.15H2l-.42,2.11H0l1.58-7.94h0m1.3,1.26-.67,3.32H2.5a5.65,5.65,0,0,0,1.77-.21c.47-.15.79-.69,1-1.61s0-1.22-.39-1.34a4.9,4.9,0,0,0-1.48-.17H2.88"/>
          <path d="M8.58,67.72h1.53l-.43,2.11h1.37a2.76,2.76,0,0,1,1.68.46c.38.3.49.86.33,1.69l-.74,3.68H10.77l.71-3.52a1,1,0,0,0-.07-.78c-.11-.16-.37-.24-.76-.24H9.42l-.91,4.55H7l1.59-7.94h0"/>
          <path d="M14.7,69.83h3a2.31,2.31,0,0,1,1.89.75,2.55,2.55,0,0,1,.39,2,4.09,4.09,0,0,1-.34,1.15,3.54,3.54,0,0,1-.71,1,2.58,2.58,0,0,1-1.19.73,5.57,5.57,0,0,1-1.3.15H15.08l-.42,2.11H13.12l1.58-7.94h0M16,71.09l-.67,3.32h.29a5.65,5.65,0,0,0,1.77-.21c.48-.15.79-.69.95-1.61s0-1.22-.39-1.34a4.86,4.86,0,0,0-1.48-.17H16"/>
        </g>
      </g>
    </g>
  </g>
</svg>
