<?xml version="1.0" encoding="UTF-8"?>
<svg width="120px" height="21px" viewBox="0 0 120 21" version="1.1" xmlns="http://www.w3.org/2000/svg" xmlns:xlink="http://www.w3.org/1999/xlink">
    <!-- Generator: Sketch 52.6 (67491) - http://www.bohemiancoding.com/sketch -->
    <title>Group 20</title>
    <desc>Created with Sketch.</desc>
    <g id="Page-1" stroke="none" stroke-width="1" fill="none" fill-rule="evenodd" opacity="0.6">
        <g id="Group-20" fill="#C7CED7">
            <path d="M53.8495529,6.541836 C52.4623778,6.541836 50.7778024,6.956376 49.6880277,8.571486 L49.6880277,6.899256 L46.7437643,6.899256 L46.7437643,20.591886 L49.716312,20.591886 L49.716312,13.002276 C49.716312,10.658256 51.3158267,9.386076 53.2266759,9.386076 C55.2084437,9.386076 56.383487,10.672536 56.383487,12.973716 L56.383487,20.591886 L59.3560347,20.591886 L59.3560347,11.987556 C59.3560347,8.785896 57.0770745,6.541836 53.8495529,6.541836" id="Fill-1"></path>
            <path d="M37.3299619,18.133668 C34.7820936,18.133668 33.2391473,16.146858 33.2391473,13.745508 C33.2391473,11.344368 34.7820936,9.357558 37.3299619,9.357558 C39.7788354,9.357558 41.4209844,11.244408 41.4209844,13.745508 C41.4209844,16.246818 39.7788354,18.133668 37.3299619,18.133668 Z M41.236721,8.557248 C40.3027175,7.342188 38.9014003,6.541878 36.976201,6.541878 C33.1827868,6.541878 30.1956811,9.557688 30.1956811,13.745508 C30.1956811,17.933538 33.1827868,20.949348 36.976201,20.949348 C38.9014003,20.949348 40.3027175,20.163318 41.236721,18.948258 L41.236721,20.591928 L44.1953345,20.591928 L44.1953345,6.899298 L41.236721,6.899298 L41.236721,8.557248 Z" id="Fill-3"></path>
            <path d="M23.6334489,8.442819 L23.6334489,6.899319 L20.7033276,6.899319 L20.7033276,20.591949 L23.6617331,20.591949 L23.6617331,13.059459 C23.6617331,10.729719 25.0064818,9.386139 26.8890468,9.386139 C27.6109185,9.386139 28.5166378,9.557709 29.1397227,9.886569 L29.8474523,6.927879 C29.1680069,6.656139 28.4744194,6.541899 27.5684922,6.541899 C25.912409,6.541899 24.525234,7.142289 23.6334489,8.442819" id="Fill-5"></path>
            <path d="M112.512562,18.133668 C110.09218,18.133668 108.266184,16.332708 108.266184,13.745508 C108.266184,11.158518 110.09218,9.357558 112.512562,9.357558 C114.933151,9.357558 116.773289,11.158518 116.773289,13.745508 C116.773289,16.332708 114.933151,18.133668 112.512562,18.133668 M112.512562,6.541878 C108.322752,6.541878 105.222718,9.643578 105.222718,13.745508 C105.222718,17.847648 108.322752,20.949348 112.512562,20.949348 C116.702371,20.949348 119.816756,17.847648 119.816756,13.745508 C119.816756,9.643578 116.702371,6.541878 112.512562,6.541878" id="Fill-7"></path>
            <path d="M99.4188354,9.357453 C100.721366,9.357453 101.726496,9.872163 102.674641,10.772433 L104.571348,8.728713 C103.368229,7.284963 101.528298,6.541773 99.503896,6.541773 C95.1865997,6.541773 92.3696153,9.643473 92.3696153,13.745403 C92.3696153,17.847543 95.1865997,20.949243 99.503896,20.949243 C101.528298,20.949243 103.339945,20.206263 104.571348,18.762513 L102.745352,16.704093 C101.881851,17.518893 100.721366,18.133773 99.4188354,18.133773 C97.1398752,18.133773 95.4130815,16.332603 95.4130815,13.745403 C95.4130815,11.158623 97.1398752,9.357453 99.4188354,9.357453" id="Fill-9"></path>
            <path d="M80.4622877,12.573393 C80.7738302,10.572513 81.9486655,9.200373 84.0577123,9.200373 C85.9404853,9.200373 87.1720971,10.443783 87.4973657,12.573393 L80.4622877,12.573393 Z M84.1144887,6.541773 C80.122669,6.541773 77.362669,9.457833 77.362669,13.745403 C77.362669,18.090513 80.2358059,20.949453 84.2983362,20.949453 C86.3508146,20.949453 88.2194454,20.449023 89.8757366,19.019763 L88.4035009,16.890153 C87.285234,17.790633 85.8412825,18.333903 84.4823917,18.333903 C82.5574003,18.333903 80.8445407,17.304483 80.4483536,14.846013 L90.4701213,14.846013 C90.4984055,14.503083 90.5268977,14.117313 90.5268977,13.731333 C90.5125477,9.457833 87.9079029,6.541773 84.1144887,6.541773 Z" id="Fill-11"></path>
            <path d="M16.3172548,8.595384 C15.0683813,7.869834 13.6468908,7.870674 12.3980173,7.870254 L9.26678683,7.870254 L9.26678683,10.999464 L12.3984333,10.999464 C13.3060243,10.995264 14.2410676,10.999254 14.7718128,11.307744 C15.2561802,11.588934 15.5017955,12.350604 15.5017955,13.571544 C15.5017955,14.753214 14.4444645,17.814804 9.61638821,17.814804 C6.20439515,17.814804 3.3524714,14.903154 3.3524714,10.579674 C3.3524714,6.256194 6.3524714,3.309684 10.3686239,3.309684 C12.2875841,3.285534 14.4430087,4.236834 15.6866828,5.736864 L18.0336499,3.437784 C16.2371854,1.409814 13.1022114,0.210084 10.3686239,0.210084 C4.30664818,0.210084 -4.15944542e-05,4.626384 -4.15944542e-05,10.579674 C-4.15944542e-05,16.532124 4.60862392,20.947794 9.61618024,20.949264 L9.61618024,20.949474 C9.61680416,20.949474 9.6172201,20.949264 9.61763605,20.949264 C9.61805199,20.949264 9.61846794,20.949474 9.61867591,20.949474 L9.61867591,20.949264 C11.6832166,20.948844 13.7718821,20.372394 15.3497678,19.367334 C17.4461282,18.032154 18.6005823,15.973734 18.6005823,13.571544 C18.6005823,11.150034 17.8323328,9.475704 16.3172548,8.595384" id="Fill-14"></path>
            <path d="M68.3566378,18.132849 C65.8175043,18.125289 64.2799653,16.142259 64.2799653,13.745529 C64.2799653,11.344389 65.8229116,9.357579 68.3707799,9.357579 C70.8198614,9.357579 72.4761525,11.244429 72.4761525,13.745319 C72.4761525,16.168509 70.619792,18.132849 68.3566378,18.132849 Z M72.2875217,0.209979 L72.2875217,8.173809 L72.277747,8.557269 C71.3433276,7.342209 69.9422184,6.541899 68.0170191,6.541899 C64.2236049,6.541899 61.2369151,9.557709 61.2369151,13.745529 C61.2369151,17.933559 64.2236049,20.949369 68.0170191,20.949369 C72.4846794,20.949369 75.4484922,17.724189 75.4487002,13.745529 L75.4487002,0.209979 L72.2875217,0.209979 Z" id="Fill-17"></path>
        </g>
    </g>
</svg>