<?xml version="1.0" encoding="UTF-8"?>
<svg width="120px" height="32px" viewBox="0 0 120 32" version="1.1" xmlns="http://www.w3.org/2000/svg" xmlns:xlink="http://www.w3.org/1999/xlink">
    <!-- Generator: Sketch 52.6 (67491) - http://www.bohemiancoding.com/sketch -->
    <title>Fill 4</title>
    <desc>Created with Sketch.</desc>
    <g id="Page-1" stroke="none" stroke-width="1" fill="none" fill-rule="evenodd">
        <path d="M110.500244,22.7329724 L115.663171,22.7329724 C115.583415,20.7027717 114.661463,19.8323717 113.135122,19.8323717 C111.923415,19.8323717 110.817805,20.491033 110.500244,22.7329724 Z M113.240488,31.5146343 C109.262927,31.5146343 106.550488,29.1415488 106.550488,24.5528997 L106.550488,24.2891421 C106.550488,19.6741172 109.420976,17.1420444 113.107317,17.1420444 C116.531707,17.1420444 119.402927,19.0674747 119.402927,23.6297481 L119.402927,25.2914209 L110.449024,25.2914209 C110.607073,27.7700094 111.659268,28.7195367 113.31878,28.7195367 C114.793171,28.7195367 115.583415,27.9289966 115.848293,26.9267178 L119.402927,26.9267178 C118.982195,29.5371852 116.848537,31.5146343 113.240488,31.5146343 Z M97.3573171,17.4329104 L101.201707,17.4329104 L101.201707,19.9642505 C102.018293,18.1179475 103.309024,17.2482801 105.337317,17.2482801 L105.337317,21.0449239 C102.729512,21.0449239 101.201707,21.8361966 101.201707,24.1308875 L101.201707,31.2252337 L97.3573171,31.2252337 L97.3573171,17.4329104 Z M94.5643902,31.2252337 L90.7178049,31.2252337 L90.7178049,29.1943003 C90.06,30.5130882 88.7692683,31.5146343 86.7139024,31.5146343 C84.2392683,31.5146343 82.4209756,30.0119488 82.4209756,26.7684633 L82.4209756,17.4329104 L86.2931707,17.4329104 L86.2931707,26.1881966 C86.2931707,27.7700094 86.9246341,28.5085306 88.295122,28.5085306 C89.6378049,28.5085306 90.7178049,27.6645064 90.7178049,25.9508148 L90.7178049,17.4329104 L94.5643902,17.4329104 L94.5643902,31.2252337 Z M77.442439,13.2655407 L77.442439,17.4329104 L80.0765854,17.4329104 L80.0765854,20.3064027 L77.442439,20.3064027 L77.442439,26.8468579 C77.442439,27.8762451 77.9158537,28.3502761 78.8114634,28.3502761 C79.3653659,28.3502761 79.7860976,28.2718815 80.154878,28.1136269 L80.154878,31.1197306 C79.7078049,31.2516094 78.9431707,31.409864 77.994878,31.409864 C74.9934146,31.409864 73.5702439,30.0383246 73.5702439,27.2424943 L73.5702439,20.3064027 L71.9634146,20.3064027 L71.9634146,17.4329104 L73.5702439,17.4329104 L73.5702439,14.8473535 L77.442439,13.2655407 Z M58.0821951,17.4329104 L61.9273171,17.4329104 L61.9273171,19.4894869 C62.6129268,18.1970747 63.9819512,17.1420444 66.0892683,17.1420444 C68.5917073,17.1420444 70.2504878,18.6454626 70.2504878,21.9944512 L70.2504878,31.2252337 L66.4046341,31.2252337 L66.4046341,22.5747178 C66.4046341,20.9665293 65.7468293,20.2536512 64.3507317,20.2536512 C63.0073171,20.2536512 61.9273171,21.0712997 61.9273171,22.8120997 L61.9273171,31.2252337 L58.0821951,31.2252337 L58.0821951,17.4329104 Z M46.8080488,22.7329724 L51.9702439,22.7329724 C51.8904878,20.7027717 50.97,19.8323717 49.4421951,19.8323717 C48.2297561,19.8323717 47.124878,20.491033 46.8080488,22.7329724 Z M49.5468293,31.5146343 C45.5707317,31.5146343 42.857561,29.1415488 42.857561,24.5528997 L42.857561,24.2891421 C42.857561,19.6741172 45.7287805,17.1420444 49.415122,17.1420444 C52.8387805,17.1420444 55.7107317,19.0674747 55.7107317,23.6297481 L55.7107317,25.2914209 L46.7560976,25.2914209 C46.9141463,27.7700094 47.9670732,28.7195367 49.6258537,28.7195367 C51.1009756,28.7195367 51.8904878,27.9289966 52.1553659,26.9267178 L55.7107317,26.9267178 C55.2892683,29.5371852 53.1556098,31.5146343 49.5468293,31.5146343 Z M35.112439,31.5146343 C31.2929268,31.5146343 28.5278049,29.1415488 28.5278049,24.4737724 L28.5278049,24.2891421 C28.5278049,19.6213657 31.4780488,17.1420444 35.1380488,17.1420444 C38.2719512,17.1420444 40.8534146,18.7245899 41.1702439,22.337336 L37.482439,22.337336 C37.2453659,20.9929051 36.5612195,20.1225051 35.2170732,20.1225051 C33.5839024,20.1225051 32.4519512,21.4141845 32.4519512,24.1308875 L32.4519512,24.5528997 C32.4519512,27.34873 33.4521951,28.6140337 35.2441463,28.6140337 C36.5612195,28.6140337 37.5343902,27.6381306 37.7458537,26.1354451 L41.2492683,26.1354451 C40.985122,29.2734276 38.8514634,31.5146343 35.112439,31.5146343 Z M20.7819512,31.5146343 C16.9639024,31.5146343 14.1987805,29.1415488 14.1987805,24.4737724 L14.1987805,24.2891421 C14.1987805,19.6213657 17.147561,17.1420444 20.8082927,17.1420444 C23.9421951,17.1420444 26.5243902,18.7245899 26.8397561,22.337336 L23.1526829,22.337336 C22.9156098,20.9929051 22.2314634,20.1225051 20.8873171,20.1225051 C19.2541463,20.1225051 18.1221951,21.4141845 18.1221951,24.1308875 L18.1221951,24.5528997 C18.1221951,27.34873 19.122439,28.6140337 20.9143902,28.6140337 C22.2314634,28.6140337 23.2046341,27.6381306 23.4160976,26.1354451 L26.9187805,26.1354451 C26.6560976,29.2734276 24.5217073,31.5146343 20.7819512,31.5146343 Z M8.21707317,26.6358519 L8.21707317,25.3177966 L6.68926829,25.3177966 C4.79268293,25.3177966 3.8195122,25.8453118 3.8195122,27.0842397 L3.8195122,27.2161185 C3.8195122,28.1656458 4.39902439,28.8250397 5.6897561,28.8250397 C7.00682927,28.8250397 8.21707317,28.0872512 8.21707317,26.6358519 Z M4.53073171,31.5146343 C2.05463415,31.5146343 0,30.2493306 0,27.4535003 L0,27.2959785 C0,23.8935057 2.9495122,22.7857239 6.50560976,22.7857239 L8.21707317,22.7857239 L8.21707317,22.1270626 C8.21707317,20.7555232 7.61121951,19.9107663 6.18878049,19.9107663 C4.8995122,19.9107663 4.21390244,20.6492875 4.10926829,21.7050505 L0.421463415,21.7050505 C0.684146341,18.6454626 3.10682927,17.1420444 6.37390244,17.1420444 C9.69219512,17.1420444 12.0636585,18.5663354 12.0636585,21.9944512 L12.0636585,31.2252337 L8.29609756,31.2252337 L8.29609756,29.6426882 C7.63756098,30.644967 6.37390244,31.5146343 4.53073171,31.5146343 Z M69.5941463,8.80877037 L76.4670732,6.25032189 L69.5941463,3.56072727 L69.5941463,0 L81.3665854,4.7469037 L81.3665854,7.70025589 L69.5941463,12.474268 L69.5941463,8.80877037 Z" id="Fill-4" fill="#C7CED7"></path>
    </g>
</svg>