<?xml version="1.0" encoding="UTF-8"?>
<svg width="120px" height="33px" viewBox="0 0 120 33" version="1.1" xmlns="http://www.w3.org/2000/svg" xmlns:xlink="http://www.w3.org/1999/xlink">
    <!-- Generator: Sketch 52.6 (67491) - http://www.bohemiancoding.com/sketch -->
    <title>Group 19</title>
    <desc>Created with Sketch.</desc>
    <g id="Page-1" stroke="none" stroke-width="1" fill="none" fill-rule="evenodd">
        <g id="Group-19" fill="#C7CED7">
            <path d="M103.876806,0.000118918919 C95.0154466,0.000118918919 87.8340874,7.33147027 87.8340874,16.3764432 C87.8340874,22.3616324 90.9817573,27.5952541 95.679233,30.453173 C94.8648641,28.6684973 95.3955437,26.4533351 96.860301,25.1490919 C98.3870971,23.7859838 101.101951,23.5633081 103.300107,24.4757135 C103.489427,24.5533081 103.798165,24.7816324 103.714573,25.1479027 C103.630398,25.5097135 103.35399,26.1052 103.26399,26.3130108 C103.145155,26.5933622 102.867,26.7110919 102.549524,26.6055514 C101.749136,26.3394703 100.646126,26.1325514 99.5885534,26.6540108 C98.3952524,27.1775514 97.9953495,29.2244432 99.4653495,29.9953351 C100.475447,30.4894432 101.727,30.2905514 102.774961,29.9849297 C103.015544,29.9144703 103.404087,29.9391459 103.547388,30.3009568 C103.664184,30.6083622 103.830204,30.9139838 103.91933,31.2323892 C104.007,31.5496054 103.910301,31.9048757 103.659524,32.0573892 C103.220301,32.3175243 102.699816,32.5146324 102.144087,32.6534703 C102.713505,32.7176865 103.290786,32.7509838 103.876806,32.7509838 C112.737,32.7509838 119.920107,25.4211189 119.920107,16.3764432 C119.920107,7.33147027 112.737,0.000118918919 103.876806,0.000118918919 M104.261272,5.54352432 L103.137291,19.8916865 C103.019039,21.251227 101.534184,21.8939838 99.9811748,21.8939838 C97.8695243,21.8939838 96.5032136,21.4192 96.3602039,19.9243892 L95.3771942,7.97095676 C95.0678738,4.3472 102.196223,3.68452432 102.196223,3.68452432 C102.666903,3.63903784 103.03768,3.63903784 103.333019,3.72376757 C104.125544,3.95060541 104.348359,4.63438919 104.261272,5.54352432" id="Fill-1"></path>
            <polygon id="Fill-3" points="5.82524272e-05 21.8239108 5.82524272e-05 6.24820811 2.84918447 6.24820811 2.84918447 19.3723973 9.27996117 19.3723973 9.27996117 21.8239108"></polygon>
            <path d="M17.5628155,16.5059459 L16.1178641,16.5059459 C14.1439806,16.5059459 13.3095146,16.7345676 13.3095146,18.2510811 L13.3095146,18.7701622 C13.3095146,19.8499459 13.9808738,20.141 14.9172816,20.141 C16.0366019,20.141 17.1352427,19.6837568 17.5628155,19.4349189 L17.5628155,16.5059459 Z M17.6845631,21.824 L17.6845631,21.0548919 C16.9724272,21.5537568 15.6905825,22.1147568 14.0828155,22.1147568 C11.9461165,22.1147568 10.7047573,21.0548919 10.7047573,18.790973 L10.7047573,18.334027 C10.7047573,15.2385676 12.9023301,14.8027297 16.1178641,14.8027297 L17.4815534,14.8027297 L17.4815534,14.0963514 C17.4815534,12.4344595 17.1352427,12.0812703 15.1004854,12.0812703 C14.5712621,12.0812703 14.0828155,12.1020811 13.5332039,12.1434054 L13.3502913,13.1821622 L11.4984466,13.1821622 L11.4984466,10.461 C11.9863107,10.2742973 13.6963107,9.83786486 15.5481553,9.83786486 C19.211068,9.83786486 20.1882524,11.1046486 20.1882524,14.0963514 L20.1882524,21.824 L17.6845631,21.824 Z" id="Fill-5"></path>
            <path d="M29.9565437,15.0519541 C29.9565437,12.8706838 29.2647961,12.1643054 27.7586796,12.1643054 C27.005767,12.1643054 26.3748932,12.3093865 25.2756699,12.8082514 L25.2756699,19.5806838 C26.0492621,19.7257649 26.7613981,19.8298189 27.4126602,19.8298189 C29.0204272,19.8298189 29.9565437,19.2688189 29.9565437,16.7135486 L29.9565437,15.0519541 Z M27.5754757,22.1148459 C26.8432427,22.1148459 25.8861553,21.9899811 25.2963495,21.8651162 L25.2963495,26.0852514 L22.6100388,26.0852514 L22.6100388,12.4137378 L21.6130485,12.3093865 L21.6130485,10.1287108 L25.1332427,10.1287108 L25.1332427,10.8972243 C26.171301,10.1495216 27.3721748,9.83795405 28.4912039,9.83795405 C31.0554757,9.83795405 32.6428544,11.2920351 32.6428544,15.0519541 L32.6428544,16.7135486 C32.6428544,20.7648189 30.5670291,22.1148459 27.5754757,22.1148459 Z" id="Fill-7"></path>
            <path d="M42.4114078,15.0519541 C42.4114078,12.8706838 41.7193689,12.1643054 40.2132524,12.1643054 C39.4606311,12.1643054 38.829466,12.3093865 37.7308252,12.8082514 L37.7308252,19.5806838 C38.503835,19.7257649 39.2159709,19.8298189 39.8675243,19.8298189 C41.475,19.8298189 42.4114078,19.2688189 42.4114078,16.7135486 L42.4114078,15.0519541 Z M40.0300485,22.1148459 C39.2975243,22.1148459 38.3410194,21.9899811 37.7509223,21.8651162 L37.7509223,26.0852514 L35.0646117,26.0852514 L35.0646117,12.4137378 L34.0676214,12.3093865 L34.0676214,10.1287108 L37.5878155,10.1287108 L37.5878155,10.8972243 C38.626165,10.1495216 39.8267476,9.83795405 40.946068,9.83795405 C43.5103398,9.83795405 45.0977184,11.2920351 45.0977184,15.0519541 L45.0977184,16.7135486 C45.0977184,20.7648189 43.0218932,22.1148459 40.0300485,22.1148459 Z" id="Fill-9"></path>
            <path d="M54.194301,14.8647162 C54.194301,13.5143919 53.9091553,12.0395 51.6914854,12.0395 C49.5341068,12.0395 49.2285728,13.5143919 49.2285728,14.8647162 L49.2285728,15.0312027 L54.194301,15.0312027 L54.194301,14.8647162 Z M49.2084757,16.8381757 L49.2084757,17.025473 C49.2084757,18.7492027 49.432165,19.8500946 52.2408058,19.8500946 C53.4614854,19.8500946 55.2731359,19.7258243 56.372068,19.5807432 L56.372068,21.6160405 C55.5376019,21.8440676 54.0317767,22.1149054 52.118767,22.1149054 C48.0078932,22.1149054 46.522165,20.4530135 46.522165,16.5266081 L46.522165,15.5505811 C46.522165,11.7282297 48.333233,9.83801351 51.6914854,9.83801351 C55.5172136,9.83801351 56.8605146,12.3513649 56.8605146,15.7786081 L56.8605146,16.8381757 L49.2084757,16.8381757 Z" id="Fill-11"></path>
            <path d="M61.9680583,13.0367838 L61.9680583,21.824 L59.2820388,21.824 L59.2820388,12.4136486 L58.2850485,12.3095946 L58.2850485,10.1289189 L61.8259223,10.1289189 L61.8259223,11.0844324 C62.9452427,10.1078108 64.3287379,9.83786486 65.7538835,9.83786486 L65.7538835,12.3512162 C64.3698058,12.3512162 62.8639806,12.6422703 61.9680583,13.0367838" id="Fill-13"></path>
            <path d="M70.8618058,13.0367838 L70.8618058,21.824 L68.1754951,21.824 L68.1754951,12.4136486 L67.1785049,12.3095946 L67.1785049,10.1289189 L70.7190874,10.1289189 L70.7190874,11.0844324 C71.838699,10.1078108 73.2224854,9.83786486 74.6470485,9.83786486 L74.6470485,12.3512162 C73.2629709,12.3512162 71.7571456,12.6422703 70.8618058,13.0367838" id="Fill-15"></path>
            <path d="M83.0316699,14.8649838 C83.0316699,13.5143622 82.7465243,12.0394703 80.5279806,12.0394703 C78.3714757,12.0394703 78.0659417,13.5143622 78.0659417,14.8649838 L78.0659417,15.031173 L83.0316699,15.031173 L83.0316699,14.8649838 Z M78.0455534,16.8381459 L78.0455534,17.0257405 C78.0455534,18.7494703 78.269534,19.8509568 81.0775922,19.8509568 C82.2988544,19.8509568 84.1102136,19.7257946 85.2088544,19.5807135 L85.2088544,21.6160108 C84.3746796,21.8449297 82.8682718,22.1148757 80.9558447,22.1148757 C76.8446796,22.1148757 75.3592427,20.4529838 75.3592427,16.5268757 L75.3592427,15.5508486 C75.3592427,11.7282 77.1706019,9.83828108 80.5279806,9.83828108 C84.3542913,9.83828108 85.697301,12.3513351 85.697301,15.7788757 L85.697301,16.8381459 L78.0455534,16.8381459 Z" id="Fill-17"></path>
        </g>
    </g>
</svg>