<svg xmlns="http://www.w3.org/2000/svg" viewBox="0 0 28 24">
    <g fill="#02A0E6">
        <path d="M19.62.57a2.08 2.08 0 0 1 2.072 1.897l.008.183v.7h.91a2.08 2.08 0 0 1 2.074 1.922l.006.148v.94h1a2.08 2.08 0 0 1 2.065 1.932l.005.148v12.91a2.08 2.08 0 0 1-1.922 2.074l-.148.006H8.38a2.08 2.08 0 0 1-2.075-1.931L6.3 21.35v-.94h-1a2.07 2.07 0 0 1-2.065-1.922l-.005-.148v-.7h-.91a2.08 2.08 0 0 1-2.075-1.931L.24 15.56V4.71a2.08 2.08 0 0 1 1.932-2.065l.148-.005h7.77l.8-1.17a2.09 2.09 0 0 1 1.54-.892L12.6.57h7.02zm6.07 7.19h-7.07a.65.65 0 0 0-.493.224l-.057.076-1.22 1.76H8.34a.69.69 0 0 0-.671.58l-.009.1v10.86a.69.69 0 0 0 .58.671l.1.009h17.35a.68.68 0 0 0 .663-.58l.007-.1V8.44a.67.67 0 0 0-.564-.671l-.106-.009zm-3.07-3.05h-7.06a.7.7 0 0 0-.489.206L15 5l-1.18 1.81H5.3a.67.67 0 0 0-.663.573l-.007.107v10.85a.67.67 0 0 0 .527.646L5.26 19h1v-8.5a2.08 2.08 0 0 1 1.895-2.112l.185-.008h7.74l.81-1.16a2.06 2.06 0 0 1 1.53-.893l.17-.007h4.7v-.94a.67.67 0 0 0-.571-.663l-.099-.007zM19.66 2H12.6a.68.68 0 0 0-.535.195L12 2.27 10.83 4H2.32a.67.67 0 0 0-.687.598l-.003.112v10.87l.01-.02a.68.68 0 0 0 .58.673l.1.007h.91V7.49a2.08 2.08 0 0 1 1.917-2.044L5.3 5.44h7.78l.8-1.16a2.09 2.09 0 0 1 1.54-.892l.17-.008h4.75v-.7a.69.69 0 0 0-.58-.671L19.66 2z"/>
        <path d="M18.43 10.71a.7.7 0 0 1 .694.605l.006.095v2.53a.7.7 0 0 1-.605.694l-.095.006h-.58v2h.55a.7.7 0 0 1 .694.605l.006.095v.58h1.95v-.58a.7.7 0 0 1 .605-.694l.095-.006h2.56a.7.7 0 0 1 .694.605l.006.095v2.63a.7.7 0 0 1-.605.694l-.095.006h-2.56a.7.7 0 0 1-.694-.605l-.006-.095v-.58H19.1v.58a.7.7 0 0 1-.605.694l-.095.006h-2.56a.7.7 0 0 1-.694-.605l-.006-.095v-.58H13.2v.58a.71.71 0 0 1-.597.691l-.103.009H9.93a.71.71 0 0 1-.691-.597l-.009-.103V17.4a.71.71 0 0 1 .597-.691l.103-.009h2.57a.71.71 0 0 1 .691.597l.009.103v.58h1.94v-.58a.7.7 0 0 1 .605-.694l.095-.006h.61v-2h-.58a.7.7 0 0 1-.694-.605L15.17 14v-2.59a.7.7 0 0 1 .605-.694l.095-.006h2.56zM17.7 18h-1.16v1.21h1.16V18zm-5.9 0h-1.17v1.21l1.17-.04V18zm11.81 0h-1.16v1.17h1.16V18zm-5.88-5.89h-1.16v1.16h1.16v-1.16z"/>
    </g>
</svg>
