<svg xmlns="http://www.w3.org/2000/svg" viewBox="0 0 95 64">
    <defs>
        <linearGradient id="a" x1="32.78%" x2="67.22%" y1="0%" y2="135.68%">
            <stop offset="0%" stop-color="#02A0E6"/>
            <stop offset="100%" stop-color="#0594D4"/>
        </linearGradient>
        <linearGradient id="b" x1="16.61%" x2="83.39%" y1="0%" y2="135.68%">
            <stop offset="0%" stop-color="#02A0E6"/>
            <stop offset="100%" stop-color="#0594D4"/>
        </linearGradient>
        <linearGradient id="c" x1="21.41%" x2="85.95%" y1="30.85%" y2="69.15%">
            <stop offset="0%" stop-color="#08D6E5"/>
            <stop offset="100%" stop-color="#079CA7"/>
        </linearGradient>
    </defs>
    <g fill="none">
        <path fill="url(#a)" d="M91.644 19.086l-14.658-7.67-.485 4.409 10.91 5.708-14.596 27.87a4.036 4.036 0 0 1-4.005 3.542h-.444l-4.531-.496v4.253l6.359 3.324a1.538 1.538 0 0 0 2.075-.65l20.005-38.194a1.538 1.538 0 0 0-.63-2.096z" transform="translate(1)"/>
        <path fill="url(#b)" d="M40.516 5.017l30.09 3.303-3.51 31.866-3.282-.361V49.91l4.8.526h.165c.782 0 1.439-.586 1.528-1.362l4.728-42.88a1.539 1.539 0 0 0-1.363-1.693L38.36.63h-.165a1.528 1.528 0 0 0-1.528 1.373l-2.323 21.192h4.191l1.982-18.178z" transform="translate(1)"/>
        <path fill="url(#c)" d="M56.774 25.693H4.954a4.532 4.532 0 0 0-4.52 4.51V58.84a4.532 4.532 0 0 0 4.52 4.542h51.82a4.532 4.532 0 0 0 4.552-4.542V30.214a4.532 4.532 0 0 0-4.552-4.521zM26.116 36.129c0-.64.423-.857.94-.485l9.569 6.844a.774.774 0 0 1 0 1.342l-9.57 6.844c-.516.371-.939.154-.939-.486V36.13zM56.134 57.6H14.06a3.324 3.324 0 0 1-6.296 0H5.626a1.089 1.089 0 1 1 0-2.178h2.137a3.324 3.324 0 0 1 6.296 0h42.075a1.089 1.089 0 1 1 0 2.178z" transform="translate(1)"/>
    </g>
</svg>
