<svg id="Layer_1" data-name="Layer 1" xmlns="http://www.w3.org/2000/svg" viewBox="0 0 28 28"><defs><style>.cls-1{fill:#02a0e6;}</style></defs><title>KM_icons</title><path class="cls-1" d="M25.87,3.66H8.23a2.1,2.1,0,0,0-2.1,2.09v0H2.19A2.1,2.1,0,0,0,.1,7.87V20.65a2.1,2.1,0,0,0,2.09,2.1h1a2.1,2.1,0,0,0,2.09,2H22.91a2.1,2.1,0,0,0,2.1-2.1v-2h.86a2.1,2.1,0,0,0,2.1-2.1V5.75A2.1,2.1,0,0,0,25.87,3.66Zm.7,14.88a.7.7,0,0,1-.7.7H8.23a.7.7,0,0,1-.7-.7V5.75a.69.69,0,0,1,.7-.69H25.87a.69.69,0,0,1,.7.69Zm-3.66,4.79H5.27a.7.7,0,0,1-.7-.7V9.84a.69.69,0,0,1,.7-.69h.86v9.39a2.1,2.1,0,0,0,2.1,2.1H23.61v2A.7.7,0,0,1,22.91,23.33ZM1.5,20.65V7.87a.69.69,0,0,1,.69-.7H6.13v.58H5.27a2.1,2.1,0,0,0-2.1,2.09V21.35h-1A.69.69,0,0,1,1.5,20.65Z"/><path class="cls-1" d="M17.08,7a5.16,5.16,0,0,0-5,4l0,0a.7.7,0,0,0-1,.95l1.08,1.19a.71.71,0,0,0,.52.23.67.67,0,0,0,.47-.19l1.19-1.08a.7.7,0,0,0-.71-1.17,3.75,3.75,0,1,1,3.53,5,.7.7,0,0,0,0,1.4A5.16,5.16,0,1,0,17.08,7Z"/><path class="cls-1" d="M16.38,12.24a.67.67,0,0,0,.21.49L18,14.19a.71.71,0,0,0,1,0,.71.71,0,0,0,0-1L17.78,12V9.67a.7.7,0,0,0-1.4,0Z"/></svg>