<?xml version="1.0" encoding="UTF-8"?>
<svg width="78px" height="48px" viewBox="0 0 78 48" version="1.1" xmlns="http://www.w3.org/2000/svg" xmlns:xlink="http://www.w3.org/1999/xlink">
    <!-- Generator: Sketch 52.6 (67491) - http://www.bohemiancoding.com/sketch -->
    <title>Group 20</title>
    <desc>Created with Sketch.</desc>
    <g id="Page-1" stroke="none" stroke-width="1" fill="none" fill-rule="evenodd" opacity="0.6">
        <g id="Group-20" fill="#C7CED7">
            <path d="M35.5383059,0.390165854 C28.537999,0.390165854 22.8617614,6.12753171 22.8617614,13.2038244 C22.8617614,16.1255805 23.830197,18.8182634 25.4585436,20.9739707 L35.9978109,6.97514146 L34.8644941,6.97787317 L33.7358109,6.97787317 C32.5349198,6.97787317 31.4058505,7.06060488 30.5930287,7.22216585 C30.0995436,7.32050732 29.6589594,7.5008 29.3017812,7.75523902 C28.880504,8.05260488 28.354197,8.68362927 28.008603,9.30723902 C27.969603,9.3790439 27.9143851,9.48909268 27.8410188,9.63816585 L27.2228109,9.49845854 L28.2568901,5.47699512 L41.4589693,5.47699512 L30.9679693,19.6526049 C31.6487317,19.5913366 31.9217317,19.5768976 32.4746822,19.5768976 C32.9005931,19.5768976 33.5473752,19.6038244 34.4111673,19.6565073 L36.2762168,19.7681171 C36.9469396,19.8075317 37.5145634,19.8293854 37.9439495,19.8293854 C38.9089099,19.8293854 39.533296,19.7556293 40.1522762,19.5612878 C40.6353356,19.4129951 41.0902069,19.1901659 41.5095535,18.9006049 C42.2459198,18.3874341 42.9625931,17.5605073 43.3915931,16.7324098 C43.4325238,16.6504585 43.5016426,16.5212878 43.5804149,16.3511415 L44.1383851,16.4970927 C43.9592168,17.2007024 43.862296,17.4676293 43.5846624,18.0963122 C43.0197416,19.3685073 42.3833851,20.2215805 41.5087812,20.875239 C40.6083059,21.5480195 39.6155436,21.8781659 38.4382069,21.8972878 L38.2590386,21.8972878 C37.3863653,21.8972878 36.7117812,21.8250927 34.6254743,21.5011902 C32.5036426,21.1729951 31.4247713,21.0609951 30.3574842,21.0609951 C29.6419693,21.0609951 28.9778109,21.113678 28.2908703,21.2264585 C27.3815139,21.3751415 27.0220188,21.4836293 26.1976129,21.8637268 C28.5132861,24.4167024 31.8421871,26.0167024 35.5383059,26.0167024 C42.5401574,26.0167024 48.219098,20.2812878 48.219098,13.2038244 C48.219098,6.12753171 42.5401574,0.390165854 35.5383059,0.390165854" id="Fill-1"></path>
            <path d="M11.6776426,34.9179707 L1.96316733,34.9179707 L0.769226733,37.5833366 C1.16617723,37.3675317 1.32603861,37.2929951 1.67317723,37.1525073 C2.22458317,36.931239 2.83043465,36.7568 3.41929604,36.6529951 C3.92861287,36.5644098 4.3989297,36.5222634 5.16039505,36.5004098 C5.50212772,36.4910439 5.82223663,36.4855805 6.12110792,36.4855805 L7.5579297,36.4855805 L3.86138614e-05,47.4007024 L10.6837218,47.4007024 L11.9158901,44.551922 C11.4884347,44.8020683 11.3343653,44.8844098 11.0076921,45.0338732 C10.386395,45.318361 9.70833564,45.527922 9.01058317,45.6508488 C8.46110792,45.7488 7.83981089,45.8046049 7.06946436,45.8237268 C6.8119099,45.8311415 6.48176139,45.8327024 6.0809495,45.8327024 L4.18848416,45.8327024 L11.6776426,34.9179707 Z" id="Fill-4"></path>
            <path d="M44.2837277,47.4008195 C44.0929752,47.2322341 44.028104,47.1537951 43.902995,46.9610146 C43.8234505,46.838478 43.760896,46.7100878 43.7103119,46.5813073 C43.6064406,46.2956488 43.5404109,45.8780878 43.5404109,45.483161 L43.5404109,44.8166244 L43.5404109,37.9627707 L43.5438861,37.2322341 C43.551995,36.396722 43.5724604,36.1672585 43.6782624,35.8273561 C43.7199653,35.6942829 43.7786584,35.5612098 43.8547277,35.4371122 C43.9833119,35.2256 44.0694208,35.1276488 44.3188663,34.9180878 L40.3524505,34.9180878 C40.6111634,35.144039 40.6941832,35.2330146 40.8119554,35.4133073 C40.894203,35.5389659 40.9590743,35.676722 41.0027079,35.8172098 C41.0938366,36.1212098 41.1239554,36.4197463 41.1285891,37.163161 C41.1320644,37.5428683 41.1351535,37.7930146 41.1351535,37.9139902 L41.1351535,44.7963317 L41.1351535,45.3883317 C41.1351535,45.8257951 41.0579257,46.2921366 40.9378366,46.5949659 C40.8857079,46.7233561 40.8223812,46.8455024 40.7432228,46.9610146 C40.6493911,47.0999415 40.5833614,47.1748683 40.3663515,47.4008195 L44.2837277,47.4008195 Z" id="Fill-6"></path>
            <path d="M56.6907089,35.0323122 C56.387204,34.9320195 56.2678871,34.8984585 55.9369663,34.8274341 C55.2291743,34.6779707 54.5430059,34.6061659 53.7668673,34.6061659 C52.4377782,34.6061659 51.2913327,34.8219707 50.2437386,35.2699707 C49.6205109,35.5329951 49.0490257,35.8779707 48.545501,36.2853854 C47.021798,37.5255805 46.1966198,39.3226537 46.1966198,41.3897756 C46.1966198,43.3979707 46.9932238,45.1310439 48.4520554,46.2935805 C49.6556495,47.2551415 51.2044515,47.7398244 53.0675703,47.7398244 C54.2306198,47.7398244 55.3137386,47.5626537 56.5343228,47.1786537 C56.5791149,47.1657756 56.6459168,47.1431415 56.7351149,47.1154341 L56.7351149,44.8461659 C56.4381743,45.0455805 56.3381644,45.1111415 56.1551347,45.2161171 C55.9199762,45.3558244 55.6670554,45.4810927 55.3975307,45.5973854 C54.6530554,45.9150439 53.9773129,46.0621659 53.2436495,46.0621659 C51.9636,46.0621659 50.8708277,45.5989463 50.0607089,44.7162146 C49.264105,43.8424585 48.8285406,42.6295805 48.8285406,41.2609951 C48.8285406,39.9505561 49.2293525,38.7365073 49.9421644,37.889678 C50.2545505,37.521678 50.6318079,37.207922 51.0646693,36.9648 C51.7624218,36.5690927 52.573699,36.3653854 53.4525505,36.3653854 C54.2093822,36.3653854 54.9399564,36.5144585 55.6724614,36.8157268 C56.1304218,37.0053854 56.2972337,37.0982634 56.6907089,37.3784585 L56.6907089,35.0323122 Z" id="Fill-8"></path>
            <path d="M67.5218198,41.7361951 L67.5218198,44.7816585 C67.5218198,45.457561 67.5098495,45.7034146 67.4669881,46.0530732 C67.4430475,46.2439024 67.3986416,46.4245854 67.3364733,46.5912195 C67.2461168,46.8226341 67.1013149,47.0364878 66.8897109,47.2429268 C66.8514832,47.278439 66.7962653,47.3326829 66.7194238,47.4009756 L70.6653743,47.4009756 C70.5020376,47.2382439 70.4406416,47.1672195 70.333295,47.0158049 C70.235602,46.8772683 70.1599188,46.7402927 70.104701,46.604878 C69.9842257,46.3141463 69.9533347,46.0932683 69.9429089,45.4774634 C69.9355723,45.1098537 69.9336416,44.8952195 69.9336416,44.8292683 L69.9429089,37.9629268 L69.9429089,37.2234146 C69.9429089,36.6727805 69.9880871,36.2493659 70.0788297,35.9016585 C70.1216911,35.7420488 70.1884931,35.585561 70.2753743,35.4423415 C70.4066614,35.2277073 70.4993347,35.1274146 70.7642257,34.9178537 L66.7337109,34.9178537 C66.9646218,35.1137561 67.046097,35.2050732 67.1843347,35.4279024 C67.2735327,35.571122 67.3403347,35.7174634 67.388602,35.8602927 C67.4820475,36.1545366 67.5218198,36.5182439 67.5218198,37.1730732 L67.5218198,37.9434146 L67.5218198,40.2091707 L61.9830475,40.2091707 L61.9830475,37.9285854 C61.9830475,37.2398049 61.9950178,36.7879024 62.0170277,36.4491707 C62.0301564,36.2462439 62.0649089,36.0636098 62.1162653,35.9067317 C62.2035327,35.635122 62.4267208,35.2667317 62.6290574,35.052878 C62.6572455,35.020878 62.7047406,34.9763902 62.767295,34.9178537 L58.8062851,34.9178537 C59.0445327,35.1652683 59.1090178,35.2386341 59.2136614,35.3982439 C59.3009287,35.5262439 59.3712059,35.6694634 59.4244931,35.8212683 C59.532998,36.1393171 59.5511465,36.3110244 59.5631168,37.1430244 L59.5708396,37.932878 L59.5708396,44.7668293 C59.5708396,45.4614634 59.5604139,45.7670244 59.5221861,46.0819512 C59.5032653,46.2439024 59.4638792,46.4109268 59.4009386,46.576 C59.2997703,46.8476098 59.154196,47.0614634 58.9267604,47.2764878 C58.8962554,47.3049756 58.8499188,47.3482927 58.7877505,47.4009756 L62.6981762,47.4009756 C62.5290475,47.2253659 62.4695822,47.1484878 62.3703446,46.9908293 C62.293503,46.8718049 62.2313347,46.7402927 62.1757307,46.6013659 C62.0463743,46.2731707 62.006602,46.0366829 61.9950178,45.5082927 C61.9865228,45.2421463 61.9830475,44.993561 61.9830475,44.7609756 L61.9830475,41.7361951 L67.5218198,41.7361951 Z" id="Fill-10"></path>
            <path d="M31.4614158,40.9820098 C31.6405842,40.9820098 31.8564356,40.963278 32.1074257,40.9238634 C32.773901,40.8270829 33.2225941,40.6811317 33.665495,40.4149854 C33.8917723,40.2787902 34.0871584,40.1219122 34.242,39.9470829 C34.5594059,39.5868878 34.7219703,39.1061073 34.7219703,38.5398634 C34.7219703,37.8877659 34.5041881,37.3660098 34.0840693,37.0054244 C33.8454356,36.7993756 33.5593069,36.6444488 33.2484653,36.5550829 C32.7827822,36.4200585 32.1919901,36.345522 31.5834356,36.345522 C31.4838119,36.345522 31.417396,36.345522 31.264099,36.3513756 L31.264099,40.9738146 C31.358703,40.9804488 31.3988614,40.9820098 31.4614158,40.9820098 Z M31.264099,44.8356683 C31.264099,45.0635707 31.264099,45.2739122 31.2679604,45.4631805 C31.2756832,46.0395707 31.3193168,46.3404488 31.4301386,46.6155707 C31.4799505,46.7470829 31.5506139,46.8754732 31.6378812,46.9960585 C31.7494752,47.1466927 31.8012178,47.2099122 31.9815446,47.4007415 L28.0525842,47.4007415 C28.2819505,47.1911805 28.3541584,47.1154732 28.4638218,46.9664 C28.5541782,46.8454244 28.6256139,46.7139122 28.678901,46.5726439 C28.7816139,46.2971317 28.821,45.9564488 28.821,45.3644488 L28.821,44.8356683 L28.821,37.9041561 L28.821,37.172839 C28.821,36.5090341 28.7854752,36.1234732 28.6997525,35.844839 C28.6514851,35.6867902 28.578505,35.5314732 28.4835149,35.3874732 C28.3657426,35.2087415 28.2873564,35.1197659 28.0684158,34.9180098 L31.2579208,34.9180098 C31.651396,34.9180098 32.0325149,34.9223024 32.4028218,34.9320585 C33.3859307,34.9597659 33.9608911,35.017522 34.5165446,35.1509854 C35.3046535,35.3367415 36.0132178,35.7347902 36.5198317,36.2733268 C37.072396,36.8590829 37.3596832,37.555278 37.3596832,38.3228878 C37.3596832,38.6456195 37.3075545,38.9675707 37.203297,39.2828878 C37.0256733,39.8467902 36.7186931,40.2920585 36.2306139,40.7068878 C35.8016139,41.0733268 35.331297,41.3476683 34.7111584,41.5989854 C34.492604,41.6864 34.400703,41.7172293 34.1632277,41.7921561 L36.0807921,44.0700098 C36.3136337,44.3466927 36.6136634,44.6865951 36.9812673,45.0862049 C37.5593168,45.7203512 37.9439109,46.1187902 38.3802475,46.5371317 C38.5679109,46.7154732 38.7470792,46.8801561 38.9127327,47.0257171 C39.0725941,47.1658146 39.1556139,47.2344976 39.3637426,47.4007415 L38.3991683,47.4007415 L37.8137822,47.4007415 C37.5844158,47.4007415 37.3701089,47.3991805 37.1731782,47.3921561 C36.634901,47.3730341 36.3001188,47.2930341 35.944099,47.0998634 C35.5286139,46.8739122 35.1100396,46.5371317 34.6663663,46.0766439 C34.5308317,45.9345951 34.331198,45.7082537 34.0651485,45.4046439 C33.8323069,45.1353756 33.6600891,44.9320585 33.551198,44.8021073 L31.264099,42.0274732 L31.264099,44.8356683 Z" id="Fill-12"></path>
            <path d="M26.0467871,34.9221463 L22.1062426,34.9221463 C22.3452624,35.1118049 22.4294406,35.2035122 22.5533911,35.4033171 C22.6337079,35.5371707 22.6958762,35.678439 22.7379653,35.827122 C22.8202129,36.1303415 22.8449257,36.4316098 22.8449257,37.136 L22.8449257,37.9266341 L22.8449257,41.8829268 C22.8449257,42.9030244 22.8163515,43.5036098 22.7414406,43.9996098 C22.692401,44.3305366 22.5846683,44.6396098 22.4240347,44.9131707 C22.1220743,45.4243902 21.5644901,45.8150244 20.9034208,45.9836098 C20.636599,46.0515122 20.3423614,46.0835122 20.0280446,46.0835122 C18.9696386,46.0835122 18.0552624,45.6870244 17.616995,45.0267317 C17.2771931,44.5182439 17.1798861,44.0323902 17.1663713,42.750439 L17.1528564,41.7205854 L17.1528564,37.9609756 C17.1528564,37.228878 17.1601931,36.8811707 17.1849059,36.5073171 C17.2011238,36.2852683 17.232401,36.0940488 17.2771931,35.937561 C17.3636881,35.6507317 17.572203,35.2682927 17.7768564,35.0321951 C17.7973218,35.0060488 17.831302,34.9705366 17.8749356,34.9221463 L13.8602525,34.9221463 C14.1058366,35.1293659 14.190401,35.2238049 14.3093317,35.4294634 C14.3884901,35.5644878 14.4464109,35.7100488 14.4842525,35.8602927 C14.5332921,36.0522927 14.5599356,36.2439024 14.5653416,36.4370732 C14.5688168,36.558439 14.5703614,36.817561 14.5726782,37.2113171 L14.577698,37.9352195 L14.577698,41.5118049 C14.577698,42.835122 14.5846485,43.1742439 14.6267376,43.7077073 C14.6989455,44.6161951 14.9750347,45.3467317 15.4947772,46.0042927 C16.4303911,47.1925854 17.9293812,47.8177561 19.8504208,47.8177561 C20.7686584,47.8177561 21.6509851,47.6764878 22.330203,47.4236098 C23.0441733,47.1559024 23.7025396,46.7121951 24.1693812,46.1826341 C24.7412525,45.5363902 25.0694703,44.7395122 25.1698663,43.756878 C25.2285594,43.1886829 25.2525,42.5108293 25.2525,41.5258537 L25.2525,37.9383415 L25.2463218,37.2269268 L25.2436188,37.0856585 C25.2436188,36.5479024 25.274896,36.2337561 25.3455594,35.9465366 C25.391896,35.7678049 25.464104,35.5972683 25.5614109,35.4423415 C25.6930842,35.2296585 25.7853713,35.1309268 26.0467871,34.9221463" id="Fill-14"></path>
            <path d="M75.0831861,31.092878 L75.3751069,31.092878 C75.698305,31.092878 76.0693842,30.9683902 76.0693842,30.580878 C76.0693842,30.12 75.7454139,30.0891707 75.3677703,30.0891707 L75.0831861,30.0891707 L75.0831861,31.092878 Z M74.8082554,29.846439 L75.5272455,29.846439 C76.0222752,29.846439 76.3431564,30.0610732 76.3431564,30.580878 C76.3431564,30.9402927 76.0693842,31.1822439 75.7249485,31.227122 L75.7249485,31.2360976 C75.9485228,31.2634146 76.0655228,31.3851707 76.1516317,31.576 L76.6258099,32.6628293 L76.3215327,32.6628293 L75.9180178,31.7114146 C75.762404,31.3469268 75.5755129,31.3363902 75.3110079,31.3363902 L75.0831861,31.3363902 L75.0831861,32.6628293 L74.8082554,32.6628293 L74.8082554,29.846439 Z" id="Fill-16"></path>
            <path d="M75.6258267,33.2952585 C74.5091139,33.2952585 73.5989851,32.3785756 73.5989851,31.2488195 C73.5989851,30.1217951 74.5091139,29.2019902 75.6258267,29.2019902 C76.7421535,29.2019902 77.6495792,30.1217951 77.6495792,31.2488195 C77.6495792,32.3785756 76.7421535,33.2952585 75.6258267,33.2952585 M75.6258267,28.9413073 C74.3654703,28.9413073 73.3402723,29.9762341 73.3402723,31.2488195 C73.3402723,32.5217951 74.3654703,33.5547707 75.6258267,33.5547707 C76.8846386,33.5547707 77.9090644,32.5217951 77.9090644,31.2488195 C77.9090644,29.9762341 76.8846386,28.9413073 75.6258267,28.9413073" id="Fill-18"></path>
        </g>
    </g>
</svg>