<?xml version="1.0" encoding="UTF-8"?>
<svg width="61px" height="64px" viewBox="0 0 61 64" version="1.1" xmlns="http://www.w3.org/2000/svg" xmlns:xlink="http://www.w3.org/1999/xlink">
    <!-- Generator: Sketch 61.2 (89653) - https://sketch.com -->
    <title>usp-icon-ease-of-use</title>
    <desc>Created with Sketch.</desc>
    <defs>
        <linearGradient x1="19.6608269%" y1="0%" x2="80.3391731%" y2="135.675318%" id="linearGradient-1">
            <stop stop-color="#02A0E6" offset="0%"></stop>
            <stop stop-color="#0594D4" offset="100%"></stop>
        </linearGradient>
        <linearGradient x1="31.0317653%" y1="0%" x2="73.8531345%" y2="100%" id="linearGradient-2">
            <stop stop-color="#08D6E5" offset="0%"></stop>
            <stop stop-color="#079CA7" offset="100%"></stop>
        </linearGradient>
    </defs>
    <g id="Page-1" stroke="none" stroke-width="1" fill="none" fill-rule="evenodd">
        <g id="Group-34" fill-rule="nonzero">
            <g id="noun_page_2253175" transform="translate(26.618182, 0.000000)" fill="url(#linearGradient-1)">
                <path d="M33.5593375,44.137931 C34.0085573,44.1285299 34.3708685,43.7704797 34.3818182,43.3251232 L34.3818182,9.2391133 C34.3766413,9.02818094 34.2878523,8.82776411 34.1346864,8.68128079 L25.6132621,0.242660099 C25.4628181,0.0915305512 25.2588902,0.00448422712 25.0447697,0 L0.822480662,0 C0.373260891,0.00940109695 0.0109496599,0.367451368 0,0.812807882 C0,9.52435687 0,16.0580186 0,20.4137931 C0,23.7532461 9.98181818,28.1253726 9.98181818,33.6551724 C9.98181818,35.5892123 8.87272727,38.8125292 6.65454545,43.3251232 C17.7564042,43.7704797 18.1187154,44.1285299 11.9133898,44.137931 L33.5593375,44.137931 Z M25.4640092,31.0344828 C25.903051,31.0344828 26.2589646,31.3873618 26.2589646,31.8226601 C26.2589646,32.2579584 25.903051,32.6108374 25.4640092,32.6108374 L25.4640092,32.6108374 L8.91780893,32.6108374 C8.47876723,32.6108374 8.1228536,32.2579584 8.1228536,31.8226601 C8.1228536,31.3873618 8.47876723,31.0344828 8.91780893,31.0344828 L8.91780893,31.0344828 Z M23.4766209,28.0788177 C23.9156626,28.0788177 24.2715762,28.4316967 24.2715762,28.8669951 C24.2715762,29.3022934 23.9156626,29.6551724 23.4766209,29.6551724 L23.4766209,29.6551724 L10.9051973,29.6551724 C10.4661556,29.6551724 10.1102419,29.3022934 10.1102419,28.8669951 C10.1102419,28.4316967 10.4661556,28.0788177 10.9051973,28.0788177 L10.9051973,28.0788177 Z M25.8360483,2.71320197 L31.6532334,8.4729064 L25.8360483,8.4729064 L25.8360483,2.71320197 Z" id="Shape"></path>
            </g>
            <g id="noun_page_358675" transform="translate(0.000000, 7.724138)">
                <g id="Group">
                    <path d="M26.6730422,0.610141988 C26.7486188,0.610141988 26.8115994,0.644413793 26.8840269,0.653760649 C26.9470075,0.663107505 27.009988,0.67556998 27.0729685,0.691148073 C27.3343377,0.759691684 27.5862597,0.871853955 27.7909464,1.07125355 L27.7909464,1.07125355 L44.5815529,17.6837323 C44.7799416,17.8800162 44.8901575,18.1292657 44.9625851,18.3878621 C44.9783302,18.4532901 44.9940753,18.5187181 45.0035224,18.5872617 C45.0129695,18.6558053 45.0413107,18.715002 45.0413107,18.7866613 L45.0413107,18.7866613 L45.0413107,54.1956673 C45.0413107,55.0555781 44.3390779,55.7534767 43.4667977,55.7534767 L43.4667977,55.7534767 L1.70126623,55.7534767 C0.832135065,55.7534767 0.126753247,55.0555781 0.126753247,54.1956673 L0.126753247,54.1956673 L0.126753247,2.16795132 C0.126753247,1.30804057 0.832135065,0.610141988 1.70126623,0.610141988 L1.70126623,0.610141988 Z M18.6614571,25.4292936 C15.0664444,26.902814 12.7225896,30.3738788 12.7228571,34.2238938 C12.7292724,39.4781902 17.0329871,43.735955 22.3436233,43.7419409 C26.2349201,43.7419409 29.7430424,41.4227129 31.2321154,37.8657376 C32.7211885,34.3087622 31.8979553,30.2145476 29.1462983,27.4922696 C26.3946414,24.7699915 22.2564698,23.9557733 18.6614571,25.4292936 Z M22.3436233,26.7988197 C26.4879878,26.7988197 29.8477838,30.1227978 29.8477838,34.2231957 C29.8477838,38.3235936 26.4883405,41.647728 22.343976,41.6479208 C18.1996115,41.6481136 14.839755,38.3242917 14.8394627,34.2238938 C14.843837,30.1251369 18.2009177,26.8034365 22.3436233,26.7988197 Z M22.2113354,28.7267474 C21.6268509,28.7267474 21.1530326,29.1955391 21.1530326,29.7738229 L21.1530326,33.3077027 L17.8458364,33.3077027 C17.2613519,33.3077027 16.7875336,33.7764944 16.7875336,34.3547782 C16.7875336,34.933062 17.2613519,35.4018537 17.8458364,35.4018537 L21.1530326,35.4018537 L21.1530326,38.6739646 C21.1530326,39.2522485 21.6268509,39.7210401 22.2113354,39.7210401 C22.7958199,39.7210401 23.2696382,39.2522485 23.2696382,38.6739646 L23.2696382,35.4018537 L26.8414101,35.4018537 C27.4258946,35.4018537 27.8997129,34.933062 27.8997129,34.3547782 C27.8997129,33.7764944 27.4258946,33.3077027 26.8414101,33.3077027 L23.2696382,33.3077027 L23.2696382,29.7738229 C23.2696382,29.1955391 22.7958199,28.7267474 22.2113354,28.7267474 Z" id="Shape" fill="url(#linearGradient-2)"></path>
                    <polygon id="Path" fill="#FFFFFF" points="28.2475552 5.93161866 39.6659234 17.2288519 28.2475552 17.2288519 28.2475552 11.3870669"></polygon>
                </g>
            </g>
        </g>
    </g>
</svg>