<?xml version="1.0" encoding="UTF-8"?>
<svg width="20px" height="21px" viewBox="0 0 20 21" version="1.1" xmlns="http://www.w3.org/2000/svg" xmlns:xlink="http://www.w3.org/1999/xlink">
    <!-- Generator: Sketch 53 (72520) - https://sketchapp.com -->
    <title>Group 42</title>
    <desc>Created with Sketch.</desc>
    <g id="Pages-mobile" stroke="none" stroke-width="1" fill="none" fill-rule="evenodd">
        <g id="landingpage" transform="translate(-251.000000, -2024.000000)" fill="#02A0E6">
            <g id="Group-31" transform="translate(251.000000, 1754.000000)">
                <g id="Group-42" transform="translate(0.000000, 270.000000)">
                    <path d="M15.0195312,1.59765625 C16.5559973,2.48307734 17.7701778,3.69400273 18.6621094,5.23046875 C19.5540409,6.76693477 20,8.44009512 20,10.25 C20,12.0599049 19.5540409,13.7330652 18.6621094,15.2695312 C17.7701778,16.8059973 16.5559973,18.0201778 15.0195312,18.9121094 C13.4830652,19.8040409 11.8099049,20.25 10,20.25 C8.19009512,20.25 6.51693477,19.8040409 4.98046875,18.9121094 C3.44400273,18.0201778 2.22982217,16.8059973 1.33789062,15.2695312 C0.445959082,13.7330652 0,12.0599049 0,10.25 C0,8.44009512 0.445959082,6.76693477 1.33789062,5.23046875 C2.22982217,3.69400273 3.44400273,2.47982217 4.98046875,1.58789062 C6.51693477,0.695959082 8.19009512,0.25 10,0.25 C11.8099049,0.25 13.4830652,0.699214258 15.0195312,1.59765625 Z" id="Path" opacity="0.107491629"></path>
                    <path d="M13.984375,6.59765625 C14.0234377,6.55859355 14.0690102,6.5260418 14.1210937,6.5 C14.3945326,6.33072832 14.6484363,6.36328008 14.8828125,6.59765625 C15.0000006,6.71484434 15.0585937,6.86132725 15.0585937,7.03710938 C15.0585937,7.2128915 15.0000006,7.35937441 14.8828125,7.4765625 L8.65234375,13.7460938 C8.62630195,13.7721355 8.60026055,13.798177 8.57421875,13.8242188 C8.45703066,13.9544277 8.31054775,14.0195313 8.13476562,14.0195313 C7.9589835,14.0195313 7.81250059,13.9544277 7.6953125,13.8242188 L4.58984375,10.7382813 C4.56380195,10.6992186 4.53776055,10.6601564 4.51171875,10.6210938 C4.48567695,10.5820311 4.4661459,10.5397138 4.453125,10.4941406 C4.4401041,10.4485675 4.43033857,10.402995 4.42382812,10.3574219 C4.41731768,10.3118487 4.41731768,10.2662763 4.42382812,10.2207031 C4.43033857,10.17513 4.4401041,10.1328127 4.453125,10.09375 C4.4661459,10.0546873 4.48567695,10.01237 4.51171875,9.96679688 C4.53776055,9.92122373 4.56380195,9.8854168 4.58984375,9.859375 C4.72005273,9.72916602 4.86979082,9.6640625 5.0390625,9.6640625 C5.20833418,9.6640625 5.35807227,9.72916602 5.48828125,9.859375 L8.125,12.4960938 L13.984375,6.59765625 Z" id="Path"></path>
                </g>
            </g>
        </g>
    </g>
</svg>