<?xml version="1.0" encoding="UTF-8"?>
<svg width="1440px" height="1024px" viewBox="0 0 1440 1024" version="1.1" xmlns="http://www.w3.org/2000/svg" xmlns:xlink="http://www.w3.org/1999/xlink">
    <!-- Generator: Sketch 54 (76480) - https://sketchapp.com -->
    <title>Group 5</title>
    <desc>Created with Sketch.</desc>
    <defs>
        <radialGradient cx="53.1941732%" cy="50%" fx="53.1941732%" fy="50%" r="76.8885298%" gradientTransform="translate(0.531942,0.500000),scale(0.753472,1.000000),rotate(113.419845),translate(-0.531942,-0.500000)" id="radialGradient-1">
            <stop stop-color="#688DCF" offset="0%"></stop>
            <stop stop-color="#171C50" offset="100%"></stop>
        </radialGradient>
        <path d="M101.968912,57.8226552 C101.968912,-2.05349892 44.448479,0.00856250979 44.448479,0.00856250979 C25.1707323,5.17564915 9.72576401,19.6518455 3.26948663,38.2975112 L1.15055248,46.1066142 C0.395502261,49.8966067 0,53.8130913 0,57.8226552 C0,70.9551701 4.24625782,83.0996143 11.4444016,92.9695852 L18.2410508,100.778688 C25.4631647,107.762012 34.4386725,112.955352 44.448479,115.639134 C44.448479,115.639134 101.968912,117.698809 101.968912,57.8226552 Z" id="path-2"></path>
    </defs>
    <g id="Unhappy-flows" stroke="none" stroke-width="1" fill="none" fill-rule="evenodd">
        <g id="404">
            <g id="Group-5" transform="translate(-28.000000, -408.000000)">
                <polygon id="Rectangle-Copy-9" fill="url(#radialGradient-1)" fill-rule="nonzero" points="28 347 1468 347 1468 1432 28 1432"></polygon>
                <g id="Group-4">
                    <g id="Group" opacity="0.2" fill="#FFFFFF">
                        <circle id="Oval-Copy-15" opacity="0.1" cx="749" cy="749" r="749"></circle>
                        <circle id="Oval-Copy-12" opacity="0.1" cx="749" cy="749" r="532"></circle>
                        <circle id="Oval-Copy-14" opacity="0.1" cx="749" cy="749" r="338"></circle>
                        <circle id="Oval-Copy-13" opacity="0.1" cx="749" cy="749" r="238"></circle>
                        <circle id="Oval" opacity="0.1" cx="749" cy="749" r="148"></circle>
                        <circle id="Oval-Copy-11" opacity="0.1" cx="749" cy="749" r="85"></circle>
                    </g>
                    <g id="Group-3" transform="translate(377.000000, 957.000000)" fill="#36548E" fill-rule="nonzero">
                        <circle id="Oval" opacity="0.512834821" cx="112" cy="8" r="8"></circle>
                        <circle id="Oval-Copy-6" cx="62" cy="16" r="4"></circle>
                        <circle id="Oval-Copy-7" opacity="0.661760603" cx="12" cy="126" r="4"></circle>
                        <circle id="Oval-Copy-5" cx="82" cy="78" r="8"></circle>
                        <circle id="Oval-Copy" opacity="0.425385975" cx="8" cy="24" r="8"></circle>
                    </g>
                    <g id="Group-2" transform="translate(1044.846339, 997.651544)" fill="#36548E" fill-rule="nonzero">
                        <circle id="Oval-Copy-3" opacity="0.512462798" cx="88" cy="122" r="8"></circle>
                        <circle id="Oval-Copy-4" opacity="0.2" cx="148" cy="62" r="8"></circle>
                        <circle id="Oval-Copy-2" cx="64" cy="8" r="8"></circle>
                        <circle id="Oval-Copy-8" cx="4" cy="88" r="4"></circle>
                        <circle id="Oval-Copy-9" opacity="0.512462798" cx="88" cy="27" r="4"></circle>
                        <circle id="Oval-Copy-10" cx="68" cy="77" r="4"></circle>
                    </g>
                    <g id="Group-2-Copy-4" transform="translate(1165.602540, 833.549981) rotate(-120.000000) translate(-1165.602540, -833.549981) translate(1087.602540, 733.549981)" fill="#36548E" fill-rule="nonzero">
                        <circle id="Oval-Copy-3" opacity="0.260649182" cx="48" cy="191.282032" r="8"></circle>
                        <circle id="Oval-Copy-4" opacity="0.149507068" cx="148" cy="62" r="8"></circle>
                        <circle id="Oval-Copy-2" opacity="0.260649182" cx="64" cy="8" r="8"></circle>
                        <circle id="Oval-Copy-8" opacity="0.630440848" cx="4" cy="88" r="4"></circle>
                        <circle id="Oval-Copy-9" opacity="0.260649182" cx="88" cy="27" r="4"></circle>
                        <circle id="Oval-Copy-10" cx="68" cy="77" r="4"></circle>
                        <circle id="Oval-Copy-18" opacity="0.630440848" cx="86.3012702" cy="145.30127" r="4"></circle>
                    </g>
                    <g id="Group-2-Copy" opacity="0.345145089" transform="translate(352.000000, 727.000000)" fill="#36548E" fill-rule="nonzero">
                        <circle id="Oval-Copy-3" cx="88" cy="122" r="8"></circle>
                        <circle id="Oval-Copy-4" cx="148" cy="62" r="8"></circle>
                        <circle id="Oval-Copy-2" cx="64" cy="8" r="8"></circle>
                        <circle id="Oval-Copy-8" cx="4" cy="88" r="4"></circle>
                        <circle id="Oval-Copy-9" cx="88" cy="27" r="4"></circle>
                        <circle id="Oval-Copy-10" cx="68" cy="77" r="4"></circle>
                    </g>
                    <g id="Group-2-Copy-2" opacity="0.345145089" transform="translate(995.000000, 567.000000) rotate(-94.000000) translate(-995.000000, -567.000000) translate(917.000000, 502.000000)" fill="#36548E" fill-rule="nonzero">
                        <circle id="Oval-Copy-3" cx="88" cy="122" r="8"></circle>
                        <circle id="Oval-Copy-4" cx="148" cy="62" r="8"></circle>
                        <circle id="Oval-Copy-2" cx="64" cy="8" r="8"></circle>
                        <circle id="Oval-Copy-8" cx="4" cy="88" r="4"></circle>
                        <circle id="Oval-Copy-9" cx="88" cy="27" r="4"></circle>
                        <circle id="Oval-Copy-10" cx="68" cy="77" r="4"></circle>
                    </g>
                    <g id="Group-2-Copy-3" opacity="0.345145089" transform="translate(485.000000, 567.000000) rotate(-94.000000) translate(-485.000000, -567.000000) translate(407.000000, 502.000000)" fill="#36548E" fill-rule="nonzero">
                        <circle id="Oval-Copy-3" cx="88" cy="122" r="8"></circle>
                        <circle id="Oval-Copy-4" cx="148" cy="62" r="8"></circle>
                        <circle id="Oval-Copy-2" cx="64" cy="8" r="8"></circle>
                        <circle id="Oval-Copy-8" cx="4" cy="88" r="4"></circle>
                        <circle id="Oval-Copy-9" cx="88" cy="27" r="4"></circle>
                        <circle id="Oval-Copy-10" cx="68" cy="77" r="4"></circle>
                    </g>
                </g>
            </g>
        </g>
    </g>
</svg>
