<?xml version="1.0" encoding="UTF-8"?>
<svg width="26px" height="24px" viewBox="0 0 26 24" version="1.1" xmlns="http://www.w3.org/2000/svg" xmlns:xlink="http://www.w3.org/1999/xlink">
    <!-- Generator: Sketch 53 (72520) - https://sketchapp.com -->
    <title>github - FontAwesome</title>
    <desc>Created with Sketch.</desc>
    <g id="Symbols" stroke="none" stroke-width="1" fill="none" fill-rule="evenodd">
        <g id="Regions/Desktop/Header-pp" transform="translate(-1230.000000, -82.000000)" fill="#FFFFFF">
            <g id="navigation">
                <path d="M1255.11719,94.2849166 C1255.11719,96.9649959 1254.32238,99.3754295 1252.73275,101.51629 C1251.14311,103.65715 1249.08964,105.138646 1246.57227,105.960821 C1246.2793,106.014209 1246.065,105.976838 1245.92936,105.848707 C1245.79373,105.720576 1245.72591,105.560414 1245.72591,105.368217 L1245.72591,101.988771 C1245.72591,100.953044 1245.4438,100.194945 1244.87956,99.7144526 C1245.49805,99.6503869 1246.05414,99.5542899 1246.54785,99.4261586 C1247.04156,99.2980273 1247.55154,99.0898171 1248.0778,98.8015217 C1248.60406,98.5132263 1249.04351,98.1582012 1249.39616,97.7364358 C1249.74881,97.3146703 1250.03635,96.7541043 1250.25879,96.0547211 C1250.48123,95.3553378 1250.59245,94.55186 1250.59245,93.6442634 C1250.59245,92.352273 1250.16385,91.252496 1249.30664,90.3448994 C1249.70812,89.3732371 1249.66472,88.2841376 1249.17643,87.077568 C1248.87261,86.9814695 1248.43316,87.0401955 1247.85807,87.2537476 C1247.28298,87.4672998 1246.78386,87.7022036 1246.36068,87.9584662 L1245.74219,88.3428581 C1244.73307,88.0652403 1243.69141,87.9264335 1242.61719,87.9264335 C1241.54296,87.9264335 1240.50131,88.0652403 1239.49219,88.3428581 C1239.31858,88.2254044 1239.088,88.0812589 1238.80046,87.9104172 C1238.51291,87.7395755 1238.0599,87.5340346 1237.44141,87.2937885 C1236.82291,87.0535423 1236.35634,86.9814695 1236.04167,87.077568 C1235.56423,88.2841376 1235.52626,89.3732371 1235.92773,90.3448994 C1235.07053,91.252496 1234.64193,92.352273 1234.64193,93.6442634 C1234.64193,94.55186 1234.75315,95.3526685 1234.97559,96.0467129 C1235.19803,96.7407574 1235.48285,97.3013233 1235.83008,97.7284276 C1236.1773,98.1555319 1236.61404,98.5132263 1237.1403,98.8015217 C1237.66656,99.0898171 1238.17654,99.2980273 1238.67025,99.4261586 C1239.16396,99.5542899 1239.72005,99.6503869 1240.33854,99.7144526 C1239.90451,100.098846 1239.63867,100.648735 1239.54102,101.364135 C1239.31315,101.470911 1239.06901,101.550991 1238.80859,101.60438 C1238.54818,101.657768 1238.23893,101.684461 1237.88086,101.684461 C1237.52278,101.684461 1237.16743,101.569679 1236.81478,101.34011 C1236.46213,101.110542 1236.16103,100.776871 1235.91146,100.339089 C1235.70529,99.997406 1235.44217,99.7197924 1235.12207,99.5062403 C1234.80197,99.2926881 1234.53342,99.1645588 1234.31641,99.1218483 L1233.99089,99.0737993 C1233.76302,99.0737993 1233.60569,99.0978236 1233.51888,99.1458728 C1233.43207,99.1939221 1233.40495,99.2553174 1233.4375,99.3300606 C1233.47005,99.4048039 1233.51888,99.479546 1233.58398,99.5542893 C1233.64909,99.6290325 1233.71962,99.6930972 1233.79557,99.7464852 L1233.90951,99.8265669 C1234.14822,99.9333429 1234.38422,100.136214 1234.61751,100.435187 C1234.8508,100.73416 1235.0217,101.006435 1235.13021,101.25202 L1235.29297,101.620396 C1235.43403,102.026145 1235.67274,102.354476 1236.00911,102.6054 C1236.34549,102.856324 1236.70898,103.016486 1237.09961,103.08589 C1237.49024,103.155295 1237.86729,103.192666 1238.23079,103.198004 C1238.59429,103.203343 1238.8954,103.184658 1239.13411,103.141947 L1239.50846,103.077882 C1239.50846,103.483631 1239.51118,103.958777 1239.5166,104.503335 C1239.52203,105.047893 1239.52474,105.336184 1239.52474,105.368217 C1239.52474,105.560414 1239.45421,105.720576 1239.31315,105.848707 C1239.17209,105.976838 1238.95508,106.014209 1238.66211,105.960821 C1236.14474,105.138646 1234.09126,103.65715 1232.50163,101.51629 C1230.91199,99.3754295 1230.11719,96.9649959 1230.11719,94.2849166 C1230.11719,92.0532968 1230.67599,89.9952189 1231.79362,88.1106213 C1232.91125,86.2260237 1234.42762,84.7338505 1236.34277,83.634057 C1238.25793,82.5342635 1240.34938,81.984375 1242.61719,81.984375 C1244.88499,81.984375 1246.97644,82.5342635 1248.8916,83.634057 C1250.80676,84.7338505 1252.32313,86.2260237 1253.44076,88.1106213 C1254.55838,89.9952189 1255.11719,92.0532968 1255.11719,94.2849166 Z" id="github---FontAwesome"></path>
            </g>
        </g>
    </g>
</svg>