<?xml version="1.0" encoding="UTF-8"?>
<svg xmlns="http://www.w3.org/2000/svg" width="274px" height="111px" viewBox="0 0 274 111">
    <g fill="none">
        <path fill="#A60F38" d="M77.732 39.425c0 6.628 7.61 12 17 12s17-5.372 17-12c0-6.627-7.61-12-17-12s-17 5.373-17 12z"/>
        <path fill="#FF6691" d="M111.971 86.848a141.135 141.135 0 0 1-52.975-.98l-1.066-.23a136.074 136.074 0 0 0-51.487-1.275l-1.045.179-6.398.553v-3.953l5.547-1.137a141.126 141.126 0 0 1 53.41.911l1.053.226a136.235 136.235 0 0 0 51.066 1.339l1.059-.178 19.31-3.295-.016-.063h.023l4.944-.83a155.776 155.776 0 0 1 56.14.911l1.106.227c17.742 3.686 35.703 1.754 45.502 1.7l.409-.001 36.447.12v4.013h-26.895c-12.978 0-37.286 2.476-55.849-1.185l-.75-.151c-17.77-3.7-35.436-4.08-53.355-1.222l-1.097.18-3.618.478-21.465 3.663zm68.564-55.028h-6.644c-23.83-.04-38.044-.527-42.645-1.458a14.9 14.9 0 0 1-.7-.159l-.043.16a48.792 48.792 0 0 1-13.915-5.72l-.64-.394c-6.757-4.264-14.676-6.585-22.794-6.694l-.642-.004h-.461c-8.128-.006-16.082 2.204-22.9 6.365l-.537.333c-7.524 4.77-16.336 7.391-25.388 7.564l-.663.008H-1.179v-4.998l43.73.264c8.034-.042 15.884-2.252 22.625-6.36l.544-.338c7.605-4.819 16.526-7.444 25.677-7.563l.654-.005h.461c9.334-.012 18.46 2.594 26.224 7.488 2.718 1.712 6.068 3.103 9.2 4.177.34.028.713.092 1.118.196l.553.152c4.232 1.077 21.139 1.782 50.718 2.114l33.03-.02 61.466.02v4.873l-94.062-.002-.224.001zM102.642-.22l172.048.04v5.064l-12.103.106c-72.982.618-122.953.572-149.913-.138l-2.564-.071H-1.18v-5h103.821zm117.899 100.338l1.505-.054 1.503-.039c6.224-.128 12.118.178 23.414 1.037l6.007.457 3.384.243c7.278.504 12.042.692 17.283.65l1.34-.016.06 4-1.248.014-1.345.007c-5.798.008-11.262-.273-20.378-.954l-7.924-.601c-11.19-.825-16.636-1.023-23.44-.747-3.693.15-7.206.469-10.616.98-12.905 1.935-24.742 3.337-35.885 4.181l-3.51.254-5.374.37c-16.535 1.096-24.285 1.19-32.128.457l-1.262-.126-1.043-.114c-2.28-.26-4.706-.603-7.642-1.072l-3.642-.604-12.104-2.074c-17.07-2.896-35.467-3.156-48.105.298l-.627.176c-4.866 1.4-11.015 1.96-18.81 1.887-3.61-.035-6.542-.23-10.236-.636l-4.847-.57c-7.945-.936-14.534-1.313-25.264-1.153l-1.562.026-.075-4 1.587-.026 1.693-.021c9.683-.096 16.077.277 23.512 1.134l4.545.539c3.986.457 6.953.671 10.686.707 7.2.068 12.866-.425 17.233-1.61l.433-.121c13.122-3.773 31.993-3.615 49.639-.718l14.754 2.52.534.088c3.94.646 6.929 1.07 9.754 1.366l1.508.147 1.43.12c8.141.627 17.027.325 37.246-1.13 11.436-.824 23.621-2.25 36.97-4.25 3.558-.534 7.214-.867 11.047-1.022zM7.027 48.567l14.901-.362 5.007-.103c10.325-.188 16.69-.126 24.191.25 7.043.353 11.382 2.176 18.8 7.01l2.292 1.508c7.089 4.624 10.993 6.259 17.468 6.586 4.352.22 8.443-.647 13.398-2.631l.717-.292.843-.356c.718-.308 1.476-.646 2.312-1.028l5.945-2.786c9.34-4.345 16.091-6.523 24.806-7.268l.83-.067.909-.063c11.424-.743 30.932.03 52.431 2.574l2.537.308c9.113 1.13 18.41 1.205 29.733.448l2.841-.202c2.184-.165 4.285-.344 7.064-.602l13.357-1.29c11.703-1.105 18.473-1.547 26.198-1.593l1.406-.005v4l-1.802.008-1.33.014c-7.068.103-13.732.572-24.897 1.635l-12.212 1.18-2.349.216c-1.837.165-3.412.295-5.027.417l-1.864.136c-11.686.827-21.294.811-30.7-.283l-3.377-.409-1.676-.195c-21.728-2.492-41.178-3.144-51.731-2.242-7.937.679-14.154 2.632-22.72 6.568l-5.78 2.71-.937.433-.976.442a82.6 82.6 0 0 1-3.064 1.305c-5.45 2.183-10.089 3.166-15.087 2.913-7.333-.37-11.788-2.237-19.405-7.2l-1.355-.893c-7.33-4.857-11.172-6.61-17.38-6.988l-1.708-.085c-8.677-.399-16.219-.364-31.151.002l-11.78.288-3.265.064c-1.221.021-2.363.037-3.507.05l-2.383.02-.027-4 3.53-.034c1.818-.024 3.702-.058 5.974-.108z"/>
    </g>
</svg>
