<?xml version="1.0" encoding="UTF-8"?>
<svg width="21px" height="20px" viewBox="0 0 21 20" version="1.1" xmlns="http://www.w3.org/2000/svg" xmlns:xlink="http://www.w3.org/1999/xlink">
    <!-- Generator: Sketch 53 (72520) - https://sketchapp.com -->
    <title>Assets/Logos/logo-cms-color</title>
    <desc>Created with Sketch.</desc>
    <g id="Pages-desktop" stroke="none" stroke-width="1" fill="none" fill-rule="evenodd">
        <g id="Desktop-HD" transform="translate(-625.000000, -4861.000000)">
            <g id="closing-cta" transform="translate(-111.000000, 4186.000000)">
                <g id="Kunstmaan-CMS" transform="translate(736.000000, 675.000000)">
                    <g id="Assets/Logos/Symbol-cms-color" transform="translate(0.464844, 0.105469)">
                        <g id="Group-11">
                            <path d="M18.6314338,1.20314938 C17.027217,-0.401067425 14.426315,-0.401067425 12.8220982,1.20314938 C11.2178814,2.80736619 11.2178814,5.40833426 12.8220982,7.01255107 L15.7266668,9.91731803 L18.6314338,7.01255107 C20.2357167,5.40833426 20.2357167,2.80736619 18.6314338,1.20314938" id="Fill-1" fill="#02A0E6"></path>
                            <path d="M4.10793618,8.21574013 C5.24207462,8.21574013 6.2691066,7.75597571 7.01230645,7.01277586 L7.01270314,7.01257752 L7.01290148,7.01237917 L8.21586574,5.80941491 L8.21586574,4.10781056 C8.21586574,1.83913699 6.37660975,7.93381211e-05 4.10793618,7.93381211e-05 C1.8392626,7.93381211e-05 6.61151009e-06,1.83913699 6.61151009e-06,4.10781056 C6.61151009e-06,6.37648413 1.8392626,8.21574013 4.10793618,8.21574013" id="Fill-4" fill="#FA1A57"></path>
                            <path d="M18.6610732,12.8581574 L18.6642467,12.8547855 L18.4150589,12.6057299 L15.7266867,9.91729159 L12.8221842,7.01252463 C11.2177029,5.40830782 11.2177029,2.80740586 12.8221842,1.20318905 L9.9174172,4.10795601 L8.21574674,5.80936202 L7.01278248,7.01232628 L7.01258413,7.01252463 L7.01238578,7.01272297 C6.26898759,7.75612117 5.24215396,8.21568723 4.10801552,8.21568723 C1.8391436,8.21568723 8.59496312e-05,6.37662959 8.59496312e-05,4.10795601 L8.59496312e-05,15.7246437 L8.59496312e-05,15.7266933 C8.59496312e-05,14.6753971 0.401140152,13.6241669 1.20324856,12.8220585 C2.80746537,11.2178417 5.40836732,11.2178417 7.01258413,12.8220585 L9.9174172,15.7266933 L12.6057233,18.4150655 L12.8549111,18.6643194 L12.8582169,18.6610137 C14.4650122,20.2314457 17.0386086,20.2243052 18.6315197,18.6313941 C20.2244309,17.0385491 20.2315713,14.4648205 18.6610732,12.8581574" id="Fill-6" fill="#2E2B29"></path>
                            <path d="M1.20326178,12.8220057 C-0.40095503,14.4262886 -0.40095503,17.0271905 1.20326178,18.6313412 C2.80747859,20.2356242 5.40838054,20.2356242 7.01259735,18.6313412 L9.91736431,15.7268387 L7.01259735,12.8220057 C5.40838054,11.2177888 2.80747859,11.2177888 1.20326178,12.8220057" id="Fill-8" fill="#08D6E5"></path>
                        </g>
                    </g>
                </g>
            </g>
        </g>
    </g>
</svg>