<svg width="238px" height="48px" viewBox="0 0 238 48" version="1.1" xmlns="http://www.w3.org/2000/svg" xmlns:xlink="http://www.w3.org/1999/xlink">
    <g id="Symbols" stroke="none" stroke-width="1" fill="none" fill-rule="evenodd">
        <g id="Regions/Desktop/Header-pp" transform="translate(-91.000000, -66.000000)">
            <g id="Assets/Logos/logo-kumacms-negative" transform="translate(91.000000, 66.000000)">
                <g id="Group-33">
                    <path d="M45.0731694,2.911728 C41.1922339,-0.970512 34.9001089,-0.970512 31.0191734,2.911728 C27.1382379,6.793968 27.1382379,13.088208 31.0191734,16.970448 L38.0459315,24.000048 L45.0731694,16.970448 C48.9541048,13.088208 48.9541048,6.793968 45.0731694,2.911728" id="Fill-1" fill="#02A0E6"></path>
                    <path d="M9.93808347,19.882128 C12.6818012,19.882128 15.166406,18.769488 16.9643617,16.970928 L16.9653214,16.970448 L16.9658012,16.969968 L19.876023,14.058768 L19.876023,9.940848 C19.876023,4.450608 15.4264786,4.8e-05 9.93808347,4.8e-05 C4.44968831,4.8e-05 0.000143951613,4.450608 0.000143951613,9.940848 C0.000143951613,15.431088 4.44968831,19.882128 9.93808347,19.882128" id="Fill-3" fill="#FA1A57"></path>
                    <path d="M45.1448573,31.116864 L45.1530145,31.108704 L44.5498573,30.505824 L38.0461234,23.999904 L31.0193653,16.970304 C27.1384298,13.088064 27.1384298,6.793824 31.0193653,2.911584 L23.9921274,9.941184 L19.8755911,14.058624 L16.9653694,16.969824 L16.9648895,16.970304 L16.9644097,16.970784 C15.1659742,18.769824 12.6818492,19.881984 9.93813145,19.881984 C4.44925645,19.881984 0.000191935484,15.431424 0.000191935484,9.941184 L0.000191935484,38.053824 L0.000191935484,38.058624 C0.000191935484,35.514624 0.970425806,32.970624 2.91089355,31.029504 C6.79182903,27.147264 13.0844339,27.147264 16.9648895,31.029504 L23.9921274,38.058624 L30.4958613,44.564544 L31.0990185,45.167904 L31.106696,45.159744 C34.9938694,48.960384 41.2197766,48.943104 45.0733613,45.088224 C48.926946,41.233344 48.9442202,35.004864 45.1448573,31.116864" id="Fill-5" fill="#2BBEFF"></path>
                    <path d="M2.91108548,31.029456 C-0.96985,34.911696 -0.96985,41.205936 2.91108548,45.088176 C6.79202097,48.970416 13.084146,48.970416 16.9650815,45.088176 L23.9923194,38.059056 L16.9650815,31.029456 C13.084146,27.147216 6.79202097,27.147216 2.91108548,31.029456" id="Fill-7" fill="#08D6E5"></path>
                    <polygon id="Fill-9" fill="#FFFFFF" points="78.540048 33.65424 76.0453665 33.65424 69.308431 27.20304 69.308431 33.65424 67.3314956 33.65424 67.3314956 19.98384 69.308431 19.98384 69.308431 26.20464 75.7569835 19.98384 78.1945641 19.98384 71.3040802 26.58864"></polygon>
                    <path d="M89.7107891,23.977344 L89.7107891,33.654144 L87.8293415,33.654144 L87.8293415,32.041344 C87.5222448,32.604864 87.1004665,33.036864 86.5625673,33.337344 C86.025148,33.638304 85.4176722,33.788544 84.7396601,33.788544 C82.410523,33.788544 81.2459544,32.495904 81.2459544,29.910144 L81.2459544,23.977344 L83.1653093,23.977344 L83.1653093,29.890944 C83.1653093,30.684864 83.3284544,31.270464 83.6552246,31.647744 C83.9815149,32.025504 84.4771883,32.214144 85.1422448,32.214144 C85.935898,32.214144 86.572644,31.958304 87.0524827,31.446144 C87.5323214,30.934464 87.7722407,30.255744 87.7722407,29.410944 L87.7722407,23.977344 L89.7107891,23.977344 Z" id="Fill-11" fill="#FFFFFF"></path>
                    <path d="M103.088165,27.625392 L103.088165,33.654192 L101.149616,33.654192 L101.149616,27.740592 C101.149616,26.895792 100.986471,26.281392 100.660181,25.897392 C100.33389,25.513392 99.8123056,25.321392 99.0959065,25.321392 C98.2773016,25.321392 97.6208823,25.577712 97.1285677,26.089392 C96.6357734,26.601552 96.3896161,27.286512 96.3896161,28.143792 L96.3896161,33.654192 L94.4702613,33.654192 L94.4702613,26.703792 C94.4702613,25.692912 94.4193984,24.783792 94.3167129,23.977392 L96.1209065,23.977392 L96.2936484,25.647792 C96.6007452,25.033392 97.0450758,24.562992 97.6276,24.236592 C98.2096444,23.910192 98.8718218,23.746992 99.6141323,23.746992 C101.929834,23.746992 103.088165,25.040112 103.088165,27.625392" id="Fill-13" fill="#FFFFFF"></path>
                    <path d="M107.156957,32.559936 L107.732763,31.158336 C108.743783,31.926336 109.902114,32.310336 111.206796,32.310336 C111.871852,32.310336 112.377602,32.198496 112.723566,31.974336 C113.06857,31.750176 113.241792,31.433376 113.241792,31.023936 C113.241792,30.678336 113.123271,30.406656 112.886231,30.207936 C112.649191,30.009696 112.249485,29.839776 111.686634,29.699136 L110.074376,29.315136 C109.22986,29.136096 108.586876,28.819296 108.145904,28.364736 C107.704453,27.910176 107.483727,27.343776 107.483727,26.665536 C107.483727,25.795296 107.83161,25.091136 108.529296,24.553536 C109.226501,24.015936 110.15115,23.747136 111.303243,23.747136 C111.993731,23.747136 112.649191,23.856096 113.270102,24.073536 C113.890533,24.290976 114.418836,24.598656 114.85357,24.995136 L114.25905,26.358336 C113.324804,25.616256 112.339695,25.244736 111.303243,25.244736 C110.675614,25.244736 110.189537,25.363296 109.844533,25.599936 C109.49857,25.837056 109.326308,26.166336 109.326308,26.588736 C109.326308,26.921376 109.434271,27.190176 109.652118,27.395136 C109.869485,27.600096 110.214969,27.759936 110.68857,27.875136 L112.339695,28.278336 C113.260985,28.483296 113.942356,28.806336 114.383808,29.247936 C114.824779,29.689536 115.045505,30.262176 115.045505,30.966336 C115.045505,31.837056 114.697142,32.524896 113.999937,33.030336 C113.302251,33.536256 112.351691,33.788736 111.149215,33.788736 C109.460662,33.788736 108.12911,33.379296 107.156957,32.559936" id="Fill-15" fill="#FFFFFF"></path>
                    <path d="M121.667423,25.474992 L121.667423,30.332592 C121.667423,30.998352 121.811375,31.468752 122.098798,31.743792 C122.387181,32.019312 122.786887,32.156592 123.298395,32.156592 C123.631403,32.156592 123.970649,32.105712 124.316133,32.002992 L124.316133,33.577392 C123.893875,33.718032 123.414036,33.788592 122.876617,33.788592 C121.878073,33.788592 121.104093,33.507312 120.554198,32.943792 C120.003823,32.380752 119.728875,31.561392 119.728875,30.486192 L119.728875,25.474992 L117.847907,25.474992 L117.847907,23.977392 L119.728875,23.977392 L119.728875,21.558192 L121.667423,20.886192 L121.667423,23.977392 L124.335327,23.977392 L124.335327,25.474992 L121.667423,25.474992 Z" id="Fill-17" fill="#FFFFFF"></path>
                    <path d="M142.300008,27.625392 L142.300008,33.654192 L140.36146,33.654192 L140.36146,27.721392 C140.36146,26.889552 140.217508,26.281392 139.930085,25.897392 C139.641702,25.513392 139.177698,25.321392 138.538073,25.321392 C137.795762,25.321392 137.210839,25.577712 136.781863,26.089392 C136.352887,26.601552 136.138879,27.298992 136.138879,28.182192 L136.138879,33.654192 L134.200331,33.654192 L134.200331,27.721392 C134.200331,26.889552 134.056379,26.281392 133.768956,25.897392 C133.480573,25.513392 133.016569,25.321392 132.376944,25.321392 C131.634633,25.321392 131.046351,25.577712 130.611617,26.089392 C130.175923,26.601552 129.958556,27.298992 129.958556,28.182192 L129.958556,33.654192 L128.039202,33.654192 L128.039202,26.703792 C128.039202,25.692912 127.988339,24.783792 127.885653,23.977392 L129.690327,23.977392 L129.862589,25.590192 C130.144254,25.001712 130.547319,24.547152 131.072262,24.226992 C131.596246,23.907312 132.210919,23.746992 132.914363,23.746992 C134.41194,23.746992 135.39081,24.368112 135.851456,25.609392 C136.145597,25.033392 136.576972,24.579312 137.14702,24.246192 C137.715629,23.913552 138.358613,23.746992 139.075492,23.746992 C141.225649,23.746992 142.300008,25.040112 142.300008,27.625392" id="Fill-19" fill="#FFFFFF"></path>
                    <path d="M153.211636,31.340688 C153.691475,30.732528 153.931394,29.878608 153.931394,28.777488 C153.931394,27.663888 153.691475,26.806608 153.211636,26.204688 C152.731798,25.603248 152.050427,25.302288 151.167044,25.302288 C150.297096,25.302288 149.615725,25.612848 149.122931,26.233488 C148.630616,26.854608 148.383979,27.715248 148.383979,28.815888 C148.383979,29.904048 148.630616,30.748848 149.122931,31.350288 C149.615725,31.951728 150.303334,32.252688 151.186237,32.252688 C152.056665,32.252688 152.731798,31.948848 153.211636,31.340688 L153.211636,31.340688 Z M155.850749,23.977488 L155.850749,33.654288 L153.931394,33.654288 L153.931394,32.003088 C153.649729,32.579088 153.23083,33.020688 152.674217,33.327888 C152.117604,33.635088 151.467902,33.788688 150.725592,33.788688 C149.8686,33.788688 149.116693,33.583728 148.47035,33.174288 C147.824007,32.764848 147.322096,32.185488 146.963656,31.436688 C146.605217,30.687888 146.426237,29.814288 146.426237,28.815888 C146.426237,27.817488 146.608576,26.934288 146.973733,26.166288 C147.33841,25.398288 147.84656,24.803088 148.49962,24.380688 C149.152201,23.958288 149.894031,23.747088 150.725592,23.747088 C151.467902,23.747088 152.114245,23.904048 152.66414,24.217488 C153.214515,24.530928 153.636773,24.975888 153.931394,25.551888 L153.931394,23.977488 L155.850749,23.977488 Z" id="Fill-21" fill="#FFFFFF"></path>
                    <path d="M166.819574,31.340688 C167.299413,30.732528 167.539332,29.878608 167.539332,28.777488 C167.539332,27.663888 167.299413,26.806608 166.819574,26.204688 C166.339735,25.603248 165.658365,25.302288 164.774981,25.302288 C163.905034,25.302288 163.223663,25.612848 162.730869,26.233488 C162.238554,26.854608 161.991917,27.715248 161.991917,28.815888 C161.991917,29.904048 162.238554,30.748848 162.730869,31.350288 C163.223663,31.951728 163.911272,32.252688 164.794175,32.252688 C165.664602,32.252688 166.339735,31.948848 166.819574,31.340688 L166.819574,31.340688 Z M169.458687,23.977488 L169.458687,33.654288 L167.539332,33.654288 L167.539332,32.003088 C167.257667,32.579088 166.838768,33.020688 166.282155,33.327888 C165.725542,33.635088 165.07584,33.788688 164.33353,33.788688 C163.476538,33.788688 162.724631,33.583728 162.078288,33.174288 C161.431945,32.764848 160.930034,32.185488 160.571594,31.436688 C160.213155,30.687888 160.034175,29.814288 160.034175,28.815888 C160.034175,27.817488 160.216514,26.934288 160.581671,26.166288 C160.946348,25.398288 161.454498,24.803088 162.107558,24.380688 C162.760139,23.958288 163.501969,23.747088 164.33353,23.747088 C165.07584,23.747088 165.722183,23.904048 166.272078,24.217488 C166.822453,24.530928 167.244711,24.975888 167.539332,25.551888 L167.539332,23.977488 L169.458687,23.977488 Z" id="Fill-23" fill="#FFFFFF"></path>
                    <path d="M182.836062,27.625392 L182.836062,33.654192 L180.897514,33.654192 L180.897514,27.740592 C180.897514,26.895792 180.734369,26.281392 180.408079,25.897392 C180.081788,25.513392 179.560204,25.321392 178.843804,25.321392 C178.0252,25.321392 177.36878,25.577712 176.876466,26.089392 C176.383671,26.601552 176.137514,27.286512 176.137514,28.143792 L176.137514,33.654192 L174.218159,33.654192 L174.218159,26.703792 C174.218159,25.692912 174.167296,24.783792 174.064611,23.977392 L175.868804,23.977392 L176.041546,25.647792 C176.348643,25.033392 176.792974,24.562992 177.375498,24.236592 C177.957542,23.910192 178.61972,23.746992 179.36203,23.746992 C181.677732,23.746992 182.836062,25.040112 182.836062,27.625392" id="Fill-25" fill="#FFFFFF"></path>
                    <path d="M197.298209,32.95344 C196.319338,32.38368 195.567431,31.5744 195.042967,30.52464 C194.518024,29.47536 194.256032,28.2336 194.256032,26.79984 C194.256032,25.37904 194.518024,24.144 195.042967,23.09424 C195.567431,22.04496 196.319338,21.23856 197.298209,20.67504 C198.27708,20.112 199.425334,19.83024 200.743451,19.83024 C201.677217,19.83024 202.544286,19.97424 203.344177,20.26224 C204.143588,20.55024 204.818721,20.96976 205.369096,21.51984 L204.678129,22.97904 C204.038024,22.4544 203.407996,22.07328 202.787084,21.83664 C202.166653,21.6 201.492,21.48144 200.762645,21.48144 C199.342322,21.48144 198.244931,21.94224 197.470471,22.86384 C196.696492,23.78544 196.309262,25.09776 196.309262,26.79984 C196.309262,28.51536 196.696492,29.8368 197.470471,30.76464 C198.244931,31.69296 199.342322,32.15664 200.762645,32.15664 C201.492,32.15664 202.166653,32.03856 202.787084,31.80144 C203.407996,31.5648 204.038024,31.18368 204.678129,30.65904 L205.369096,32.11824 C204.818721,32.6688 204.143588,33.08784 203.344177,33.37584 C202.544286,33.66384 201.677217,33.80784 200.743451,33.80784 C199.425334,33.80784 198.27708,33.5232 197.298209,32.95344" id="Fill-27" fill="#FFFFFF"></path>
                    <polygon id="Fill-29" fill="#FFFFFF" points="221.280308 19.98384 222.872893 19.98384 222.872893 33.65424 221.088373 33.65424 221.088373 24.26544 217.038534 33.65424 215.675312 33.65424 211.568373 24.32304 211.587566 33.65424 209.802566 33.65424 209.802566 19.98384 211.395151 19.98384 216.36676 31.27344"></polygon>
                    <path d="M229.562228,33.385392 C228.685563,33.104112 227.927418,32.681712 227.287793,32.118192 L227.997954,30.658992 C228.66301,31.196592 229.353978,31.587312 230.070857,31.830192 C230.787256,32.073552 231.593385,32.194992 232.489244,32.194992 C233.51274,32.194992 234.305914,32.002992 234.869244,31.618992 C235.432095,31.234992 235.71376,30.691152 235.71376,29.986992 C235.71376,29.398512 235.451289,28.953552 234.926825,28.652592 C234.401881,28.352112 233.570801,28.073712 232.431184,27.817392 C231.343869,27.586992 230.454728,27.321552 229.76376,27.020592 C229.072313,26.720112 228.528656,26.316912 228.132309,25.810992 C227.735482,25.305552 227.537309,24.656112 227.537309,23.862192 C227.537309,23.068752 227.748438,22.367952 228.170696,21.759792 C228.592474,21.152112 229.191313,20.678352 229.965293,20.338992 C230.739273,20.000112 231.631773,19.830192 232.642793,19.830192 C233.60247,19.830192 234.501208,19.977552 235.339486,20.271792 C236.177285,20.566512 236.877849,20.982192 237.44118,21.519792 L236.730539,22.978992 C236.103869,22.454352 235.457527,22.066992 234.79247,21.817392 C234.126934,21.567792 233.416773,21.442992 232.661986,21.442992 C231.676398,21.442992 230.902418,21.651312 230.339567,22.066992 C229.776236,22.483152 229.495051,23.049552 229.495051,23.766192 C229.495051,24.380592 229.741208,24.848112 230.234002,25.167792 C230.726317,25.487952 231.516611,25.775952 232.604406,26.031792 C233.743063,26.288112 234.664353,26.556912 235.368277,26.838192 C236.07172,27.119952 236.635051,27.503952 237.057309,27.990192 C237.479567,28.476912 237.690216,29.103792 237.690216,29.871792 C237.690216,30.665712 237.479567,31.356912 237.057309,31.945392 C236.635051,32.534352 236.029974,32.991792 235.243519,33.318192 C234.456583,33.644592 233.531934,33.807792 232.470051,33.807792 C231.407688,33.807792 230.438414,33.666672 229.562228,33.385392" id="Fill-31" fill="#FFFFFF"></path>
                </g>
            </g>
        </g>
    </g>
</svg>
