<svg width="48" height="48" viewBox="0 0 48 48" xmlns="http://www.w3.org/2000/svg"><g id="Symbols" stroke="none" stroke-width="1" fill="none" fill-rule="evenodd"><g id="Assets/Logos/Icon-kumacms-negative"><g id="Group-33"><path d="M45.073 2.912c-3.88-3.883-10.173-3.883-14.054 0-3.88 3.882-3.88 10.176 0 14.058L38.046 24l7.027-7.03c3.881-3.882 3.881-10.176 0-14.058" id="Fill-1" fill="#02A0E6"/><path d="M9.938 19.882a9.905 9.905 0 0 0 7.026-2.911h.001v-.001l2.911-2.911V9.94c0-5.49-4.45-9.94-9.938-9.94S0 4.45 0 9.94c0 5.491 4.45 9.942 9.938 9.942" id="Fill-3" fill="#FA1A57"/><path d="M45.145 31.117l.008-.008-.603-.603L38.046 24l-7.027-7.03c-3.88-3.882-3.88-10.176 0-14.058l-7.027 7.03-4.116 4.117-2.91 2.91-.001.001a9.904 9.904 0 0 1-7.027 2.912C4.45 19.882 0 15.432 0 9.942v28.116c0-2.544.97-5.088 2.91-7.03 3.882-3.882 10.174-3.882 14.055 0l7.027 7.03 6.504 6.506.603.603.008-.008c3.887 3.8 10.113 3.783 13.966-.072 3.854-3.855 3.871-10.083.072-13.971" id="Fill-5" fill="#2BBEFF"/><path d="M2.911 31.03c-3.88 3.882-3.88 10.176 0 14.058 3.881 3.882 10.173 3.882 14.054 0l7.027-7.029-7.027-7.03c-3.88-3.882-10.173-3.882-14.054 0" id="Fill-7" fill="#08D6E5"/></g></g></g></svg>