<?xml version="1.0" encoding="UTF-8"?>
<svg width="158px" height="158px" viewBox="0 0 158 158" version="1.1" xmlns="http://www.w3.org/2000/svg" xmlns:xlink="http://www.w3.org/1999/xlink">
    <!-- Generator: Sketch 53 (72520) - https://sketchapp.com -->
    <title>Group 13</title>
    <desc>Created with Sketch.</desc>
    <g id="Pages-desktop" stroke="none" stroke-width="1" fill="none" fill-rule="evenodd">
        <g id="Desktop-HD" transform="translate(-5.000000, -948.000000)">
            <g id="Group" transform="translate(-21.000000, 0.000000)">
                <g id="Group-13" transform="translate(26.000000, 948.000000)">
                    <polygon id="Path" fill="#A39D9D" points="43.0909091 104.733028 63.4393942 84.3863636 73.6136364 94.5596962 53.2651513 114.909091"></polygon>
                    <polygon id="Path" fill="#A39D9D" points="84.3863636 61.6439396 104.734849 41.2954545 114.909091 51.4696967 94.5606065 71.8181818"></polygon>
                    <path d="M63.9233326,94.0761883 C72.5483815,102.701877 86.5340413,102.701877 95.1590909,94.0761883 L86.4809388,71.5169096 L63.9233326,62.8409091 C55.2982831,71.4665974 55.2982831,85.4504993 63.9233326,94.0761883 L63.9233326,94.0761883 Z" id="Path" fill="#ECA3B7"></path>
                    <path d="M62.8409091,62.1283576 L94.0766678,93.3636364 C102.701717,84.7379474 102.701717,70.7540458 94.0766678,62.1283576 C85.4516181,53.5026687 71.4659581,53.5026687 62.8409091,62.1283576 Z" id="Path" fill="#EEB9C8"></path>
                    <polygon id="Path" fill="#E7E9EA" points="70.0227273 119.486654 31.5122009 158 0 126.490619 38.5133459 87.9772727"></polygon>
                    <polygon id="Path" fill="#E6EAEC" points="87.9772727 38.5133463 126.490619 0 158 31.5122012 119.489474 70.0227273"></polygon>
                </g>
            </g>
        </g>
    </g>
</svg>