<?xml version="1.0" encoding="UTF-8"?>
<svg width="25px" height="24px" viewBox="0 0 25 24" version="1.1" xmlns="http://www.w3.org/2000/svg" xmlns:xlink="http://www.w3.org/1999/xlink">
    <!-- Generator: Sketch 53.2 (72643) - https://sketchapp.com -->
    <title>slack - FontAwesome</title>
    <desc>Created with Sketch.</desc>
    <g id="Symbols" stroke="none" stroke-width="1" fill="none" fill-rule="evenodd">
        <g id="Regions/Desktop/Header-pp" transform="translate(-1279.000000, -82.000000)" fill="#FFFFFF">
            <g id="navigation" transform="translate(785.000000, 55.000000)">
                <path d="M516.025841,38.1766827 C516.621998,38.1766827 517.119589,38.3713923 517.51863,38.7608173 C517.91767,39.1502423 518.117187,39.6382182 518.117187,40.2247596 C518.117187,41.1574566 517.670077,41.7824503 516.775841,42.0997596 L514.295072,42.9507212 L515.102764,45.359375 C515.170072,45.5612991 515.203726,45.7872584 515.203726,46.0372596 C515.203726,46.6045701 515.001805,47.0949499 514.597957,47.5084135 C514.194109,47.9218771 513.708536,48.1286058 513.141226,48.1286058 C512.689301,48.1286058 512.278247,47.9987994 511.908053,47.7391827 C511.537859,47.479566 511.28065,47.1334156 511.136418,46.7007212 L510.343149,44.3209135 L505.871995,45.8497596 L506.665264,48.2151442 C506.742188,48.4459146 506.780649,48.6718739 506.780649,48.8930288 C506.780649,49.4603394 506.578728,49.9507191 506.17488,50.3641827 C505.771032,50.7776463 505.280652,50.984375 504.703726,50.984375 C504.251801,50.984375 503.843151,50.8545686 503.477764,50.5949519 C503.112378,50.3353352 502.857573,49.9891849 502.713341,49.5564904 L501.920072,47.2055288 L499.713341,47.9699519 C499.434494,48.0564908 499.194112,48.0997596 498.992187,48.0997596 C498.405646,48.0997596 497.91767,47.9074538 497.528245,47.5228365 C497.13882,47.1382192 496.944111,46.6526472 496.944111,46.0661058 C496.944111,45.6141804 497.076321,45.2055307 497.340745,44.8401442 C497.60517,44.4747578 497.948916,44.2199526 498.371995,44.0757212 L500.621995,43.3112981 L499.107572,38.796875 L496.857572,39.5757212 C496.607571,39.6526446 496.376804,39.6911058 496.165264,39.6911058 C495.588338,39.6911058 495.102766,39.4963962 494.708534,39.1069712 C494.314301,38.7175461 494.117188,38.2343779 494.117188,37.6574519 C494.117188,37.2055266 494.249398,36.7968768 494.513822,36.4314904 C494.778247,36.0661039 495.121993,35.8112988 495.545072,35.6670673 L497.809495,34.9026442 L497.045072,32.609375 C496.968149,32.3786046 496.929688,32.1526453 496.929688,31.9314904 C496.929688,31.3545644 497.131609,30.8617809 497.535457,30.453125 C497.939305,30.0444691 498.429685,29.8401442 499.006611,29.8401442 C499.458536,29.8401442 499.867186,29.9699506 500.232572,30.2295673 C500.597959,30.489184 500.852764,30.8353344 500.996995,31.2680288 L501.775841,33.5757212 L506.246995,32.0612981 L505.468149,29.7536058 C505.391226,29.5228354 505.352764,29.2968761 505.352764,29.0757212 C505.352764,28.5084106 505.557089,28.0180309 505.965745,27.6045673 C506.374401,27.1911037 506.862377,26.984375 507.429687,26.984375 C507.881613,26.984375 508.292666,27.1165852 508.662861,27.3810096 C509.033055,27.645434 509.290264,27.9891806 509.434495,28.4122596 L510.198918,30.734375 L512.535457,29.9411058 C512.737381,29.8834132 512.94411,29.8545673 513.155649,29.8545673 C513.732575,29.8545673 514.225359,30.0444693 514.634014,30.4242788 C515.04267,30.8040884 515.246995,31.2776414 515.246995,31.8449519 C515.246995,32.2776464 515.102766,32.6694694 514.814303,33.0204327 C514.52584,33.371396 514.170074,33.6189897 513.746995,33.7632212 L511.482572,34.5420673 L512.996995,39.0997596 L515.36238,38.2920673 C515.59315,38.2151438 515.814302,38.1766827 516.025841,38.1766827 Z M504.573918,41.9555288 L509.045072,40.4411058 L507.530649,35.8978365 L503.059495,37.4411058 L504.573918,41.9555288 Z" id="slack---FontAwesome"></path>
            </g>
        </g>
    </g>
</svg>