<?xml version="1.0" encoding="UTF-8"?>
<svg width="76px" height="70px" viewBox="0 0 76 70" version="1.1" xmlns="http://www.w3.org/2000/svg" xmlns:xlink="http://www.w3.org/1999/xlink">
    <!-- Generator: Sketch 53 (72520) - https://sketchapp.com -->
    <title>Group 36</title>
    <desc>Created with Sketch.</desc>
    <g id="Pages-mobile" stroke="none" stroke-width="1" fill="none" fill-rule="evenodd">
        <g id="landingpage" transform="translate(-994.000000, -1020.000000)" fill="#F2F2F2">
            <g id="Group-44" transform="translate(250.000000, 968.000000)">
                <g id="Group-39" transform="translate(107.000000, 28.000000)">
                    <g id="Group-12-Copy-2">
                        <g id="numbers">
                            <g id="Group-5">
                                <g id="Group-4">
                                    <g id="Group-37" transform="translate(571.000000, 24.000000)">
                                        <g id="Group-36" transform="translate(66.000000, 0.000000)">
                                            <g id="001-download">
                                                <path d="M73.6974576,34.1430206 C72.4898305,34.1430206 71.5237288,35.104119 71.5237288,36.305492 L71.5237288,55.9759725 C71.5237288,61.326087 67.1440678,65.6670481 61.7822034,65.6670481 L14.0889831,65.6670481 C8.71101695,65.6670481 4.34745763,61.3100686 4.34745763,55.9759725 L4.34745763,35.9851259 C4.34745763,34.7837529 3.38135593,33.8226545 2.17372881,33.8226545 C0.966101695,33.8226545 0,34.7837529 0,35.9851259 L0,55.9759725 C0,63.7128146 6.3279661,69.9919908 14.0889831,69.9919908 L61.7822034,69.9919908 C69.559322,69.9919908 75.8711864,63.6967963 75.8711864,55.9759725 L75.8711864,36.305492 C75.8711864,35.1201373 74.9050847,34.1430206 73.6974576,34.1430206 Z" id="Path"></path>
                                                <path d="M36.4059322,52.8203661 C36.8245763,53.2368421 37.3881356,53.4610984 37.9355932,53.4610984 C38.4830508,53.4610984 39.0466102,53.2528604 39.4652542,52.8203661 L53.2805085,39.076659 C54.1338983,38.2276888 54.1338983,36.8661327 53.2805085,36.0171625 C52.4271186,35.1681922 51.0584746,35.1681922 50.2050847,36.0171625 L40.109322,46.076659 L40.109322,2.20251716 C40.109322,1.00114416 39.1432203,0.0400457666 37.9355932,0.0400457666 C36.7279661,0.0400457666 35.7618644,1.00114416 35.7618644,2.20251716 L35.7618644,46.076659 L25.65,36.0171625 C24.7966102,35.1681922 23.4279661,35.1681922 22.5745763,36.0171625 C21.7211864,36.8661327 21.7211864,38.2276888 22.5745763,39.076659 L36.4059322,52.8203661 Z" id="Path"></path>
                                            </g>
                                        </g>
                                    </g>
                                </g>
                            </g>
                        </g>
                    </g>
                </g>
            </g>
        </g>
    </g>
</svg>