<svg xmlns="http://www.w3.org/2000/svg" xmlns:xlink="http://www.w3.org/1999/xlink" viewBox="0 0 160.07 81.55">
  <defs>
    <style>
      .cls-1, .cls-2, .cls-5 {
        fill: #fff;
      }

      .cls-1, .cls-3, .cls-5, .cls-6, .cls-7 {
        stroke-miterlimit: 10;
      }

      .cls-1, .cls-3, .cls-5, .cls-6 {
        stroke-width: 2px;
      }

      .cls-1 {
        stroke: url(#linear-gradient);
      }

      .cls-3 {
        fill: url(#linear-gradient-2);
        stroke: url(#linear-gradient-3);
      }

      .cls-4, .cls-6, .cls-7 {
        fill: none;
      }

      .cls-5 {
        stroke: url(#linear-gradient-4);
      }

      .cls-6 {
        stroke: url(#linear-gradient-5);
      }

      .cls-7 {
        stroke: #000;
        stroke-width: 0.75px;
      }
    </style>
    <linearGradient id="linear-gradient" x1="123.66" y1="36.37" x2="123.66" y2="81.55" gradientUnits="userSpaceOnUse">
      <stop offset="0" stop-color="#05cef4"/>
      <stop offset="1" stop-color="#02a0e6"/>
    </linearGradient>
    <linearGradient id="linear-gradient-2" x1="123.66" y1="26.32" x2="123.66" y2="63.6" xlink:href="#linear-gradient"/>
    <linearGradient id="linear-gradient-3" x1="123.66" y1="25.32" x2="123.66" y2="64.6" xlink:href="#linear-gradient"/>
    <linearGradient id="linear-gradient-4" x1="123.66" y1="14.29" x2="123.66" y2="47.63" xlink:href="#linear-gradient"/>
    <linearGradient id="linear-gradient-5" x1="123.66" y1="2" x2="123.66" y2="31.92" xlink:href="#linear-gradient"/>
  </defs>
  <title>stack-layer-3</title>
  <g id="Layer_2" data-name="Layer 2">
    <g id="Layer_1-2" data-name="Layer 1">
      <g>
        <path class="cls-1" d="M122.68,80.28,89.2,60.62a1.92,1.92,0,0,1,0-3.33l33.48-19.65a1.9,1.9,0,0,1,1.95,0l33.49,19.65a1.93,1.93,0,0,1,0,3.33L124.63,80.28A1.9,1.9,0,0,1,122.68,80.28Z"/>
        <g>
          <path class="cls-2" d="M123.66,26.32a1.93,1.93,0,0,1,.93.25l28.61,16.8a1.85,1.85,0,0,1,0,3.18L124.59,63.34a1.81,1.81,0,0,1-1.87,0L94.12,46.55a1.84,1.84,0,0,1,0-3.18l28.6-16.8a1.94,1.94,0,0,1,.94-.25m0-3a4.86,4.86,0,0,0-2.46.67L92.6,40.78a4.85,4.85,0,0,0,0,8.36l28.6,16.79a4.86,4.86,0,0,0,2.46.67,4.8,4.8,0,0,0,2.45-.67l28.6-16.79a4.84,4.84,0,0,0,0-8.36L126.11,24a4.8,4.8,0,0,0-2.45-.67Z"/>
          <path class="cls-3" d="M122.72,63.34,94.12,46.55a1.84,1.84,0,0,1,0-3.18l28.6-16.8a1.89,1.89,0,0,1,1.87,0l28.61,16.8a1.85,1.85,0,0,1,0,3.18L124.59,63.34A1.84,1.84,0,0,1,122.72,63.34Z"/>
          <path class="cls-4" d="M122.72,63.34,94.12,46.55a1.84,1.84,0,0,1,0-3.18l28.6-16.8a1.89,1.89,0,0,1,1.87,0l28.61,16.8a1.85,1.85,0,0,1,0,3.18L124.59,63.34A1.84,1.84,0,0,1,122.72,63.34Z"/>
        </g>
        <path class="cls-4" d="M122.68,80.28,89.2,60.62a1.92,1.92,0,0,1,0-3.33l33.48-19.65a1.9,1.9,0,0,1,1.95,0l33.49,19.65a1.93,1.93,0,0,1,0,3.33L124.63,80.28A1.9,1.9,0,0,1,122.68,80.28Z"/>
        <path class="cls-2" d="M123.66,15.29a1.59,1.59,0,0,1,.84.23l23.85,14a1.67,1.67,0,0,1,0,2.88l-23.85,14a1.67,1.67,0,0,1-1.69,0L99,32.4a1.67,1.67,0,0,1,0-2.88l23.85-14a1.6,1.6,0,0,1,.85-.23m0-4a5.74,5.74,0,0,0-2.88.78l-23.84,14a5.67,5.67,0,0,0,0,9.78l23.84,14a5.69,5.69,0,0,0,5.75,0l23.85-14a5.67,5.67,0,0,0,0-9.78l-23.85-14a5.67,5.67,0,0,0-2.87-.78Z"/>
        <path class="cls-5" d="M122.81,46.4,99,32.4a1.67,1.67,0,0,1,0-2.88l23.85-14a1.65,1.65,0,0,1,1.69,0l23.85,14a1.67,1.67,0,0,1,0,2.88l-23.85,14A1.65,1.65,0,0,1,122.81,46.4Z"/>
        <path class="cls-2" d="M123.66,3a1.63,1.63,0,0,1,.82.22l21,12.35a1.61,1.61,0,0,1,0,2.78l-21,12.35a1.63,1.63,0,0,1-.82.22,1.58,1.58,0,0,1-.82-.22l-21-12.35a1.61,1.61,0,0,1,0-2.78l21-12.35a1.58,1.58,0,0,1,.82-.22m0-3a4.6,4.6,0,0,0-2.34.64L100.29,13a4.62,4.62,0,0,0,0,8l21,12.34a4.6,4.6,0,0,0,2.34.64,4.54,4.54,0,0,0,2.33-.64l21-12.34a4.61,4.61,0,0,0,0-8L126,.64A4.54,4.54,0,0,0,123.66,0Z"/>
        <path class="cls-2" d="M122.84,30.7l-21-12.35a1.61,1.61,0,0,1,0-2.78l21-12.35a1.65,1.65,0,0,1,1.64,0l21,12.35a1.61,1.61,0,0,1,0,2.78l-21,12.35A1.65,1.65,0,0,1,122.84,30.7Z"/>
        <path class="cls-6" d="M122.84,30.7l-21-12.35a1.61,1.61,0,0,1,0-2.78l21-12.35a1.65,1.65,0,0,1,1.64,0l21,12.35a1.61,1.61,0,0,1,0,2.78l-21,12.35A1.65,1.65,0,0,1,122.84,30.7Z"/>
        <g>
          <path d="M123.16,53.43a3,3,0,1,1-3,3,3,3,0,0,1,3-3m0-.75a3.75,3.75,0,1,0,3.75,3.75,3.75,3.75,0,0,0-3.75-3.75Z"/>
          <line class="cls-7" x1="119.66" y1="56.43" x2="26.66" y2="56.43"/>
        </g>
        <g id="YzA2GW.tif">
          <g>
            <path d="M10.44,46.63c.29,0,.58.08.86.14a8.06,8.06,0,0,1,6.52,6.09,7.89,7.89,0,0,1-2,7.73,8,8,0,0,1-5.74,2.64A8.3,8.3,0,0,1,7.81,46.87,12.21,12.21,0,0,1,9,46.67l.11,0Zm.93,7.57c.32,0,.61,0,.91,0a2,2,0,0,0,1.41-.61.89.89,0,0,0,.27-.72.53.53,0,0,0-.82-.43.47.47,0,0,0-.16.7c.16.3.13.41-.18.55a2.12,2.12,0,0,1-1.06.17l-.32,0c.13-.62.24-1.2.38-1.78a3.7,3.7,0,0,1,.63-1.5,1.24,1.24,0,0,1,1-.51c.4,0,.48.14.29.49a.58.58,0,0,0,.18.84.67.67,0,0,0,.93-.26A.84.84,0,0,0,14.5,50a1.89,1.89,0,0,0-1.25-.24,2.91,2.91,0,0,0-1.83,1A6.79,6.79,0,0,0,10.06,53c0,.07-.05.13-.08.21-.25-.23-.48-.45-.72-.65A2.39,2.39,0,0,0,7.14,52a1.83,1.83,0,0,0-1.51,1.54,2,2,0,0,0,.6,1.58c.17.2.36.38.53.57a.72.72,0,0,1,0,1,1.05,1.05,0,0,1-1.44,0,.29.29,0,0,1,0-.39,1.78,1.78,0,0,0,.17-.49.63.63,0,0,0-.56-.72.58.58,0,0,0-.66.56,1.26,1.26,0,0,0,.62,1.25,2.56,2.56,0,0,0,1.93.42,1.9,1.9,0,0,0,1.26-.76,1.41,1.41,0,0,0,.08-1.7,10.4,10.4,0,0,0-.89-1.12.78.78,0,0,1-.17-.92A.84.84,0,0,1,8,52.4a2.26,2.26,0,0,1,1.1.53l.65.58a.2.2,0,0,1,.08.24c-.16.63-.31,1.26-.45,1.9-.19.89-.36,1.79-.57,2.68A4,4,0,0,1,8.08,60a1.6,1.6,0,0,1-1,.64c-.13,0-.27,0-.32-.12s0-.22.15-.27A.59.59,0,0,0,7,59.28a.7.7,0,0,0-.7-.23.86.86,0,0,0-.67.6,1,1,0,0,0,.65,1.18,2.19,2.19,0,0,0,1.75-.16,4.49,4.49,0,0,0,1.85-1.74,8.46,8.46,0,0,0,1.13-3C11.16,55.36,11.26,54.78,11.37,54.2Z"/>
            <path d="M0,66.35a1.24,1.24,0,0,1,1.49-.8l.18,0c.1,0,.23,0,.19.19s-.12.24-.28.22a3.54,3.54,0,0,0-.46,0,.69.69,0,0,0-.5.23.52.52,0,0,0,.11.75,5.09,5.09,0,0,0,.56.32c.13.07.27.14.39.22a1.07,1.07,0,0,1,.53,1.19,1,1,0,0,1-.88.85,2,2,0,0,1-1.28-.1c0-.06,0-.11,0-.17s.12-.22.28-.17a1.45,1.45,0,0,0,.8,0,.67.67,0,0,0,.55-.53.63.63,0,0,0-.34-.7c-.2-.12-.41-.22-.62-.32A1.26,1.26,0,0,1,0,66.81Z"/>
            <path d="M2.59,70.72a.18.18,0,0,1,0-.26.29.29,0,0,1,.19-.15.71.71,0,0,0,.64-.61.59.59,0,0,0,0-.26c-.3-.84-.61-1.68-.92-2.53a1.56,1.56,0,0,1-.05-.16h.23c.27,0,.35,0,.43.3.19.6.38,1.19.58,1.79a.87.87,0,0,0,.07.17l.55-1.66a1.83,1.83,0,0,0,.08-.25c.1-.3.17-.36.48-.35H5c-.13.34-.24.67-.36,1l-.75,2.09a3.73,3.73,0,0,1-.16.35,1,1,0,0,1-.62.54Z"/>
            <path d="M17.66,70.72c-.14-.06-.1-.17-.07-.25s.12-.16.18-.16c.41,0,.55-.29.65-.6a.58.58,0,0,0,0-.26l-.94-2.56,0-.14h.27c.23,0,.31.06.39.28.19.6.38,1.21.58,1.81,0,0,0,.09.06.18a2.07,2.07,0,0,0,.08-.21l.57-1.71c.1-.31.16-.35.48-.35H20v.07s-.05.1-.07.16c-.36,1-.71,1.94-1.06,2.92a1.22,1.22,0,0,1-.75.83Z"/>
            <path d="M7.07,69.52V67.88a1.63,1.63,0,0,0,0-.31c0-.21-.12-.39-.35-.44a.56.56,0,0,0-.6.21,1.25,1.25,0,0,0-.23.77c0,.33,0,.66,0,1s-.06.47-.5.4V66.77c.33-.07.44,0,.49.35a1,1,0,0,1,.86-.43.84.84,0,0,1,.79.5,1,1,0,0,1,.76-.49.86.86,0,0,1,1,.86c0,.58,0,1.16,0,1.74,0,.13-.07.2-.21.22H8.8a1.91,1.91,0,0,0,0-.24c0-.56,0-1.11,0-1.67a.47.47,0,0,0-.31-.47.53.53,0,0,0-.6.16.68.68,0,0,0-.18.32,3.52,3.52,0,0,0-.09.64c0,.3,0,.61,0,.91s0,.35-.34.35Z"/>
            <path d="M11.47,68.12a1.41,1.41,0,1,1,2.81,0,1.41,1.41,0,1,1-2.81,0Zm1.41,1a.75.75,0,0,0,.65-.33,1.26,1.26,0,0,0,0-1.38.78.78,0,0,0-1.29,0,1.24,1.24,0,0,0,0,1.37A.76.76,0,0,0,12.88,69.16Z"/>
            <path d="M14.73,69.51V66.77c.35-.08.46,0,.53.36a1,1,0,0,1,1-.43.87.87,0,0,1,.88.85c0,.58,0,1.16,0,1.74a.21.21,0,0,1-.22.23h-.29v-.47c0-.46,0-.91,0-1.37a.55.55,0,0,0-.42-.55.71.71,0,0,0-.76.29,1.3,1.3,0,0,0-.2.76c0,.32,0,.64,0,1s-.05.38-.38.38Z"/>
            <path d="M10.69,66.75h.69c0,.34,0,.42-.34.42h-.35a1.7,1.7,0,0,0,0,.22c0,.58,0,1.16,0,1.74,0,.35,0,.39-.41.39h-.11V67.17H9.85c-.3,0-.39-.1-.32-.42h.62a5.47,5.47,0,0,1,0-.59.75.75,0,0,1,.85-.73l.37,0c0,.29,0,.38-.3.4s-.39.13-.41.38A4.38,4.38,0,0,0,10.69,66.75Z"/>
          </g>
        </g>
      </g>
    </g>
  </g>
</svg>
