<svg xmlns="http://www.w3.org/2000/svg" viewBox="0 0 28 23">
    <g fill="#02A0E6">
        <path d="M19.063.219l2.03 3.375h3.876c.844 0 1.476.316 1.898.949.422.633.633 1.16.633 1.582v13.526c0 .668-.277 1.253-.83 1.754-.554.5-1.104.751-1.649.751H2.847c-.545 0-1.073-.246-1.582-.738A2.401 2.401 0 0 1 .5 19.625V6.099c0-.827.316-1.45.95-1.872.632-.422 1.16-.633 1.581-.633h3.876L8.937.219h10.126zm-.897 1.687h-8.28l-2.03 3.375H3.031c-.07 0-.228.07-.474.211-.246.14-.37.343-.37.607v13.526a.79.79 0 0 0 .264.593c.176.167.317.25.422.25h22.148c.124-.017.286-.118.488-.302.202-.185.303-.356.303-.515V6.125c0-.035-.065-.185-.197-.448a.671.671 0 0 0-.646-.396h-4.825l-.475-.817-1.503-2.558z"/>
        <path d="M14 6.125c.809 0 1.573.154 2.294.461.72.308 1.35.73 1.885 1.266a5.901 5.901 0 0 1 1.727 4.179c0 .809-.154 1.573-.461 2.294-.308.72-.73 1.35-1.266 1.885-.54.54-1.181.97-1.885 1.266a5.783 5.783 0 0 1-2.294.462 5.783 5.783 0 0 1-2.294-.462 5.928 5.928 0 0 1-1.885-1.266 5.928 5.928 0 0 1-1.266-1.885 5.784 5.784 0 0 1-.461-2.294c0-.808.154-1.573.461-2.294.308-.72.73-1.349 1.266-1.885.54-.54 1.181-.97 1.885-1.266A5.784 5.784 0 0 1 14 6.125zm0 1.688c-1.16 0-2.153.413-2.98 1.239-.826.826-1.239 1.82-1.239 2.98s.413 2.153 1.24 2.979c.826.826 1.819 1.239 2.979 1.239 1.16 0 2.153-.413 2.98-1.24.826-.825 1.239-1.819 1.239-2.979 0-1.16-.413-2.153-1.24-2.98-.826-.825-1.819-1.238-2.979-1.238z"/>
    </g>
</svg>
