<svg id="Layer_1" data-name="Layer 1" xmlns="http://www.w3.org/2000/svg" viewBox="0 0 28 28"><defs><style>.cls-1{fill:#02a0e6;}</style></defs><title>KM_icons</title><path class="cls-1" d="M23.85,11.51l-1.49-.09a8.61,8.61,0,0,0-.63-1.51l1-1.11a1.58,1.58,0,0,0-.06-2.17l-1.3-1.3a1.58,1.58,0,0,0-2.17-.06l-1.11,1a9.4,9.4,0,0,0-1.51-.62l-.09-1.49a1.58,1.58,0,0,0-1.58-1.49H13.09A1.59,1.59,0,0,0,11.5,4.15l-.08,1.49a9,9,0,0,0-1.51.62l-1.11-1a1.58,1.58,0,0,0-2.17.06l-1.3,1.3A1.58,1.58,0,0,0,5.27,8.8l1,1.11a9.4,9.4,0,0,0-.62,1.51l-1.49.09a1.58,1.58,0,0,0-1.49,1.58v1.82a1.57,1.57,0,0,0,1.49,1.58l1.49.09a9,9,0,0,0,.62,1.51l-1,1.11a1.58,1.58,0,0,0,.06,2.17l1.3,1.3a1.58,1.58,0,0,0,2.17.06l1.11-1a9,9,0,0,0,1.51.62l.08,1.49a1.59,1.59,0,0,0,1.59,1.49h1.82a1.58,1.58,0,0,0,1.58-1.49l.09-1.49a9.4,9.4,0,0,0,1.51-.62l1.11,1a1.58,1.58,0,0,0,2.17-.06l1.3-1.3a1.58,1.58,0,0,0,.06-2.17l-1-1.11a9,9,0,0,0,.62-1.51l1.49-.09a1.57,1.57,0,0,0,1.49-1.58V13.09A1.58,1.58,0,0,0,23.85,11.51Zm.09,3.4a.19.19,0,0,1-.17.19l-2,.11a.69.69,0,0,0-.64.53,7.43,7.43,0,0,1-.86,2.08.68.68,0,0,0,.08.82l1.32,1.49a.17.17,0,0,1,0,.25l-1.3,1.3a.18.18,0,0,1-.25,0l-1.49-1.32a.69.69,0,0,0-.83-.08,7.37,7.37,0,0,1-2.07.86.68.68,0,0,0-.53.64l-.12,2a.17.17,0,0,1-.18.17H13.09a.19.19,0,0,1-.19-.17l-.11-2a.71.71,0,0,0-.53-.64,7.25,7.25,0,0,1-2.07-.86.71.71,0,0,0-.37-.1.67.67,0,0,0-.46.18L7.87,21.68a.18.18,0,0,1-.25,0l-1.3-1.3a.17.17,0,0,1,0-.25l1.32-1.49a.68.68,0,0,0,.08-.82,7.43,7.43,0,0,1-.86-2.08.71.71,0,0,0-.64-.53l-2-.11a.19.19,0,0,1-.17-.19V13.09a.17.17,0,0,1,.17-.18l2-.12a.69.69,0,0,0,.64-.53,7,7,0,0,1,.86-2.08.68.68,0,0,0-.08-.82L6.32,7.87a.17.17,0,0,1,0-.25l1.3-1.3a.17.17,0,0,1,.25,0L9.36,7.64a.69.69,0,0,0,.83.08,7.25,7.25,0,0,1,2.07-.86.71.71,0,0,0,.53-.64l.11-2a.19.19,0,0,1,.19-.17h1.82a.17.17,0,0,1,.18.17l.12,2a.68.68,0,0,0,.53.64,7.37,7.37,0,0,1,2.07.86.69.69,0,0,0,.83-.08l1.49-1.32a.17.17,0,0,1,.25,0l1.3,1.3a.17.17,0,0,1,0,.25L20.35,9.36a.71.71,0,0,0-.07.83,7.5,7.5,0,0,1,.86,2.07.69.69,0,0,0,.64.53l2,.12a.17.17,0,0,1,.17.18Z"/><path class="cls-1" d="M16.69,10.05a.71.71,0,0,0-.61-.35H11.92a.71.71,0,0,0-.61.35l-2.08,3.6a.73.73,0,0,0,0,.7L11.31,18a.71.71,0,0,0,.61.35h4.16a.71.71,0,0,0,.61-.35l2.08-3.6a.73.73,0,0,0,0-.7ZM12.32,16.9,10.65,14l1.67-2.9h3.36L17.35,14l-1.67,2.9Z"/></svg>