<svg id="Layer_1" data-name="Layer 1" xmlns="http://www.w3.org/2000/svg" viewBox="0 0 28 28"><defs><style>.cls-1{fill:#02a0e6;}</style></defs><title>KM_icons</title><path class="cls-1" d="M25.69,8.36h-1V7.42a2.08,2.08,0,0,0-2.08-2.07h-.91v-.7a2.08,2.08,0,0,0-2.08-2.08H12.6a2.09,2.09,0,0,0-1.71.9l-.8,1.17H2.32A2.08,2.08,0,0,0,.24,6.71V17.56a2.08,2.08,0,0,0,2.08,2.08h.91v.7A2.07,2.07,0,0,0,5.3,22.41h1v.94a2.08,2.08,0,0,0,2.08,2.08H25.69a2.08,2.08,0,0,0,2.07-2.08V10.44A2.08,2.08,0,0,0,25.69,8.36Zm.67,15a.68.68,0,0,1-.67.68H8.34a.69.69,0,0,1-.68-.68V12.5a.69.69,0,0,1,.68-.68h8.51l1.22-1.76a.65.65,0,0,1,.55-.3h7.07a.67.67,0,0,1,.67.68Zm-21.73-3V9.49a.67.67,0,0,1,.67-.68h8.52L15,7a.7.7,0,0,1,.56-.29h7.06a.67.67,0,0,1,.67.67v.94h-4.7a2.06,2.06,0,0,0-1.7.9l-.81,1.16H8.34A2.08,2.08,0,0,0,6.26,12.5V21h-1A.67.67,0,0,1,4.63,20.34Zm-3-2.78V6.71A.67.67,0,0,1,2.32,6h8.51L12,4.27A.68.68,0,0,1,12.6,4h7.06a.69.69,0,0,1,.68.68v.7H15.59a2.09,2.09,0,0,0-1.71.9l-.8,1.16H5.3A2.08,2.08,0,0,0,3.23,9.49v8.75H2.32A.68.68,0,0,1,1.64,17.56Z"/><path class="cls-1" d="M24.31,18.64H21.75a.7.7,0,0,0-.7.7v.58H19.1v-.58a.7.7,0,0,0-.7-.7h-.55v-2h.58a.7.7,0,0,0,.7-.7V13.41a.7.7,0,0,0-.7-.7H15.87a.7.7,0,0,0-.7.7V16a.7.7,0,0,0,.7.7h.58v2h-.61a.7.7,0,0,0-.7.7v.58H13.2v-.58a.71.71,0,0,0-.7-.7H9.93a.71.71,0,0,0-.7.7v2.57a.71.71,0,0,0,.7.7H12.5a.71.71,0,0,0,.7-.7v-.58h1.94v.58a.7.7,0,0,0,.7.7H18.4a.7.7,0,0,0,.7-.7v-.58h1.95v.58a.7.7,0,0,0,.7.7h2.56a.7.7,0,0,0,.7-.7V19.34A.7.7,0,0,0,24.31,18.64Zm-7.74-4.53h1.16v1.16H16.57ZM22.45,20h1.16v1.17H22.45ZM17.7,21.21H16.54V20H17.7Zm-7.07,0V20H11.8v1.17Z"/></svg>