<?xml version="1.0" encoding="UTF-8"?>
<svg width="70px" height="40px" viewBox="0 0 70 40" version="1.1" xmlns="http://www.w3.org/2000/svg" xmlns:xlink="http://www.w3.org/1999/xlink">
    <!-- Generator: Sketch 52.6 (67491) - http://www.bohemiancoding.com/sketch -->
    <title>Group 19</title>
    <desc>Created with Sketch.</desc>
    <g id="Page-1" stroke="none" stroke-width="1" fill="none" fill-rule="evenodd" opacity="0.6">
        <g id="Group-19" fill="#C7CED7">
            <polygon id="Fill-10" points="18.8533534 20.6983636 16.4329224 32.1577576 12.687319 20.6983636 10.2958534 20.6983636 6.55025 32.1577576 4.18775 20.6983636 0.297318966 20.6983636 4.67835345 40.0001818 7.1265431 40.0001818 11.4786121 27.0632121 15.8566293 40.0001818 18.3060259 40.0001818 22.7142155 20.6983636"></polygon>
            <polygon id="Fill-13" points="24.5875 39.9993939 28.3337069 39.9993939 28.3337069 26.0515152 24.5875 26.0515152"></polygon>
            <polygon id="Fill-15" points="32.0787069 39.9993939 35.8532759 39.9993939 35.8532759 20.6981818 32.0787069 20.6981818"></polygon>
            <polygon id="Fill-16" points="39.5988793 39.9993939 43.3734483 39.9993939 43.3734483 20.6981818 39.5988793 20.6981818"></polygon>
            <path d="M28.7082672,21.9791515 C28.7082672,23.2264242 27.702319,24.2361212 26.4604224,24.2361212 C25.2191293,24.2361212 24.213181,23.2264242 24.213181,21.9791515 C24.213181,20.7318788 25.2191293,19.7221818 26.4604224,19.7221818 C27.702319,19.7221818 28.7082672,20.7318788 28.7082672,21.9791515" id="Fill-17"></path>
            <path d="M43.8887931,5.55866667 C42.9087931,8.32412121 44.3516379,11.3762424 47.1057759,12.361697 L49.0525,13.0574545 C50.8393103,13.6962424 52.2718966,14.9962424 53.0853448,16.7174545 C53.8993966,18.4386667 53.9971552,20.3756364 53.3605172,22.1707879 L52.6671552,24.1265455 C52.1922414,25.4665455 52.2652586,26.9113939 52.872931,28.1962424 C53.4806034,29.4810909 54.5499138,30.4507879 55.8841379,30.9277576 C57.2177586,31.4047273 58.6575862,31.3313939 59.9362931,30.721697 C61.215,30.112 62.1805172,29.0380606 62.6560345,27.6986667 L67.5113793,14.0059394 C67.9862931,12.6659394 67.9132759,11.2204848 67.3056034,9.93624242 C66.697931,8.65139394 65.6286207,7.68109091 64.2943966,7.20472727 L50.6618966,2.32836364 C47.9065517,1.34230303 44.8687931,2.79260606 43.8887931,5.55866667 M57.6673276,33.0489697 C56.8647414,33.0489697 56.0585345,32.9101818 55.2794828,32.6313939 C53.4926724,31.9926061 52.0600862,30.6932121 51.2460345,28.972 C50.4325862,27.2513939 50.3348276,25.3150303 50.9708621,23.5198788 L51.6636207,21.5641212 C52.1391379,20.2241212 52.0661207,18.7780606 51.4584483,17.4932121 C50.8513793,16.2083636 49.782069,15.2380606 48.4484483,14.7610909 L46.5017241,14.0653333 C42.8122414,12.7447273 40.8793966,8.65684848 42.1918966,4.952 C43.5056034,1.24715152 47.5746552,-0.694666667 51.2659483,0.624121212 L64.8984483,5.50048485 C66.6858621,6.13927273 68.1184483,7.43927273 68.9318966,9.15987879 C69.7459483,10.8810909 69.8437069,12.8174545 69.2076724,14.612 L64.3523276,28.3053333 C63.7162931,30.0998788 62.4218966,31.5380606 60.7087069,32.3556364 C59.7419828,32.8168485 58.707069,33.0489697 57.6673276,33.0489697" id="Fill-18"></path>
        </g>
    </g>
</svg>