<svg xmlns="http://www.w3.org/2000/svg" viewBox="0 0 26 28">
    <g fill="#02A0E6">
        <path d="M21.07.11a4.71 4.71 0 0 1 4.695 4.485l.005.215v6.69a4.71 4.71 0 0 1-4.485 4.695l-.215.005h-8.31V21H17a3 3 0 1 1 .046 1.526L17 22.35h-4.27a3.59 3.59 0 0 1-3.38 3.255l-.19.005H7.45a3 3 0 1 1-.048-1.575l.048.175h1.71a2.21 2.21 0 0 0 2.194-2.053L11.36 22v-5.83H4.93a4.71 4.71 0 0 1-4.695-4.485L.23 11.47V4.81A4.71 4.71 0 0 1 4.715.115L4.93.11h16.14zM4.58 23.37a1.56 1.56 0 1 0 0 3.12 1.56 1.56 0 0 0 0-3.12zm15.25-3.26a1.56 1.56 0 1 0 .145.006l-.145-.006zm1.24-18.6H4.93a3.3 3.3 0 0 0-3.285 3.113l-.005.187v6.66a3.3 3.3 0 0 0 3.103 3.294l.187.006h16.14a3.3 3.3 0 0 0 3.293-3.082l.007-.218V4.81a3.3 3.3 0 0 0-3.113-3.295l-.187-.005z"/>
        <path d="M8.18 3.72l.214.005a4.42 4.42 0 1 1-.428 0l.214-.005zm0 1.44a3 3 0 1 0 0 6 3 3 0 0 0 0-6zm12.57.92H14.8a.7.7 0 0 0 0 1.4h5.95a.7.7 0 0 0 0-1.4zm0 3.03H14.8a.7.7 0 0 0 0 1.4h5.95a.7.7 0 0 0 0-1.4z"/>
    </g>
</svg>
