<svg xmlns="http://www.w3.org/2000/svg" xmlns:xlink="http://www.w3.org/1999/xlink" viewBox="0 0 160.07 81.55">
  <defs>
    <style>
      .cls-1, .cls-2, .cls-3 {
        fill: #fff;
      }

      .cls-1, .cls-3, .cls-4, .cls-6, .cls-7 {
        stroke-miterlimit: 10;
      }

      .cls-1, .cls-3, .cls-4, .cls-6 {
        stroke-width: 2px;
      }

      .cls-1 {
        stroke: url(#linear-gradient);
      }

      .cls-3 {
        stroke: url(#linear-gradient-2);
      }

      .cls-4 {
        fill: url(#linear-gradient-3);
        stroke: url(#linear-gradient-4);
      }

      .cls-5, .cls-6, .cls-7 {
        fill: none;
      }

      .cls-6 {
        stroke: url(#linear-gradient-5);
      }

      .cls-7 {
        stroke: #000;
        stroke-width: 0.75px;
      }
    </style>
    <linearGradient id="linear-gradient" x1="123.66" y1="36.37" x2="123.66" y2="81.55" gradientUnits="userSpaceOnUse">
      <stop offset="0" stop-color="#05cef4"/>
      <stop offset="1" stop-color="#02a0e6"/>
    </linearGradient>
    <linearGradient id="linear-gradient-2" x1="123.66" y1="25.32" x2="123.66" y2="64.6" xlink:href="#linear-gradient"/>
    <linearGradient id="linear-gradient-3" x1="123.66" y1="15.29" x2="123.66" y2="46.63" xlink:href="#linear-gradient"/>
    <linearGradient id="linear-gradient-4" x1="123.66" y1="14.29" x2="123.66" y2="47.63" xlink:href="#linear-gradient"/>
    <linearGradient id="linear-gradient-5" x1="123.66" y1="2" x2="123.66" y2="31.92" xlink:href="#linear-gradient"/>
  </defs>
  <title>stack-layer-2</title>
  <g id="Layer_2" data-name="Layer 2">
    <g id="Layer_1-2" data-name="Layer 1">
      <g>
        <path class="cls-1" d="M122.68,80.28,89.2,60.62a1.92,1.92,0,0,1,0-3.33l33.48-19.65a1.9,1.9,0,0,1,1.95,0l33.49,19.65a1.93,1.93,0,0,1,0,3.33L124.63,80.28A1.9,1.9,0,0,1,122.68,80.28Z"/>
        <path class="cls-2" d="M123.66,26.32a1.93,1.93,0,0,1,.93.25l28.61,16.8a1.85,1.85,0,0,1,0,3.18L124.59,63.34a1.81,1.81,0,0,1-1.87,0L94.12,46.55a1.84,1.84,0,0,1,0-3.18l28.6-16.8a1.94,1.94,0,0,1,.94-.25m0-3a4.86,4.86,0,0,0-2.46.67L92.6,40.78a4.85,4.85,0,0,0,0,8.36l28.6,16.79a4.86,4.86,0,0,0,2.46.67,4.8,4.8,0,0,0,2.45-.67l28.6-16.79a4.84,4.84,0,0,0,0-8.36L126.11,24a4.8,4.8,0,0,0-2.45-.67Z"/>
        <path class="cls-3" d="M122.72,63.34,94.12,46.55a1.84,1.84,0,0,1,0-3.18l28.6-16.8a1.89,1.89,0,0,1,1.87,0l28.61,16.8a1.85,1.85,0,0,1,0,3.18L124.59,63.34A1.84,1.84,0,0,1,122.72,63.34Z"/>
        <g>
          <path class="cls-2" d="M123.66,15.29a1.59,1.59,0,0,1,.84.23l23.85,14a1.67,1.67,0,0,1,0,2.88l-23.85,14a1.67,1.67,0,0,1-1.69,0L99,32.4a1.67,1.67,0,0,1,0-2.88l23.85-14a1.6,1.6,0,0,1,.85-.23m0-4a5.74,5.74,0,0,0-2.88.78l-23.84,14a5.67,5.67,0,0,0,0,9.78l23.84,14a5.69,5.69,0,0,0,5.75,0l23.85-14a5.67,5.67,0,0,0,0-9.78l-23.85-14a5.67,5.67,0,0,0-2.87-.78Z"/>
          <path class="cls-4" d="M122.81,46.4,99,32.4a1.67,1.67,0,0,1,0-2.88l23.85-14a1.65,1.65,0,0,1,1.69,0l23.85,14a1.67,1.67,0,0,1,0,2.88l-23.85,14A1.65,1.65,0,0,1,122.81,46.4Z"/>
        </g>
        <path class="cls-5" d="M122.72,63.34,94.12,46.55a1.84,1.84,0,0,1,0-3.18l28.6-16.8a1.89,1.89,0,0,1,1.87,0l28.61,16.8a1.85,1.85,0,0,1,0,3.18L124.59,63.34A1.84,1.84,0,0,1,122.72,63.34Z"/>
        <path class="cls-5" d="M122.68,80.28,89.2,60.62a1.92,1.92,0,0,1,0-3.33l33.48-19.65a1.9,1.9,0,0,1,1.95,0l33.49,19.65a1.93,1.93,0,0,1,0,3.33L124.63,80.28A1.9,1.9,0,0,1,122.68,80.28Z"/>
        <path class="cls-2" d="M123.66,3a1.63,1.63,0,0,1,.82.22l21,12.35a1.61,1.61,0,0,1,0,2.78l-21,12.35a1.63,1.63,0,0,1-.82.22,1.58,1.58,0,0,1-.82-.22l-21-12.35a1.61,1.61,0,0,1,0-2.78l21-12.35a1.58,1.58,0,0,1,.82-.22m0-3a4.6,4.6,0,0,0-2.34.64L100.29,13a4.62,4.62,0,0,0,0,8l21,12.34a4.6,4.6,0,0,0,2.34.64,4.54,4.54,0,0,0,2.33-.64l21-12.34a4.61,4.61,0,0,0,0-8L126,.64A4.54,4.54,0,0,0,123.66,0Z"/>
        <path class="cls-2" d="M122.84,30.7l-21-12.35a1.61,1.61,0,0,1,0-2.78l21-12.35a1.65,1.65,0,0,1,1.64,0l21,12.35a1.61,1.61,0,0,1,0,2.78l-21,12.35A1.65,1.65,0,0,1,122.84,30.7Z"/>
        <path class="cls-6" d="M122.84,30.7l-21-12.35a1.61,1.61,0,0,1,0-2.78l21-12.35a1.65,1.65,0,0,1,1.64,0l21,12.35a1.61,1.61,0,0,1,0,2.78l-21,12.35A1.65,1.65,0,0,1,122.84,30.7Z"/>
        <g>
          <path d="M123.16,36.43a3,3,0,1,1-3,3,3,3,0,0,1,3-3m0-.75a3.75,3.75,0,1,0,3.75,3.75,3.75,3.75,0,0,0-3.75-3.75Z"/>
          <line class="cls-7" x1="119.66" y1="39.43" x2="26.66" y2="39.43"/>
        </g>
        <g id="L44FS2.tif">
          <g>
            <path d="M8.68,38.93c-.11.26-.19.5-.3.71a.62.62,0,0,1-.26.25,1.31,1.31,0,0,1-1.64-.54,1.51,1.51,0,0,0-.92-.74,2.16,2.16,0,0,0-.44,0c.44.63.81,1.24,1.26,1.78a1.65,1.65,0,0,0,1.45.45l.51-.06c0,.42,0,.83,0,1.23s-.2.36-.44.3a4.19,4.19,0,0,1-.59-.22,6.68,6.68,0,1,1,5.13.11c-.64.24-.77.15-.77-.52,0-.45,0-.91,0-1.37s-.15-.9-.24-1.39l.6-.12a3.11,3.11,0,0,0,1.76-4.73,1,1,0,0,1-.11-.49c0-.37,0-.75,0-1.13s-.27-.48-.6-.35-.76.35-1.14.51a1,1,0,0,1-.47.07,7.15,7.15,0,0,0-2.84,0,1,1,0,0,1-.5-.09c-.43-.16-.84-.36-1.26-.52a.28.28,0,0,0-.42.26c0,.43,0,.86-.05,1.28a.94.94,0,0,1-.07.39,3.07,3.07,0,0,0,2.08,4.88Z"/>
            <path d="M3.53,44.87c-.47,0-.88-.08-1.3-.06a1,1,0,0,0-1,.91,5,5,0,0,0,0,1.54,1,1,0,0,0,1.4.82.31.31,0,0,0,.2-.22c0-.26,0-.52,0-.81L2.1,47a5.9,5.9,0,0,1,0-.73.27.27,0,0,1,.2-.2c.41,0,.81,0,1.22,0l.4,0v2.08c0,.66,0,.73-.64.83a5.6,5.6,0,0,1-1.78,0A1.73,1.73,0,0,1,.13,47.58a4.72,4.72,0,0,1,0-2.33,1.8,1.8,0,0,1,1.68-1.46,8.56,8.56,0,0,1,1.51.09c.28,0,.43.16.3.48A3.18,3.18,0,0,0,3.53,44.87Z"/>
            <path d="M8.85,49V44H9.91v1.85H11.4V44h1.07v5H11.42V46.88H9.94V49Z"/>
            <path d="M17.7,48.94l-1,.13V44h1.07v1.64a7.54,7.54,0,0,1,1-.15,1.07,1.07,0,0,1,1.14.83,3.43,3.43,0,0,1,0,2.08,1.05,1.05,0,0,1-1.16.75A5.8,5.8,0,0,1,17.7,48.94Zm.05-1.66c0,.18,0,.36,0,.55s0,.24,0,.25a1.57,1.57,0,0,0,.66.14.59.59,0,0,0,.38-.36,3.79,3.79,0,0,0,0-1,.52.52,0,0,0-.62-.49c-.36,0-.56.18-.49.57A2,2,0,0,1,17.75,47.28Z"/>
            <path d="M14.08,45.6v2.06c0,.53.21.68.71.55a.36.36,0,0,0,.31-.41c0-.72,0-1.44,0-2.19h1.07v3.46l-.75-.1a11.24,11.24,0,0,1-1.58.12.87.87,0,0,1-.83-.85,3.77,3.77,0,0,1,0-.47V45.6Z"/>
            <path d="M6.5,46.5l-.56,0c0-.36-.19-.76.4-.83.06,0,.14-.17.15-.26s0-.49,0-.76H7.56v.94l.77,0v.88l-.75,0c0,.49,0,1,0,1.44,0,.26.15.3.78.33,0,.2,0,.42,0,.63a.28.28,0,0,1-.16.18A1.19,1.19,0,0,1,6.5,48C6.48,47.48,6.5,47,6.5,46.5Z"/>
            <path d="M4.47,47.27c0-.45,0-.91,0-1.37,0-.23,0-.35.33-.34.93,0,.76-.12.77.75s0,1.59,0,2.39c0,.27-.1.36-.37.35-.86,0-.72.09-.73-.72C4.47,48,4.47,47.63,4.47,47.27Z"/>
            <path d="M5.63,44.67a.62.62,0,0,1-.59.61.61.61,0,0,1-.61-.62.6.6,0,1,1,1.2,0Z"/>
          </g>
        </g>
      </g>
    </g>
  </g>
</svg>
