<svg xmlns="http://www.w3.org/2000/svg" viewBox="0 0 32 32">
    <defs>
        <linearGradient id="a" x1="50%" x2="50%" y1="0%" y2="100%">
            <stop offset="0%" stop-color="#13EDF4"/>
            <stop offset="100%" stop-color="#02A0E6"/>
        </linearGradient>
        <linearGradient id="b" x1="50%" x2="50%" y1="0%" y2="100%">
            <stop offset="0%" stop-color="#13EDF4"/>
            <stop offset="100%" stop-color="#02A0E6"/>
        </linearGradient>
        <linearGradient id="c" x1="50%" x2="50%" y1="0%" y2="100%">
            <stop offset="0%" stop-color="#13EDF4"/>
            <stop offset="100%" stop-color="#02A0E6"/>
        </linearGradient>
    </defs>
    <g fill="none" fill-rule="evenodd">
        <path fill="url(#a)" fill-rule="nonzero" d="M31.375 13.047h-4a.625.625 0 0 0-.625.625v3.156a.625.625 0 0 0 1.25 0v-2.531h2.75V30.75H28v-9.234a.625.625 0 0 0-1.25 0v9.234H25.5V17.812a.625.625 0 0 0-.625-.625h-4a.625.625 0 0 0-.625.625V30.75H19v-8.563a.625.625 0 0 0-.625-.625h-4a.625.625 0 0 0-.625.625v8.563H12.5v-4.977a.625.625 0 0 0-.625-.625h-4a.625.625 0 0 0-.625.625v4.977H1.875a.626.626 0 0 1-.625-.625V1.875c0-.345.28-.625.625-.625h16.123v4.125c0 1.034.842 1.875 1.875 1.875h4.125v7.688a.625.625 0 0 0 1.25 0V6.624a.625.625 0 0 0-.183-.442l-6-6A.625.625 0 0 0 18.623 0H1.875A1.877 1.877 0 0 0 0 1.875v28.25C0 31.159.841 32 1.875 32h29.5c.345 0 .625-.28.625-.625V13.672a.625.625 0 0 0-.625-.625zM19.248 2.134L23.115 6h-3.242a.626.626 0 0 1-.625-.625V2.134zM11.25 30.75H8.5v-4.352h2.75v4.352zm6.5 0H15v-7.938h2.75v7.938zm6.5 0H21.5V18.437h2.75V30.75z"/>
        <path fill="url(#a)" d="M27.817 18.614a.627.627 0 0 0-.884 0 .63.63 0 0 0-.183.442.63.63 0 0 0 .183.441.63.63 0 0 0 .442.184.63.63 0 0 0 .442-.184.63.63 0 0 0 .183-.441.63.63 0 0 0-.183-.442z"/>
        <path fill="#FA1A57" fill-rule="nonzero" d="M9.099 3.42a.625.625 0 0 0-.625.626V5.17a5.756 5.756 0 0 0-5.124 5.715 5.755 5.755 0 0 0 5.75 5.748 5.756 5.756 0 0 0 5.714-5.123h1.124c.346 0 .626-.28.626-.625 0-4.116-3.349-7.464-7.464-7.464zm0 11.963A4.504 4.504 0 0 1 4.6 10.885a4.506 4.506 0 0 1 3.874-4.456v4.455c0 .346.28.625.625.625h4.455a4.506 4.506 0 0 1-4.455 3.874zm.625-5.123V4.701a6.226 6.226 0 0 1 5.557 5.558H9.724z"/>
        <path fill="url(#b)" d="M15.938 18.39H4a.625.625 0 0 0 0 1.25h11.938a.625.625 0 0 0 0-1.25z"/>
        <path fill="url(#c)" d="M8 21.406H4a.625.625 0 0 0 0 1.25h4a.625.625 0 0 0 0-1.25z"/>
        <path fill="url(#a)" d="M11.572 21.59a.628.628 0 0 0-1.067.442.627.627 0 0 0 .625.624.63.63 0 0 0 .625-.625.63.63 0 0 0-.183-.442z"/>
    </g>
</svg>
