<svg xmlns="http://www.w3.org/2000/svg" viewBox="0 0 28 22">
    <path fill="#02A0E6" d="M25.87.66a2.1 2.1 0 0 1 2.094 1.94l.006.15v12.8a2.1 2.1 0 0 1-1.95 2.095l-.15.005h-.86v2a2.1 2.1 0 0 1-1.95 2.095l-.15.005H5.28a2.1 2.1 0 0 1-2.077-1.85l-.013-.15h-1A2.1 2.1 0 0 1 .105 17.8L.1 17.65V4.87a2.101 2.101 0 0 1 1.905-2.11l.185-.01h3.94A2.1 2.1 0 0 1 8.08.665L8.23.66h17.64zM6.13 6.15h-.86a.691.691 0 0 0-.691.58l-.009.11v12.79a.7.7 0 0 0 .605.694l.095.006h17.64a.7.7 0 0 0 .691-.588l.009-.102v-2H8.23a2.1 2.1 0 0 1-2.095-1.95l-.005-.15V6.15zm0-1.98H2.19a.69.69 0 0 0-.683.59l-.007.11v12.78a.69.69 0 0 0 .57.69l.1.01h1V6.84a2.1 2.1 0 0 1 1.95-2.085l.15-.005h.86v-.58zm19.74-2.11H8.23a.691.691 0 0 0-.691.58l-.009.11v12.79a.7.7 0 0 0 .605.694l.095.006h17.64a.7.7 0 0 0 .694-.605l.006-.095V2.75a.69.69 0 0 0-.59-.683l-.11-.007zM17.08 4a5.165 5.165 0 1 1 .08 10.33.7.7 0 0 1 0-1.4 3.75 3.75 0 1 0-3.53-5 .7.7 0 0 1 .783 1.09l-.073.08-1.19 1.08a.67.67 0 0 1-.47.19.71.71 0 0 1-.434-.15l-.086-.08-1.08-1.19a.7.7 0 0 1 1-.95 5.16 5.16 0 0 1 5-4zm0 1.97a.7.7 0 0 1 .694.605l.006.095V9L19 10.19a.71.71 0 0 1 0 1 .71.71 0 0 1-.912.074L18 11.19l-1.41-1.46a.67.67 0 0 1-.201-.38l-.009-.11V6.67a.7.7 0 0 1 .7-.7z"/>
</svg>
