<svg xmlns="http://www.w3.org/2000/svg" viewBox="0 0 28 28">
    <path fill="#02A0E6" fill-rule="evenodd" d="M3.875.688a.81.81 0 0 1 .593.25.81.81 0 0 1 .25.593v9.387h.001a3.35 3.35 0 0 1 1.82 1.186c.474.598.711 1.292.711 2.084 0 .79-.237 1.485-.712 2.083a3.349 3.349 0 0 1-1.82 1.186v9.387a.81.81 0 0 1-.25.593.81.81 0 0 1-.593.25.81.81 0 0 1-.593-.25.81.81 0 0 1-.25-.593v-9.387a3.412 3.412 0 0 1-1.807-1.186A3.215 3.215 0 0 1 .5 14.187c0-.79.242-1.485.725-2.083a3.412 3.412 0 0 1 1.806-1.186V1.531a.81.81 0 0 1 .25-.593.81.81 0 0 1 .594-.25zm0 11.812c-.475 0-.875.167-1.2.501-.325.334-.487.73-.487 1.186 0 .458.162.853.487 1.187.325.334.725.501 1.2.501s.875-.167 1.2-.501c.325-.334.488-.73.488-1.186 0-.458-.163-.853-.488-1.187a1.609 1.609 0 0 0-1.2-.501zM14 .688a.81.81 0 0 1 .593.25.81.81 0 0 1 .25.593v14.45l.001-.001c.722.182 1.362.6 1.82 1.187.474.598.711 1.292.711 2.083 0 .791-.237 1.485-.712 2.083a3.349 3.349 0 0 1-1.82 1.187v4.324a.81.81 0 0 1-.25.593.81.81 0 0 1-.593.25.81.81 0 0 1-.593-.25.81.81 0 0 1-.25-.593V22.52a3.412 3.412 0 0 1-1.807-1.187 3.215 3.215 0 0 1-.725-2.083c0-.791.242-1.485.725-2.083a3.412 3.412 0 0 1 1.806-1.187V1.531a.81.81 0 0 1 .25-.593.81.81 0 0 1 .594-.25zm0 16.875c-.475 0-.875.166-1.2.5-.325.334-.488.73-.488 1.187 0 .457.163.853.488 1.187.325.334.725.5 1.2.5s.875-.166 1.2-.5c.325-.334.488-.73.488-1.187 0-.457-.163-.853-.488-1.187a1.609 1.609 0 0 0-1.2-.5zM24.125.688a.81.81 0 0 1 .593.25.81.81 0 0 1 .25.593v4.324h.001c.722.182 1.362.6 1.82 1.187.474.598.711 1.292.711 2.083 0 .791-.237 1.485-.712 2.083a3.349 3.349 0 0 1-1.82 1.187v14.449a.81.81 0 0 1-.25.593.81.81 0 0 1-.593.25.81.81 0 0 1-.593-.25.81.81 0 0 1-.25-.593v-14.45a3.412 3.412 0 0 1-1.807-1.186 3.215 3.215 0 0 1-.725-2.083c0-.791.242-1.485.725-2.083a3.412 3.412 0 0 1 1.806-1.187V1.531a.81.81 0 0 1 .25-.593.81.81 0 0 1 .594-.25zm0 6.75c-.475 0-.875.166-1.2.5-.325.334-.488.73-.488 1.187 0 .457.163.853.488 1.187.325.334.725.5 1.2.5s.875-.166 1.2-.5c.325-.334.488-.73.488-1.187 0-.457-.163-.853-.488-1.187a1.609 1.609 0 0 0-1.2-.5z"/>
</svg>
